<svg xmlns="http://www.w3.org/2000/svg" xmlns:xlink="http://www.w3.org/1999/xlink" viewBox="0 0 22.224 22.213">
  <defs>
    <linearGradient id="linear-gradient" x1="-3.414" y1="1.214" x2="-3.414" y2="0.858" gradientUnits="objectBoundingBox">
      <stop offset="0" stop-color="#d8b034"/>
      <stop offset="0.234" stop-color="#fce33a"/>
      <stop offset="0.545" stop-color="#ceb23e"/>
      <stop offset="0.735" stop-color="#fde43a"/>
      <stop offset="1" stop-color="#b6752c"/>
    </linearGradient>
    <linearGradient id="linear-gradient-2" x1="-3.236" y1="1.486" x2="-3.237" y2="1.008" gradientUnits="objectBoundingBox">
      <stop offset="0" stop-color="#d7b571"/>
      <stop offset="0.504" stop-color="#f6f1dd"/>
      <stop offset="0.542" stop-color="#221007"/>
      <stop offset="0.629" stop-color="#6a491e"/>
      <stop offset="0.764" stop-color="#5d3d16"/>
      <stop offset="1" stop-color="#eab758"/>
    </linearGradient>
    <radialGradient id="radial-gradient" cx="0.5" cy="0.5" fx="0.5013615489006042" fy="0.6428051590919495" r="0.5" gradientTransform="translate(-0.002 0.001)" gradientUnits="objectBoundingBox">
      <stop offset="0" stop-color="#5fdd00"/>
      <stop offset="1" stop-color="#45b206"/>
    </radialGradient>
  </defs>
  <g id="Goldlbelwart-03">
    <g id="g975">
      <path id="path839" d="M53.712,43.6A11.109,11.109,0,0,0,42.6,54.706h0A11.109,11.109,0,0,0,53.712,65.813h0A11.109,11.109,0,0,0,64.824,54.706h0A11.109,11.109,0,0,0,53.712,43.6Z" transform="translate(-42.6 -43.6)" fill="url(#linear-gradient)"/>
      <ellipse id="ellipse854_00000150097808336496502990000014945281484647106952_" cx="10.217" cy="10.212" rx="10.217" ry="10.212" transform="translate(0.895 0.895)" fill="url(#linear-gradient-2)"/>
      <ellipse id="ellipse840" cx="9.495" cy="9.49" rx="9.495" ry="9.49" transform="translate(1.617 1.617)" fill="#6a491e"/>
      <ellipse id="ellipse841" cx="9.215" cy="9.21" rx="9.215" ry="9.21" transform="translate(1.897 1.897)" fill="url(#radial-gradient)"/>
      <path id="path917" d="M91.735,83.783a.183.183,0,1,1-.183-.183A.182.182,0,0,1,91.735,83.783Zm-1,.038a.184.184,0,1,1-.2-.162A.185.185,0,0,1,90.738,83.821Zm-.992.146a.185.185,0,1,1-.221-.14A.192.192,0,0,1,89.747,83.966Zm-.97.264a.186.186,0,1,1-.237-.113A.186.186,0,0,1,88.777,84.23Zm-.932.372a.186.186,0,1,1-.248-.086A.187.187,0,0,1,87.844,84.6Zm-.878.474a.187.187,0,1,1-.259-.054A.185.185,0,0,1,86.966,85.077Zm-.824.571a.184.184,0,1,1-.259-.027A.181.181,0,0,1,86.141,85.648Zm-.754.663a.187.187,0,1,1-.264.005A.182.182,0,0,1,85.387,86.311Zm-.668.744a.184.184,0,1,1-.259.032.182.182,0,0,1,.259-.032Zm-.587.814a.185.185,0,1,1-.253.065A.181.181,0,0,1,84.131,87.868Zm-.485.873a.187.187,0,1,1-.248.092A.194.194,0,0,1,83.646,88.741Zm-.383.927a.184.184,0,1,1-.232.119A.181.181,0,0,1,83.264,89.668Zm-.275.965a.187.187,0,1,1-.221.145A.185.185,0,0,1,82.989,90.632Zm-.162.992a.184.184,0,1,1-.2.167A.179.179,0,0,1,82.827,91.624Zm-.054,1a.183.183,0,1,1-.178.189A.185.185,0,0,1,82.773,92.621Zm.065,1a.185.185,0,1,1-.156.21A.187.187,0,0,1,82.838,93.623Zm.178.986a.186.186,0,1,1-.135.226.194.194,0,0,1,.135-.226Zm.291.959a.188.188,0,1,1-.108.243A.192.192,0,0,1,83.307,95.569Zm.4.922a.183.183,0,1,1-.075.248A.18.18,0,0,1,83.706,96.49Zm.5.868a.186.186,0,1,1-.049.259A.194.194,0,0,1,84.2,97.358Zm.6.808a.187.187,0,1,1-.016.264A.182.182,0,0,1,84.8,98.166Zm.684.733a.187.187,0,1,1,.011.264A.187.187,0,0,1,85.484,98.9Zm.76.647a.185.185,0,1,1,.043.259.183.183,0,0,1-.043-.259Zm.83.56a.186.186,0,1,1,.07.253A.189.189,0,0,1,87.074,100.106Zm.889.463a.185.185,0,1,1,.1.243A.191.191,0,0,1,87.963,100.57Zm.938.356a.186.186,0,1,1,.124.232.191.191,0,0,1-.124-.232Zm.97.248a.186.186,0,1,1,.151.216A.192.192,0,0,1,89.871,101.173Zm1,.135a.184.184,0,1,1,.172.194A.182.182,0,0,1,90.867,101.308Zm1,.022a.184.184,0,1,1,.194.172A.182.182,0,0,1,91.87,101.329Zm1-.092a.186.186,0,1,1,.216.151A.189.189,0,0,1,92.867,101.238Zm.981-.21a.186.186,0,1,1,.232.124A.178.178,0,0,1,93.848,101.028Zm.948-.313a.185.185,0,1,1,.242.1.191.191,0,0,1-.242-.1Zm.911-.426a.186.186,0,1,1,.253.07A.185.185,0,0,1,95.707,100.289Zm.851-.523a.185.185,0,1,1,.259.043A.189.189,0,0,1,96.558,99.767Zm.792-.62a.187.187,0,1,1,.264.011A.187.187,0,0,1,97.35,99.147Zm.711-.7a.187.187,0,1,1,.264-.016A.187.187,0,0,1,98.062,98.446Zm.63-.781a.186.186,0,1,1,.259-.049.2.2,0,0,1-.259.049Zm.533-.846a.183.183,0,1,1,.248-.075A.188.188,0,0,1,99.226,96.819Zm.437-.905a.188.188,0,1,1,.242-.108A.187.187,0,0,1,99.662,95.914Zm.329-.948a.194.194,0,0,1-.135-.226.191.191,0,0,1,.226-.135.194.194,0,0,1,.135.226A.183.183,0,0,1,99.991,94.965Zm.221-.975a.185.185,0,1,1,.21-.156A.183.183,0,0,1,100.212,93.99Zm.108-1a.183.183,0,1,1,.189-.178A.179.179,0,0,1,100.32,92.993Zm-.011-1a.184.184,0,1,1,.167-.2A.179.179,0,0,1,100.309,91.99ZM100.19,91a.187.187,0,1,1,.145-.221A.19.19,0,0,1,100.19,91Zm-.237-.975a.184.184,0,1,1,.119-.232.186.186,0,0,1-.119.232Zm-.34-.943a.187.187,0,1,1,.092-.248.193.193,0,0,1-.092.248Zm-.453-.895a.185.185,0,1,1,.065-.253A.181.181,0,0,1,99.161,88.186Zm-.544-.841a.184.184,0,1,1,.032-.259.187.187,0,0,1-.032.259Zm-.641-.771a.187.187,0,1,1,.005-.264A.187.187,0,0,1,97.975,86.575Zm-.728-.7a.182.182,0,0,1-.259.027.187.187,0,0,1-.027-.259.184.184,0,1,1,.286.232Zm-.8-.6a.187.187,0,1,1-.054-.259.184.184,0,0,1,.054.259Zm-.862-.512a.186.186,0,1,1-.086-.248A.178.178,0,0,1,95.588,84.764Zm-.911-.41a.186.186,0,1,1-.113-.237A.188.188,0,0,1,94.677,84.354Zm-.959-.3a.185.185,0,1,1-.14-.221A.178.178,0,0,1,93.718,84.053Zm-.981-.194a.184.184,0,1,1-.162-.2A.187.187,0,0,1,92.737,83.859Z" transform="translate(-80.44 -81.444)" fill="#fff"/>
    </g>
  </g>
  <text id="ON" transform="translate(11.113 14.606)" fill="#fff" font-size="8" font-family="SegoeUI-Bold, Segoe UI" font-weight="700"><tspan x="-6.193" y="0">ON</tspan></text>
</svg>
