<svg xmlns="http://www.w3.org/2000/svg" viewBox="0 0 52 51">
	<g id="Ellipse_588" data-name="Ellipse 588" fill="rgba(0,0,0,0.21)" stroke="#B8A876" stroke-width="2">
		<ellipse cx="26" cy="25.5" rx="26" ry="25.5" stroke="none" />
		<ellipse cx="26" cy="25.5" rx="25.5" ry="25" fill="none" />
	</g>
	<g id="Group_16404" data-name="Group 16404" transform="translate(-1547.01 -13712.762)">
		<g id="b" transform="translate(1561.391 13726.733)">
			<g id="Group_15901" data-name="Group 15901" transform="translate(0 0)">
				<path id="Path_6622" data-name="Path 6622" d="M18.612,5.81H14.528l.922-.922a.96.96,0,0,0-1.357-1.357L11.532,6.092a.993.993,0,0,0-.2.307.905.905,0,0,0,0,.73.993.993,0,0,0,.2.307L14.092,10a.958.958,0,0,0,1.357,0,.966.966,0,0,0,0-1.357l-.922-.922h4.084a4.169,4.169,0,0,1,4.161,4.161V17a4.169,4.169,0,0,1-4.161,4.161h-1.28a.96.96,0,1,0,0,1.921h1.28A6.087,6.087,0,0,0,24.694,17V11.879A6.087,6.087,0,0,0,18.612,5.8Z" transform="translate(0.273 -3.252)" fill="#ad9d61" />
				<path id="Path_6626" data-name="Path 6626" d="M15.617,21.2a.994.994,0,0,0-.2-.307l-2.561-2.561a.96.96,0,0,0-1.357,1.357l.922.922H8.332a4.169,4.169,0,0,1-4.161-4.161V11.332A4.169,4.169,0,0,1,8.332,7.171h1.28a.96.96,0,0,0,0-1.921H8.332A6.087,6.087,0,0,0,2.25,11.332v5.121a6.087,6.087,0,0,0,6.082,6.082h4.084l-.922.922a.966.966,0,0,0,0,1.357.958.958,0,0,0,1.357,0l2.561-2.561a.993.993,0,0,0,.2-.307.905.905,0,0,0,0-.73Z" transform="translate(-2.25 -2.693)" fill="#ad9d61" />
			</g>
		</g>
		<path id="Polygon_108" data-name="Polygon 108" d="M2.756,0,5.513,5.513H0Z" transform="translate(1577.306 13734.679) rotate(90)" fill="#ad9d61" />
	</g>
</svg>
