<svg xmlns="http://www.w3.org/2000/svg" viewBox="0 0 19.248 19.248">
	<g id="_003-roulette" data-name="003-roulette" opacity="0.61">
		<path id="Path_7503" data-name="Path 7503" d="M71.792,271.884A3.954,3.954,0,0,1,71.56,271h-3.1a7.019,7.019,0,0,0,.634,2.409Z" transform="translate(-65.883 -260.812)" fill="#ddb652" />
		<path id="Path_7504" data-name="Path 7504" d="M271,68.456v3.1a3.953,3.953,0,0,1,.933.252L273.5,69.13A7.019,7.019,0,0,0,271,68.456Z" transform="translate(-260.812 -65.883)" fill="#ddb652" />
		<path id="Path_7505" data-name="Path 7505" d="M178.242,71.8a3.952,3.952,0,0,1,.892-.235v-3.1a7.019,7.019,0,0,0-2.417.637Z" transform="translate(-170.075 -65.883)" fill="#ddb652" />
		<path id="Path_7506" data-name="Path 7506" d="M176.984,357.58v-3.1a3.947,3.947,0,0,1-.938-.254l-1.563,2.681A7.019,7.019,0,0,0,176.984,357.58Z" transform="translate(-167.924 -340.906)" fill="#ddb652" />
		<path id="Path_7507" data-name="Path 7507" d="M271.876,354.88a3.953,3.953,0,0,1-.876.229v3.1a7.017,7.017,0,0,0,2.4-.63Z" transform="translate(-260.812 -341.539)" fill="#ddb652" />
		<path id="Path_7508" data-name="Path 7508" d="M357.563,271h-3.1a3.948,3.948,0,0,1-.255.94l2.681,1.562A7.018,7.018,0,0,0,357.563,271Z" transform="translate(-340.888 -260.812)" fill="#ddb652" />
		<path id="Path_7509" data-name="Path 7509" d="M68.456,177.14h3.1a3.955,3.955,0,0,1,.251-.932l-2.682-1.563A7.019,7.019,0,0,0,68.456,177.14Z" transform="translate(-65.883 -168.079)" fill="#ddb652" />
		<path id="Path_7510" data-name="Path 7510" d="M182.816,179.957a2.859,2.859,0,1,0,2.859,2.859A2.862,2.862,0,0,0,182.816,179.957Zm1.711,3.423H183.38v1.147h-1.128V183.38H181.1v-1.128h1.147V181.1h1.128v1.147h1.147Z" transform="translate(-173.192 -173.192)" fill="#ddb652" />
		<path id="Path_7511" data-name="Path 7511" d="M103.474,321.324a4.024,4.024,0,0,1-.683-.693l-2.7,1.525a7.13,7.13,0,0,0,1.824,1.849Z" transform="translate(-96.325 -308.577)" fill="#ddb652" />
		<path id="Path_7512" data-name="Path 7512" d="M354.8,178.454a3.948,3.948,0,0,1,.232.884h3.1a7.019,7.019,0,0,0-.634-2.409Z" transform="translate(-341.465 -170.278)" fill="#ddb652" />
		<path id="Path_7513" data-name="Path 7513" d="M16.429,2.819a9.624,9.624,0,1,0-13.61,13.61,9.624,9.624,0,1,0,13.61-13.61Zm-1.006,12.6a8.2,8.2,0,1,1-11.6-11.6,8.2,8.2,0,1,1,11.6,11.6Z" transform="translate(0 0)" fill="#ddb652" />
		<path id="Path_7514" data-name="Path 7514" d="M321.142,321.878a4.022,4.022,0,0,1-.7.687l1.525,2.7a7.134,7.134,0,0,0,1.855-1.827Z" transform="translate(-308.396 -309.777)" fill="#ddb652" />
		<path id="Path_7515" data-name="Path 7515" d="M104.195,103.6a4.019,4.019,0,0,1,.691-.683l-1.525-2.7a7.131,7.131,0,0,0-1.846,1.825Z" transform="translate(-97.698 -96.443)" fill="#ddb652" />
		<path id="Path_7516" data-name="Path 7516" d="M321.737,104.221a4.02,4.02,0,0,1,.687.7l2.7-1.525a7.131,7.131,0,0,0-1.828-1.853Z" transform="translate(-309.642 -97.723)" fill="#ddb652" />
	</g>
</svg>
