<svg id="Group_15741" data-name="Group 15741" xmlns="http://www.w3.org/2000/svg" width="16.047" height="14.401" viewBox="0 0 16.047 14.401">
  <path id="Path_6101" data-name="Path 6101" d="M16.628,9.25H13.336a3.087,3.087,0,0,0-3.086,3.086v1.646a3.087,3.087,0,0,0,3.086,3.086H14.48a.984.984,0,0,1,.568.173l2.057,1.366a.657.657,0,0,0,.346.107.6.6,0,0,0,.288-.074.621.621,0,0,0,.329-.543v-.823a.2.2,0,0,1,.206-.206,1.447,1.447,0,0,0,1.44-1.44V12.336A3.087,3.087,0,0,0,16.628,9.25Z" transform="translate(-3.667 -4.312)" fill="#ffd962"/>
  <path id="Path_6102" data-name="Path 6102" d="M11.919,6.953h1.44V6.336A3.087,3.087,0,0,0,10.274,3.25H5.336A3.087,3.087,0,0,0,2.25,6.336v4.938a1.447,1.447,0,0,0,1.44,1.44.2.2,0,0,1,.206.206v1.646a.61.61,0,0,0,.379.568.59.59,0,0,0,.239.049A.631.631,0,0,0,4.949,15l1.983-1.983A1.008,1.008,0,0,1,7.6,12.73V11.274A4.325,4.325,0,0,1,11.919,6.953Z" transform="translate(-2.25 -3.25)" fill="#ffd962"/>
</svg>
