<svg xmlns="http://www.w3.org/2000/svg" width="34.68" height="31.123" viewBox="0 0 34.68 31.123">
  <g id="i" transform="translate(-2.25 -3.25)">
    <g id="Group_15580" data-name="Group 15580" transform="translate(2.25 3.25)">
      <path id="Path_5598" data-name="Path 5598" d="M11.889,21.924H24.925a4.888,4.888,0,0,0,4.891-4.891V8.141A4.888,4.888,0,0,0,24.925,3.25H7.141A4.888,4.888,0,0,0,2.25,8.141V25.925a1.352,1.352,0,0,0,.729,1.192,1.436,1.436,0,0,0,.6.142,1.313,1.313,0,0,0,.8-.267l6.171-4.624A2.227,2.227,0,0,1,11.889,21.924Z" transform="translate(-2.25 -3.25)" fill="#bcbcbc"/>
      <path id="Path_5599" data-name="Path 5599" d="M29.16,7.28V13.9A7.575,7.575,0,0,1,21.6,21.454H8.707L6.52,23.09a4.879,4.879,0,0,0,4.411,2.81H23.967a2.227,2.227,0,0,1,1.334.445l6.171,4.624a1.313,1.313,0,0,0,.8.267A1.351,1.351,0,0,0,33.606,29.9V12.117A4.859,4.859,0,0,0,29.16,7.28Z" transform="translate(1.074 -0.113)" fill="#bcbcbc"/>
    </g>
  </g>
</svg>
