<svg xmlns="http://www.w3.org/2000/svg" viewBox="0 0 11.339 11.339">
  <path id="Path_7453" data-name="Path 7453" d="M27.93,18.859H25.824V16.753a.487.487,0,0,0-.972,0v2.106H22.747a.486.486,0,0,0,0,.972h2.106v2.106a.486.486,0,0,0,.972,0V19.831H27.93A.486.486,0,0,0,27.93,18.859Z" transform="translate(-19.669 -13.675)" />
  <path id="Path_7454" data-name="Path 7454" d="M23.919,12.25a5.669,5.669,0,1,0,5.669,5.669A5.676,5.676,0,0,0,23.919,12.25Zm0,10.367a4.7,4.7,0,1,1,4.7-4.7A4.7,4.7,0,0,1,23.919,22.617Z" transform="translate(-18.25 -12.25)" />
</svg>
