<svg id="Group_17527" data-name="Group 17527"
  xmlns="http://www.w3.org/2000/svg" width="26.072" height="26.073" viewBox="0 0 26.072 26.073">
  <g id="Cancel" transform="translate(0)" opacity="0.79">
    <g id="Group_16422" data-name="Group 16422">
      <path id="Path_2282" data-name="Path 2282" d="M13.036,26.073A13.037,13.037,0,1,1,26.072,13.037,13.036,13.036,0,0,1,13.036,26.073Zm0-24.335a11.3,11.3,0,1,0,11.3,11.3A11.3,11.3,0,0,0,13.036,1.738Z" fill="#152601" />
      <path id="Path_2283" data-name="Path 2283" d="M9.869,19.429a.869.869,0,0,1-.614-1.484l8.691-8.691a.869.869,0,1,1,1.229,1.229l-8.691,8.691A.869.869,0,0,1,9.869,19.429Z" transform="translate(-1.178 -1.179)" fill="#152601" />
      <path id="Path_2284" data-name="Path 2284" d="M18.56,19.429a.869.869,0,0,1-.614-.255L9.255,10.484a.869.869,0,1,1,1.229-1.229l8.691,8.691a.869.869,0,0,1-.614,1.484Z" transform="translate(-1.178 -1.179)" fill="#152601" />
    </g>
  </g>
</svg>