<?xml version="1.0" encoding="UTF-8"?>
<svg id="Layer_2" data-name="Layer 2" xmlns="http://www.w3.org/2000/svg" xmlns:xlink="http://www.w3.org/1999/xlink" className="w-full" viewBox="0 0 52.61 52.61">
  <defs>
    <style>
      .coin5-cls-1 {
        fill: #284c02;
      }

      .coin5-cls-1, .coin5-cls-2, .coin5-cls-3, .coin5-cls-4, .coin5-cls-5, .coin5-cls-6, .coin5-cls-7, .coin5-cls-8, .coin5-cls-9, .coin5-cls-10, .coin5-cls-11, .coin5-cls-12, .coin5-cls-13, .coin5-cls-14, .coin5-cls-15, .coin5-cls-16, .coin5-cls-17, .coin5-cls-18, .coin5-cls-19, .coin5-cls-20 {
        stroke-width: 0px;
      }

      .coin5-cls-2 {
        fill: url(#coin5-linear-gradient);
      }

      .coin5-cls-3 {
        fill: #32540e;
      }

      .coin5-cls-4 {
        fill: url(#coin5-linear-gradient-6);
      }

      .coin5-cls-21, .coin5-cls-19 {
        isolation: isolate;
      }

      .coin5-cls-5 {
        fill: #264901;
      }

      .coin5-cls-6 {
        fill: url(#coin5-linear-gradient-5);
      }

      .coin5-cls-7 {
        fill: #274a01;
      }

      .coin5-cls-8 {
        fill: #385c11;
      }

      .coin5-cls-9 {
        fill: #274b01;
      }

      .coin5-cls-10 {
        fill: #fff;
      }

      .coin5-cls-11 {
        fill: url(#coin5-linear-gradient-2);
      }

      .coin5-cls-12 {
        fill: #346500;
      }

      .coin5-cls-13 {
        fill: url(#coin5-linear-gradient-7);
      }

      .coin5-cls-14 {
        fill: url(#coin5-linear-gradient-3);
      }

      .coin5-cls-15 {
        fill: url(#coin5-linear-gradient-9);
      }

      .coin5-cls-16 {
        fill: url(#coin5-linear-gradient-8);
      }

      .coin5-cls-17 {
        fill: url(#coin5-linear-gradient-10);
      }

      .coin5-cls-18 {
        fill: url(#coin5-linear-gradient-4);
      }

      .coin5-cls-19 {
        fill: #264702;
        opacity: .86;
      }

      .coin5-cls-20 {
        fill: #efefef;
      }
    </style>
    <linearGradient id="coin5-linear-gradient" x1="-915.24" y1="557.02" x2="-914.26" y2="556.51" gradientTransform="translate(48154.79 29305.28) scale(52.61 -52.59)" gradientUnits="userSpaceOnUse">
      <stop offset="0" stop-color="#4d9600"/>
      <stop offset="1" stop-color="#336300"/>
    </linearGradient>
    <linearGradient id="coin5-linear-gradient-2" x1="-915.18" y1="557" x2="-914.3" y2="556.53" gradientTransform="translate(48143.12 29315.08) scale(52.6 -52.61)" gradientUnits="userSpaceOnUse">
      <stop offset="0" stop-color="#62aa17"/>
      <stop offset="1" stop-color="#2a5100"/>
    </linearGradient>
    <linearGradient id="coin5-linear-gradient-3" x1="-908.11" y1="553.48" x2="-907.7" y2="552.53" gradientTransform="translate(34495.69 21021.11) scale(37.97 -37.97)" gradientUnits="userSpaceOnUse">
      <stop offset="0" stop-color="#3a7000"/>
      <stop offset="1" stop-color="#2a5100"/>
    </linearGradient>
    <linearGradient id="coin5-linear-gradient-4" x1="-906.13" y1="552.28" x2="-905.41" y2="551.38" gradientTransform="translate(31670.3 19305.14) scale(34.94 -34.94)" xlink:href="#coin5-linear-gradient"/>
    <linearGradient id="coin5-linear-gradient-5" x1="-905.42" y1="551.29" x2="-906.19" y2="552.5" gradientTransform="translate(31670.3 19305.14) scale(34.94 -34.94)" xlink:href="#coin5-linear-gradient"/>
    <linearGradient id="coin5-linear-gradient-6" x1="-906.13" y1="552.28" x2="-905.41" y2="551.38" gradientTransform="translate(31670.3 19305.14) scale(34.94 -34.94)" xlink:href="#coin5-linear-gradient"/>
    <linearGradient id="coin5-linear-gradient-7" x1="-906.08" y1="552.22" x2="-905.46" y2="551.44" gradientTransform="translate(31669.39 19305.13) scale(34.94 -34.94)" xlink:href="#coin5-linear-gradient-2"/>
    <linearGradient id="coin5-linear-gradient-8" x1="-905.61" y1="551.99" x2="-904.89" y2="551.1" gradientTransform="translate(31049.3 18927.28) scale(34.27 -34.27)" xlink:href="#coin5-linear-gradient"/>
    <linearGradient id="coin5-linear-gradient-9" x1="-905.61" y1="552" x2="-904.89" y2="551.1" gradientTransform="translate(31050.21 18929.54) scale(34.27 -34.27)" gradientUnits="userSpaceOnUse">
      <stop offset="0" stop-color="#4d9600"/>
      <stop offset="1" stop-color="#4b8e05"/>
    </linearGradient>
    <linearGradient id="coin5-linear-gradient-10" x1="-913.94" y1="557.22" x2="-913.13" y2="556.23" gradientTransform="translate(45083.95 29299.04) scale(49.32 -52.58)" gradientUnits="userSpaceOnUse">
      <stop offset="0" stop-color="#fff"/>
      <stop offset="1" stop-color="#257c00"/>
    </linearGradient>
  </defs>
  <g id="Layer_1-2" data-name="Layer 1">
    <g id="Group_15354" data-name="Group 15354">
      <g id="Green_Chip" data-name="Green Chip">
        <g id="Layer_2-2" data-name="Layer 2">
          <g id="_Ñëîé_6" data-name="Ñëîé 6">
            <g id="Group_15283" data-name="Group 15283">
              <g id="Group_15282" data-name="Group 15282">
                <g id="Group_15274" data-name="Group 15274">
                  <path id="Path_3961" data-name="Path 3961" class="coin5-cls-2" d="m52.61,26.31c.01,14.51-11.74,26.28-26.24,26.29-.02,0-.03,0-.05,0-.93,0-1.86-.05-2.79-.15C9.09,50.93-1.38,37.99.15,23.54,1.56,10.16,12.86,0,26.32.02c1.48,0,2.96.12,4.42.37,12.64,2.14,21.89,13.1,21.88,25.92h0Z"/>
                  <path id="Path_3962" data-name="Path 3962" class="coin5-cls-11" d="m50.79,16.68C45.47,3.16,30.2-3.48,16.69,1.83,3.17,7.15-3.47,22.42,1.84,35.94c3.59,9.12,11.95,15.49,21.69,16.52.93.1,1.86.15,2.79.15,14.53-.01,26.3-11.8,26.29-26.33,0-3.28-.62-6.54-1.82-9.6Zm-.03,17.3c-3.34,10.69-13.25,17.96-24.45,17.95-.91,0-1.81-.05-2.72-.14C9.52,50.3-.68,37.7.8,23.62,2.17,10.57,13.19.67,26.31.69c1.44,0,2.88.12,4.3.36,13.96,2.38,23.34,15.63,20.95,29.59-.19,1.13-.46,2.25-.81,3.34h0Z"/>
                  <path id="Path_3963" data-name="Path 3963" class="coin5-cls-14" d="m45.3,26.31c0,.65-.03,1.29-.1,1.92-.21,2.07-.75,4.09-1.62,5.98-1.92,4.18-5.29,7.53-9.48,9.42-1.9.85-3.92,1.39-5.99,1.58-.59.06-1.19.09-1.79.09-.65,0-1.29-.03-1.92-.1-3.32-.33-6.49-1.54-9.19-3.49-4.44-3.19-7.28-8.15-7.79-13.6-.06-.59-.08-1.19-.08-1.79,0-.65.03-1.29.1-1.92.33-3.32,1.54-6.49,3.49-9.18,3.2-4.44,8.15-7.28,13.6-7.79.59-.06,1.19-.08,1.79-.08,3.99,0,7.87,1.25,11.11,3.59,4.44,3.2,7.28,8.15,7.79,13.6.05.59.08,1.19.08,1.79h0Z"/>
                  <g id="Group_15268" data-name="Group 15268">
                    <path id="Path_3964" data-name="Path 3964" class="coin5-cls-20" d="m28.24,7.43v1.52c-.64-.07-1.28-.11-1.92-.11-.6,0-1.2.03-1.79.09v-1.52c.59-.06,1.19-.08,1.79-.08.64,0,1.28.03,1.92.1Z"/>
                    <path id="Path_3965" data-name="Path 3965" class="coin5-cls-20" d="m19.3,10.31c-1.14.5-2.22,1.12-3.22,1.85l-.76-1.32c1.01-.72,2.09-1.34,3.22-1.85,0,0,.76,1.32.76,1.32Z"/>
                    <path id="Path_3966" data-name="Path 3966" class="coin5-cls-20" d="m12.24,15.97c-.74,1-1.36,2.07-1.87,3.21l-1.32-.76c.52-1.13,1.14-2.2,1.87-3.21l1.32.76Z"/>
                    <path id="Path_3967" data-name="Path 3967" class="coin5-cls-20" d="m8.85,26.31c0,.6.03,1.2.09,1.79h-1.52c-.06-.59-.08-1.19-.08-1.79,0-.65.03-1.29.1-1.92h1.52c-.07.64-.11,1.28-.11,1.92Z"/>
                    <path id="Path_3968" data-name="Path 3968" class="coin5-cls-20" d="m12.17,36.55l-1.32.76c-.72-1.01-1.34-2.09-1.85-3.22l1.32-.76c.5,1.14,1.12,2.21,1.85,3.22Z"/>
                    <path id="Path_3969" data-name="Path 3969" class="coin5-cls-20" d="m19.18,42.26l-.76,1.32c-1.13-.52-2.2-1.14-3.21-1.87l.76-1.32c1,.74,2.07,1.36,3.21,1.87h0Z"/>
                    <path id="Path_3970" data-name="Path 3970" class="coin5-cls-20" d="m28.11,43.69v1.52c-.59.06-1.19.09-1.79.09-.65,0-1.29-.03-1.92-.1v-1.52c.64.07,1.28.1,1.92.1.6,0,1.2-.03,1.79-.09Z"/>
                    <path id="Path_3971" data-name="Path 3971" class="coin5-cls-20" d="m37.32,41.78c-1.01.72-2.09,1.34-3.22,1.85l-.76-1.32c1.14-.5,2.22-1.12,3.22-1.85l.76,1.32h0Z"/>
                    <path id="Path_3972" data-name="Path 3972" class="coin5-cls-20" d="m43.58,34.21c-.52,1.13-1.14,2.2-1.87,3.21l-1.32-.76c.74-1,1.36-2.07,1.87-3.21l1.32.76h0Z"/>
                    <path id="Path_3973" data-name="Path 3973" class="coin5-cls-20" d="m45.3,26.31c0,.65-.03,1.29-.1,1.92h-1.52c.07-.64.11-1.28.1-1.92,0-.6-.03-1.2-.09-1.79h1.52c.06.59.08,1.19.08,1.79Z"/>
                    <path id="Path_3974" data-name="Path 3974" class="coin5-cls-20" d="m43.64,18.53l-1.32.76c-.5-1.14-1.12-2.22-1.85-3.22l1.32-.76c.72,1.01,1.34,2.09,1.85,3.22h0Z"/>
                    <path id="Path_3975" data-name="Path 3975" class="coin5-cls-20" d="m37.43,10.92l-.76,1.32c-1-.74-2.07-1.36-3.2-1.87l.76-1.32c1.13.51,2.2,1.14,3.2,1.87Z"/>
                  </g>
                  <path id="Path_3976" data-name="Path 3976" class="coin5-cls-9" d="m39.88,13.03c-.65-.63-1.35-1.21-2.08-1.74-3.23-2.33-7.12-3.59-11.11-3.59-.61,0-1.2.03-1.79.08-9.02.85-16.18,7.96-17.09,16.98-.06.63-.1,1.27-.1,1.92,0,.61.03,1.2.08,1.79.41,4.31,2.28,8.36,5.31,11.46-3.24-3.14-5.26-7.33-5.68-11.83-.06-.59-.08-1.19-.08-1.79,0-.65.03-1.29.1-1.92.33-3.32,1.54-6.49,3.49-9.18,3.2-4.44,8.15-7.28,13.6-7.79.59-.06,1.19-.09,1.79-.08,5.1,0,9.99,2.05,13.56,5.7h0Z"/>
                  <path id="Path_3977" data-name="Path 3977" class="coin5-cls-18" d="m43.79,26.31c0,8.96-6.77,16.46-15.68,17.38-.6.06-1.19.09-1.79.09-8.96,0-16.47-6.77-17.38-15.68-.06-.6-.09-1.19-.09-1.79,0-6.93,4.1-13.21,10.45-16h0c1.66-.73,3.42-1.19,5.23-1.38.6-.06,1.19-.09,1.79-.09,8.96,0,16.47,6.77,17.38,15.68.06.6.09,1.19.09,1.79h0Z"/>
                  <path id="Path_3978" data-name="Path 3978" class="coin5-cls-6" d="m43.79,26.31c0,8.96-6.77,16.46-15.68,17.38-.6.06-1.19.09-1.79.09-8.96,0-16.47-6.77-17.38-15.68-.06-.6-.09-1.19-.09-1.79,0-6.93,4.1-13.21,10.45-16h0c1.66-.73,3.42-1.19,5.23-1.38.6-.06,1.19-.09,1.79-.09,8.96,0,16.47,6.77,17.38,15.68.06.6.09,1.19.09,1.79h0Z"/>
                  <path id="Path_3979" data-name="Path 3979" class="coin5-cls-4" d="m43.79,26.31c0,8.96-6.77,16.46-15.68,17.38-.6.06-1.19.09-1.79.09-8.96,0-16.47-6.77-17.38-15.68-.06-.6-.09-1.19-.09-1.79,0-6.93,4.1-13.21,10.45-16h0c1.66-.73,3.42-1.19,5.23-1.38.6-.06,1.19-.09,1.79-.09,8.96,0,16.47,6.77,17.38,15.68.06.6.09,1.19.09,1.79h0Z"/>
                  <path id="Path_3980" data-name="Path 3980" class="coin5-cls-13" d="m43.69,24.52c-.92-8.91-8.42-15.68-17.38-15.68-.6,0-1.2.03-1.79.09-1.8.18-3.57.65-5.23,1.38h0c-1.14.5-2.22,1.12-3.22,1.85-2.48,1.8-4.45,4.22-5.71,7.01-1.01,2.25-1.52,4.68-1.52,7.14,0,.6.03,1.2.09,1.79.91,8.91,8.42,15.68,17.38,15.68.6,0,1.2-.03,1.79-.09,3.05-.31,5.97-1.42,8.45-3.22,1.47-1.06,2.76-2.35,3.84-3.81,2.21-3,3.39-6.62,3.39-10.34,0-.6-.03-1.2-.09-1.79h0Zm-.34,3.68c-.33,2.99-1.44,5.84-3.22,8.26-2.86,3.9-7.24,6.41-12.05,6.9-.58.06-1.16.09-1.76.09-.63,0-1.26-.03-1.88-.1-2.99-.33-5.84-1.44-8.26-3.23-1.43-1.05-2.69-2.32-3.74-3.76-1.77-2.43-2.86-5.29-3.16-8.29-.06-.58-.09-1.17-.09-1.76,0-.63.03-1.26.1-1.88.19-1.77.66-3.5,1.39-5.12,1.23-2.74,3.16-5.12,5.6-6.88.98-.72,2.04-1.32,3.16-1.81h0c2.17-.95,4.52-1.44,6.88-1.44.63,0,1.26.03,1.88.1,2.99.33,5.84,1.44,8.26,3.23,1.43,1.05,2.69,2.32,3.74,3.76,1.77,2.43,2.86,5.29,3.16,8.29.06.58.09,1.16.09,1.76,0,.63-.03,1.26-.1,1.88h0Z"/>
                  <path id="Path_3981" data-name="Path 3981" class="coin5-cls-16" d="m43.45,26.31c0,.63-.03,1.26-.1,1.88-.33,2.99-1.44,5.84-3.22,8.26-2.86,3.9-7.24,6.41-12.05,6.9-.58.06-1.16.09-1.76.09-.63,0-1.26-.03-1.88-.1-2.99-.33-5.84-1.44-8.26-3.23-1.43-1.05-2.69-2.32-3.74-3.76-1.77-2.43-2.86-5.29-3.16-8.29-.06-.58-.09-1.17-.09-1.76,0-.63.03-1.26.1-1.88.19-1.77.66-3.5,1.39-5.12,1.23-2.74,3.16-5.12,5.6-6.88.98-.72,2.04-1.32,3.16-1.81h0c2.17-.95,4.52-1.44,6.88-1.44.63,0,1.26.03,1.88.1,2.99.33,5.84,1.44,8.26,3.23,1.43,1.05,2.69,2.32,3.74,3.76,1.77,2.43,2.86,5.29,3.16,8.29.06.58.09,1.16.09,1.76h0Z"/>
                  <path id="Path_3982" data-name="Path 3982" class="coin5-cls-19" d="m44.1,26.51c0,.6-.03,1.19-.09,1.78-.31,3.08-1.43,6.02-3.24,8.53-1.81,2.51-4.25,4.5-7.07,5.77-1.76.79-3.64,1.29-5.57,1.47-.55.05-1.1.08-1.66.08-.6,0-1.19-.03-1.78-.09-3.08-.31-6.03-1.43-8.54-3.24-4.13-2.97-6.77-7.58-7.24-12.64-.05-.55-.08-1.1-.08-1.66,0-.6.03-1.19.09-1.79.29-3.08,1.37-6.04,3.15-8.57,1.78-2.56,4.25-4.57,7.11-5.81,1.77-.79,3.65-1.29,5.58-1.47.55-.05,1.21-.07,1.77-.07.6,0,1.2.02,1.79.07,3.05.4,5.95,1.55,8.45,3.33,4.12,2.97,6.76,7.58,7.24,12.64.05.55.08,1.1.08,1.66h0Z"/>
                  <path id="Path_3983" data-name="Path 3983" class="coin5-cls-15" d="m43.45,26.31c0,8.79-6.64,16.15-15.38,17.05-.58.06-1.17.09-1.76.09-8.79,0-16.15-6.64-17.04-15.38-.06-.58-.09-1.17-.09-1.76,0-5.5,2.64-10.66,7.09-13.88.98-.72,2.04-1.32,3.16-1.81h0c1.63-.72,3.36-1.17,5.13-1.35.58-.06,1.17-.09,1.76-.09,2.41,0,4.8.51,7,1.49,1.11.5,2.16,1.11,3.14,1.84,1.43,1.05,2.69,2.32,3.74,3.76,1.77,2.43,2.86,5.29,3.16,8.29.06.58.09,1.17.09,1.76h0Z"/>
                  <g id="Group_15269" data-name="Group 15269">
                    <path id="Path_3984" data-name="Path 3984" class="coin5-cls-10" d="m30.73.39v6.01c-2.9-.65-5.91-.65-8.81,0V.39c2.92-.49,5.89-.49,8.81,0h0Z"/>
                    <path id="Path_3985" data-name="Path 3985" class="coin5-cls-10" d="m11.28,12.53c-2.01,2.19-3.51,4.79-4.41,7.62l-4.61-2.66h0l-.58-.34c.39-1.04.84-2.06,1.36-3.04.08-.15.16-.3.25-.46s.18-.33.28-.49.19-.32.29-.48.2-.32.3-.48.2-.31.3-.47c.09-.13.18-.26.27-.39.03-.05.07-.1.1-.15.06-.08.11-.16.17-.24s.1-.13.14-.2l.02-.03c.05-.06.09-.13.14-.19.09-.12.18-.23.27-.35.17-.22.35-.45.53-.66h0l.58.34,4.61,2.66h0Z"/>
                    <path id="Path_3986" data-name="Path 3986" class="coin5-cls-10" d="m11.26,40.08l-4.61,2.66-.59.34h0c-.06-.07-.11-.14-.16-.2s-.11-.14-.16-.2c-.11-.14-.23-.29-.34-.43s-.23-.3-.34-.45c-.13-.18-.27-.37-.4-.56-.39-.57-.76-1.16-1.11-1.77-.74-1.28-1.37-2.62-1.89-4.01l.58-.34,4.62-2.67c.89,2.83,2.39,5.44,4.4,7.63h0Z"/>
                    <path id="Path_3987" data-name="Path 3987" class="coin5-cls-10" d="m30.71,46.24v6c-.18.03-.36.06-.54.09-.14.02-.29.04-.43.06-.08.01-.17.02-.25.03-.13.02-.27.03-.4.04-.18.02-.36.04-.54.05l-.38.03c-.1,0-.2.02-.3.02-.16.01-.32.02-.48.02s-.31.01-.46.01c-.03,0-.06,0-.09,0-.17,0-.35,0-.52,0s-.38,0-.56,0c-.13,0-.27,0-.4-.01h-.09c-.06,0-.12,0-.18,0-.13,0-.26-.01-.4-.02-.17-.01-.33-.02-.5-.03-.09,0-.17-.02-.26-.02-.13-.01-.27-.03-.4-.04-.16-.02-.32-.03-.48-.06l-.14-.02c-.15-.02-.3-.04-.45-.06-.01,0-.02,0-.03,0-.17-.02-.33-.05-.5-.08,0,0-.02,0-.02,0v-6.01c2.9.65,5.91.65,8.81,0h0Z"/>
                    <path id="Path_3988" data-name="Path 3988" class="coin5-cls-10" d="m50.97,35.47s0,.02-.01.03c-.06.16-.12.32-.18.48-.11.29-.24.58-.36.86l-.02.05c-.06.13-.11.26-.17.38-.04.1-.09.19-.13.29-.07.14-.14.29-.21.43-.06.12-.12.25-.19.37-.19.37-.39.74-.6,1.1-.27.47-.56.93-.85,1.38l-.02.02s-.03.05-.05.07c-.07.1-.13.2-.2.3-.04.06-.08.12-.12.17s-.08.11-.12.17c0,0-.01.02-.02.03-.05.07-.1.15-.16.22s-.11.14-.16.22-.11.15-.17.23-.12.15-.17.23c-.16.2-.32.41-.48.61h0l-.6-.35-4.6-2.65c2.01-2.19,3.51-4.79,4.41-7.63l4.6,2.66.6.35h0Z"/>
                    <path id="Path_3989" data-name="Path 3989" class="coin5-cls-10" d="m50.98,17.17l-.6.34-4.61,2.66c-.89-2.83-2.39-5.44-4.4-7.63l4.6-2.66.6-.34h0c.35.42.68.85,1,1.29.11.15.21.3.32.45l.02.03c.41.6.8,1.21,1.17,1.85.74,1.28,1.37,2.62,1.89,4.01h0Z"/>
                  </g>
                  <g id="Group_15270" data-name="Group 15270">
                    <path id="Path_3990" data-name="Path 3990" class="coin5-cls-17" d="m50.37,35.12c-.85,2.33-2.04,4.52-3.53,6.51-.28.38-.58.75-.89,1.12l.6.35c.17-.2.33-.4.49-.6.06-.08.12-.15.17-.23s.11-.15.17-.23.11-.14.16-.22.11-.14.16-.22c0,0,.01-.02.02-.03.04-.06.08-.12.12-.17s.08-.11.12-.17c.07-.1.14-.2.2-.3.02-.02.03-.05.05-.07v-.02c.09-.11.16-.22.24-.34.14-.23.29-.46.43-.69.07-.12.14-.23.21-.35v-.03c.09-.13.16-.25.23-.38s.15-.28.23-.42c.05-.09.1-.18.14-.28.07-.12.13-.25.19-.37.07-.14.14-.29.21-.43.05-.1.09-.19.13-.29.06-.13.12-.25.17-.38l.02-.04c.12-.29.25-.57.36-.86.06-.16.12-.32.18-.48,0,0,0-.02.01-.03l-.6-.35h0Zm-1.28-21.96c-.37-.64-.76-1.26-1.17-1.85l-.02-.03c-.11-.15-.21-.3-.32-.45-.08-.11-.16-.22-.24-.33-.25-.33-.5-.65-.76-.96l-.6.34c1.76,2.1,3.18,4.48,4.18,7.03.08.2.15.39.23.59l.6-.34c-.52-1.39-1.15-2.73-1.89-4.01h0ZM6.4,10.18c.09-.11.17-.21.26-.31l-.58-.34c-.07.08-.13.15-.19.23-.11.14-.23.29-.34.43-.09.11-.18.23-.27.35-.05.06-.1.13-.14.19l-.02.03c-.05.06-.1.13-.14.2s-.12.16-.17.24c-.04.05-.07.1-.1.15-.09.13-.18.26-.27.39-.1.15-.2.31-.3.47s-.2.32-.3.48-.19.32-.29.48-.19.32-.28.49-.17.3-.25.45c-.52.99-.97,2-1.36,3.04l.58.34c.97-2.65,2.37-5.12,4.15-7.31h0Zm-4.16,24.94l-.58.34c.52,1.39,1.15,2.73,1.89,4.01.35.61.72,1.19,1.11,1.76.13.19.26.38.4.56.11.15.22.3.34.45s.22.29.34.44c.06.07.11.14.16.2l.17.2.59-.34c-1.64-1.96-2.98-4.15-3.97-6.51-.15-.37-.3-.74-.44-1.12h0ZM26.32.02c-1.47,0-2.94.12-4.39.37v.68l.1-.02c2.84-.48,5.74-.48,8.58,0l.12.02V.39c-1.46-.25-2.93-.37-4.41-.37h0Zm0,51.91c-.91,0-1.81-.05-2.72-.14-.57-.06-1.13-.14-1.69-.24v.68s.02,0,.03,0c.17.03.33.06.5.08.01,0,.02,0,.03,0,.15.02.3.04.45.06l.14.02c.16.02.32.04.48.06.13.01.27.03.4.04l.26.02c.17.01.33.03.5.03.13,0,.26.01.4.02.06,0,.12,0,.18,0h.09c.13,0,.27,0,.4.01.19,0,.38,0,.56,0s.35,0,.52,0h.09c.15,0,.31,0,.46-.01s.32-.01.47-.02c.1,0,.2-.01.3-.02l.38-.03c.18-.01.36-.03.54-.05.13-.01.27-.03.4-.04.08,0,.17-.02.25-.03.14-.02.29-.04.43-.06.18-.03.36-.06.54-.08v-.69c-1.45.25-2.93.38-4.4.38h0Z"/>
                  </g>
                </g>
                <g id="Group_15281" data-name="Group 15281">
                  <g id="Group_15275" data-name="Group 15275">
                    <path id="Path_3992" data-name="Path 3992" class="coin5-cls-7" d="m40.82,6.44c-.82,1.43-1.64,2.87-2.47,4.29l-.03.06-.06-.03-4.27-2.49-.04-.02.02-.04,2.49-4.27v-.02s.03.01.03.01l4.27,2.49.05.03h0Zm-.11-.06l-4.25-2.42h.03s-2.45,4.29-2.45,4.29l-.02-.06,4.3,2.45-.09.02c.81-1.42,1.62-2.82,2.45-4.23l.03-.05h0Z"/>
                  </g>
                  <circle id="Ellipse_297" data-name="Ellipse 297" class="coin5-cls-10" cx="37.35" cy="7.33" r=".58"/>
                  <circle id="Ellipse_298" data-name="Ellipse 298" class="coin5-cls-10" cx="13.39" cy="6.79" r=".58"/>
                  <circle id="Ellipse_299" data-name="Ellipse 299" class="coin5-cls-10" cx="15.64" cy="5.44" r=".58"/>
                  <circle id="Ellipse_300" data-name="Ellipse 300" class="coin5-cls-10" cx="15.23" cy="7.33" r=".58"/>
                  <circle id="Ellipse_301" data-name="Ellipse 301" class="coin5-cls-10" cx="17.12" cy="7.87" r=".58"/>
                  <circle id="Ellipse_302" data-name="Ellipse 302" class="coin5-cls-10" cx="14.78" cy="9.22" r=".58"/>
                  <circle id="Ellipse_303" data-name="Ellipse 303" class="coin5-cls-10" cx="2.83" cy="25.12" r=".58"/>
                  <circle id="Ellipse_304" data-name="Ellipse 304" class="coin5-cls-10" cx="5.59" cy="25.11" r=".58"/>
                  <circle id="Ellipse_305" data-name="Ellipse 305" class="coin5-cls-10" cx="2.83" cy="27.78" r=".58"/>
                  <circle id="Ellipse_306" data-name="Ellipse 306" class="coin5-cls-10" cx="5.59" cy="27.78" r=".58"/>
                  <circle id="Ellipse_307" data-name="Ellipse 307" class="coin5-cls-10" cx="17.09" cy="45.02" r=".58"/>
                  <circle id="Ellipse_308" data-name="Ellipse 308" class="coin5-cls-10" cx="35.52" cy="45.07" r=".58"/>
                  <circle id="Ellipse_309" data-name="Ellipse 309" class="coin5-cls-10" cx="47.03" cy="25.1" r=".58"/>
                  <circle id="Ellipse_310" data-name="Ellipse 310" class="coin5-cls-10" cx="48.36" cy="26.45" r=".58"/>
                  <circle id="Ellipse_311" data-name="Ellipse 311" class="coin5-cls-10" cx="49.69" cy="27.8" r=".58"/>
                  <circle id="Ellipse_312" data-name="Ellipse 312" class="coin5-cls-10" cx="39.19" cy="46.13" r=".58"/>
                  <circle id="Ellipse_313" data-name="Ellipse 313" class="coin5-cls-10" cx="16.37" cy="46.28" r=".58"/>
                  <circle id="Ellipse_314" data-name="Ellipse 314" class="coin5-cls-10" cx="15.65" cy="47.55" r=".58"/>
                  <path id="Path_3993" data-name="Path 3993" class="coin5-cls-10" d="m14.85,44.28c-.32,0-.58-.28-.57-.6,0-.32.28-.58.6-.57.32,0,.58.28.57.6,0,.32-.28.58-.6.57,0,0,0,0,0,0Z"/>
                  <path id="Path_3994" data-name="Path 3994" class="coin5-cls-10" d="m14.1,45.53c-.32,0-.58-.28-.57-.6,0-.32.28-.58.6-.57.32,0,.58.28.57.6,0,.32-.28.58-.6.57,0,0,0,0,0,0Z"/>
                  <path id="Path_3995" data-name="Path 3995" class="coin5-cls-10" d="m13.35,46.78c-.32,0-.58-.28-.57-.6,0-.32.28-.58.6-.57.32,0,.57.28.57.6,0,.32-.27.58-.6.57,0,0,0,0,0,0Z"/>
                  <g id="Group_15276" data-name="Group 15276">
                    <path id="Path_3996" data-name="Path 3996" class="coin5-cls-1" d="m50.83,28.99c-1.65.01-3.3.01-4.95,0h-.07v-.07l.02-4.95v-.04h.04l4.95.02h.02v.02l-.02,4.95v.06h0Zm0-.12l-.02-4.89.02.02-4.95.02.04-.04.02,4.95-.07-.07c1.63,0,3.26,0,4.89,0h.06Z"/>
                  </g>
                  <g id="Group_15277" data-name="Group 15277">
                    <path id="Path_3997" data-name="Path 3997" class="coin5-cls-3" d="m16.14,3.88c.83,1.42,1.66,2.85,2.48,4.28l.03.06-.06.03-4.3,2.46-.04.02-.02-.04-2.46-4.3v-.02s0-.01,0-.01l4.3-2.46.05-.03h0Zm-.11.06l-4.22,2.46v-.03s2.5,4.27,2.5,4.27l-.06-.02,4.27-2.49-.02.09c-.82-1.41-1.63-2.82-2.44-4.23l-.03-.05h0Z"/>
                  </g>
                  <g id="Group_15278" data-name="Group 15278">
                    <path id="Path_3998" data-name="Path 3998" class="coin5-cls-8" d="m1.69,23.97c1.65-.01,3.3-.01,4.95,0h.07v.07l-.02,4.95v.04h-.04l-4.95-.02h-.02v-.02l.02-4.95v-.06h0Zm0,.12l.02,4.89-.02-.02,4.95-.02-.04.04-.02-4.95.07.07c-1.63,0-3.26,0-4.89,0h-.06Z"/>
                  </g>
                  <g id="Group_15279" data-name="Group 15279">
                    <path id="Path_3999" data-name="Path 3999" class="coin5-cls-5" d="m11.89,46.45c.82-1.43,1.64-2.87,2.47-4.29l.03-.06.06.03,4.27,2.49.04.02-.02.04-2.49,4.27v.02s-.03-.01-.03-.01l-4.27-2.49-.05-.03h0Zm.11.06l4.24,2.43h-.03s2.46-4.29,2.46-4.29l.02.06-4.3-2.46.09-.02c-.81,1.42-1.62,2.82-2.45,4.23l-.03.05h0Z"/>
                  </g>
                  <g id="Group_15280" data-name="Group 15280">
                    <path id="Path_4000" data-name="Path 4000" class="coin5-cls-12" d="m36.42,48.95c-.83-1.42-1.66-2.85-2.48-4.28l-.03-.06.06-.03,4.3-2.46.04-.02.02.04,2.45,4.3v.02s0,.01,0,.01l-4.3,2.46-.05.03h0Zm.11-.06l4.22-2.46v.03s-2.5-4.27-2.5-4.27l.06.02-4.27,2.49.02-.09c.82,1.41,1.63,2.82,2.44,4.23l.03.05h0Z"/>
                  </g>
                </g>
              </g>
            </g>
          </g>
        </g>
      </g>
    </g>
  </g>
</svg>