<svg xmlns="http://www.w3.org/2000/svg" xmlns:xlink="http://www.w3.org/1999/xlink"  className="w-full" viewBox="0 0 52.588 52.589">
  <defs>
    <linearGradient id="linear-gradient" x1="0.007" y1="0.241" x2="0.984" y2="0.755" gradientUnits="objectBoundingBox">
      <stop offset="0" stop-color="#4d9600"/>
      <stop offset="1" stop-color="#336300"/>
    </linearGradient>
    <linearGradient id="linear-gradient-2" x1="0.057" y1="0.267" x2="0.943" y2="0.733" gradientUnits="objectBoundingBox">
      <stop offset="0" stop-color="#62aa17"/>
      <stop offset="1" stop-color="#2a5100"/>
    </linearGradient>
    <linearGradient id="linear-gradient-3" x1="0.293" y1="0.019" x2="0.704" y2="0.974" gradientUnits="objectBoundingBox">
      <stop offset="0" stop-color="#3a7000"/>
      <stop offset="1" stop-color="#2a5100"/>
    </linearGradient>
    <linearGradient id="linear-gradient-4" x1="0.144" y1="0.052" x2="0.857" y2="0.949" xlink:href="#linear-gradient"/>
    <linearGradient id="linear-gradient-5" x1="0.846" y1="1.044" x2="0.077" y2="-0.164" xlink:href="#linear-gradient"/>
    <linearGradient id="linear-gradient-7" x1="0.189" y1="0.109" x2="0.811" y2="0.891" xlink:href="#linear-gradient-2"/>
    <linearGradient id="linear-gradient-8" x1="0.144" y1="0.052" x2="0.857" y2="0.949" xlink:href="#linear-gradient"/>
    <linearGradient id="linear-gradient-10" x1="0.121" y1="0.04" x2="0.932" y2="1.026" gradientUnits="objectBoundingBox">
      <stop offset="0" stop-color="#fff"/>
      <stop offset="1" stop-color="#257c00"/>
    </linearGradient>
    <linearGradient id="linear-gradient-11" x1="0.565" y1="0.668" x2="0.121" y2="-0.291" gradientUnits="objectBoundingBox">
      <stop offset="0" stop-color="#fff"/>
      <stop offset="1" stop-color="#fff"/>
    </linearGradient>
    <filter id="_25" x="6.845" y="5.374" width="38" height="44" filterUnits="userSpaceOnUse">
      <feOffset dy="3" input="SourceAlpha"/>
      <feGaussianBlur stdDeviation="3" result="blur"/>
      <feFlood flood-opacity="0.161"/>
      <feComposite operator="in" in2="blur"/>
      <feComposite in="SourceGraphic"/>
    </filter>
  </defs>
  <g id="Group_15354" data-name="Group 15354" transform="translate(-988.155 -1008.626)">
    <g id="Green_Chip" data-name="Green Chip" transform="translate(988.155 1008.627)">
      <g id="Layer_2" data-name="Layer 2" transform="translate(0 0)">
        <g id="Ñëîé_6" data-name="Ñëîé 6">
          <g id="Group_15283" data-name="Group 15283">
            <g id="Group_15282" data-name="Group 15282">
              <g id="Group_15274" data-name="Group 15274">
                <path id="Path_3961" data-name="Path 3961" d="M52.678,26.294A26.269,26.269,0,0,1,26.384,52.588a26.618,26.618,0,0,1-2.789-.146A26.294,26.294,0,0,1,26.384,0,26.578,26.578,0,0,1,30.8.369a26.271,26.271,0,0,1,21.88,25.925Z" transform="translate(-0.09)" fill="url(#linear-gradient)"/>
                <path id="Path_3962" data-name="Path 3962" d="M50.857,16.669A26.3,26.3,0,1,0,23.6,52.451a26.618,26.618,0,0,0,2.789.146A26.31,26.31,0,0,0,50.857,16.669Zm-.031,17.305a25.589,25.589,0,0,1-24.45,17.946,26.056,26.056,0,0,1-2.717-.141A25.62,25.62,0,0,1,26.376.68a25.928,25.928,0,0,1,4.3.359A25.639,25.639,0,0,1,50.825,33.974Z" transform="translate(-0.09 -0.009)" fill="url(#linear-gradient-2)"/>
                <path id="Path_3963" data-name="Path 3963" d="M140.413,121.331c0,.648-.034,1.288-.1,1.92a18.8,18.8,0,0,1-1.62,5.979,19.07,19.07,0,0,1-9.482,9.42,18.82,18.82,0,0,1-5.991,1.579q-.885.085-1.791.085c-.648,0-1.288-.034-1.919-.1a18.9,18.9,0,0,1-9.187-3.492,18.919,18.919,0,0,1-7.791-13.6q-.085-.885-.085-1.791c0-.648.034-1.29.1-1.921a18.872,18.872,0,0,1,3.49-9.185,18.946,18.946,0,0,1,13.6-7.791q.885-.085,1.791-.085a18.917,18.917,0,0,1,11.106,3.588,18.942,18.942,0,0,1,7.793,13.6q.082.885.083,1.791Z" transform="translate(-95.137 -95.037)" fill="url(#linear-gradient-3)"/>
                <g id="Group_15268" data-name="Group 15268" transform="translate(7.312 7.312)">
                  <path id="Path_3964" data-name="Path 3964" d="M346.752,102.436v1.523a17.438,17.438,0,0,0-1.921-.105,17.644,17.644,0,0,0-1.791.091v-1.52q.885-.085,1.791-.085A18.768,18.768,0,0,1,346.752,102.436Z" transform="translate(-325.849 -102.34)" fill="#efefef"/>
                  <path id="Path_3965" data-name="Path 3965" d="M218.13,126.94a17.282,17.282,0,0,0-3.219,1.846l-.761-1.318a18.851,18.851,0,0,1,3.219-1.848l.761,1.32Z" transform="translate(-206.168 -123.957)" fill="#efefef"/>
                  <path id="Path_3966" data-name="Path 3966" d="M129.649,213.341a17.4,17.4,0,0,0-1.87,3.206l-1.32-.761a18.847,18.847,0,0,1,1.87-3.206Z" transform="translate(-124.743 -204.704)" fill="#efefef"/>
                  <path id="Path_3967" data-name="Path 3967" d="M103.944,343.051a17.642,17.642,0,0,0,.091,1.791h-1.52q-.085-.885-.085-1.791c0-.648.034-1.29.1-1.921h1.523A17.409,17.409,0,0,0,103.944,343.051Z" transform="translate(-102.43 -324.069)" fill="#efefef"/>
                  <path id="Path_3968" data-name="Path 3968" d="M128.858,469.487l-1.318.761a18.906,18.906,0,0,1-1.85-3.217l1.32-.761A17.292,17.292,0,0,0,128.858,469.487Z" transform="translate(-124.028 -440.268)" fill="#efefef"/>
                  <path id="Path_3969" data-name="Path 3969" d="M216.638,566.881l-.761,1.318a18.832,18.832,0,0,1-3.207-1.87l.763-1.32a17.283,17.283,0,0,0,3.206,1.871Z" transform="translate(-204.794 -531.954)" fill="#efefef"/>
                  <path id="Path_3970" data-name="Path 3970" d="M344.97,611.054v1.52q-.885.085-1.791.085c-.648,0-1.288-.034-1.919-.1V611.04a17.385,17.385,0,0,0,1.919.1A17.629,17.629,0,0,0,344.97,611.054Z" transform="translate(-324.196 -574.695)" fill="#efefef"/>
                  <path id="Path_3971" data-name="Path 3971" d="M470.34,567.427a18.89,18.89,0,0,1-3.217,1.848l-.763-1.32a17.3,17.3,0,0,0,3.219-1.846l.761,1.318Z" transform="translate(-440.358 -532.975)" fill="#efefef"/>
                  <path id="Path_3972" data-name="Path 3972" d="M568.31,468.682a19.027,19.027,0,0,1-1.87,3.207l-1.32-.763a17.358,17.358,0,0,0,1.871-3.206l1.318.761Z" transform="translate(-532.062 -441.8)" fill="#efefef"/>
                  <path id="Path_3973" data-name="Path 3973" d="M612.749,344.741c0,.648-.034,1.288-.1,1.92H611.13a17.372,17.372,0,0,0,.105-1.92,17.665,17.665,0,0,0-.091-1.791h1.522Q612.749,343.835,612.749,344.741Z" transform="translate(-574.785 -325.759)" fill="#efefef"/>
                  <path id="Path_3974" data-name="Path 3974" d="M569.328,217.287l-1.318.763a17.27,17.27,0,0,0-1.85-3.219l1.32-.761a18.894,18.894,0,0,1,1.848,3.217Z" transform="translate(-533.028 -206.087)" fill="#efefef"/>
                  <path id="Path_3975" data-name="Path 3975" d="M472,128.26l-.763,1.32a17.282,17.282,0,0,0-3.2-1.871l.759-1.318A18.6,18.6,0,0,1,472,128.26Z" transform="translate(-441.909 -124.672)" fill="#efefef"/>
                </g>
                <path id="Path_3976" data-name="Path 3976" d="M134.982,108.044A18.924,18.924,0,0,0,132.9,106.3a18.947,18.947,0,0,0-11.106-3.588q-.908,0-1.791.085a18.964,18.964,0,0,0-17.094,16.977c-.063.632-.1,1.273-.1,1.921q0,.908.085,1.791a18.954,18.954,0,0,0,5.308,11.459,18.882,18.882,0,0,1-5.676-11.827q-.085-.885-.085-1.791c0-.648.034-1.29.1-1.921a18.872,18.872,0,0,1,3.49-9.185,18.946,18.946,0,0,1,13.6-7.791q.885-.085,1.791-.085a18.943,18.943,0,0,1,13.561,5.7Z" transform="translate(-95.127 -95.028)" fill="#274b01"/>
                <path id="Path_3977" data-name="Path 3977" d="M158.556,141a17.456,17.456,0,0,1-15.677,17.377,17.658,17.658,0,0,1-1.791.091,17.451,17.451,0,0,1-17.377-15.677A17.652,17.652,0,0,1,123.62,141a17.492,17.492,0,0,1,10.449-16h0a17.3,17.3,0,0,1,5.226-1.377,17.651,17.651,0,0,1,1.791-.091,17.45,17.45,0,0,1,17.377,15.676,17.654,17.654,0,0,1,.091,1.791Z" transform="translate(-114.794 -114.704)" fill="url(#linear-gradient-4)"/>
                <path id="Path_3978" data-name="Path 3978" d="M158.556,141a17.456,17.456,0,0,1-15.677,17.377,17.658,17.658,0,0,1-1.791.091,17.451,17.451,0,0,1-17.377-15.677A17.652,17.652,0,0,1,123.62,141a17.492,17.492,0,0,1,10.449-16h0a17.3,17.3,0,0,1,5.226-1.377,17.651,17.651,0,0,1,1.791-.091,17.45,17.45,0,0,1,17.377,15.676,17.654,17.654,0,0,1,.091,1.791Z" transform="translate(-114.794 -114.704)" fill="url(#linear-gradient-5)"/>
                <path id="Path_3979" data-name="Path 3979" d="M158.556,141a17.456,17.456,0,0,1-15.677,17.377,17.658,17.658,0,0,1-1.791.091,17.451,17.451,0,0,1-17.377-15.677A17.652,17.652,0,0,1,123.62,141a17.492,17.492,0,0,1,10.449-16h0a17.3,17.3,0,0,1,5.226-1.377,17.651,17.651,0,0,1,1.791-.091,17.45,17.45,0,0,1,17.377,15.676,17.654,17.654,0,0,1,.091,1.791Z" transform="translate(-114.794 -114.704)" fill="url(#linear-gradient-4)"/>
                <path id="Path_3980" data-name="Path 3980" d="M158.455,139.216a17.46,17.46,0,0,0-17.377-15.676,17.641,17.641,0,0,0-1.791.091,17.316,17.316,0,0,0-5.226,1.378h0a17.283,17.283,0,0,0-3.219,1.846,17.5,17.5,0,0,0-5.707,7.013,17.459,17.459,0,0,0-1.523,7.14,17.641,17.641,0,0,0,.091,1.791,17.461,17.461,0,0,0,17.377,15.677,17.639,17.639,0,0,0,1.791-.091,17.378,17.378,0,0,0,8.447-3.224,17.56,17.56,0,0,0,3.837-3.809,17.441,17.441,0,0,0,3.392-10.344,17.639,17.639,0,0,0-.091-1.791Zm-.344,3.675a17.052,17.052,0,0,1-3.224,8.263,17.1,17.1,0,0,1-12.05,6.9c-.578.058-1.165.09-1.758.09a17.239,17.239,0,0,1-1.883-.1,17.085,17.085,0,0,1-8.264-3.226,17.237,17.237,0,0,1-3.736-3.764,16.993,16.993,0,0,1-3.163-8.286,17.588,17.588,0,0,1-.09-1.757,17.269,17.269,0,0,1,.1-1.885,16.916,16.916,0,0,1,1.391-5.12,17.155,17.155,0,0,1,5.6-6.879,16.873,16.873,0,0,1,3.157-1.811h0a17.163,17.163,0,0,1,6.885-1.441,17.31,17.31,0,0,1,1.885.1,17.049,17.049,0,0,1,8.263,3.227,17.222,17.222,0,0,1,3.735,3.762,16.973,16.973,0,0,1,3.164,8.286c.058.577.09,1.165.09,1.758a17.259,17.259,0,0,1-.1,1.883Z" transform="translate(-114.785 -114.713)" fill="url(#linear-gradient-7)"/>
                <path id="Path_3981" data-name="Path 3981" d="M162.551,145.316a17.26,17.26,0,0,1-.1,1.883,17.052,17.052,0,0,1-3.224,8.263,17.1,17.1,0,0,1-12.05,6.9c-.578.058-1.165.09-1.758.09a17.24,17.24,0,0,1-1.883-.1,17.085,17.085,0,0,1-8.264-3.226,17.236,17.236,0,0,1-3.736-3.764,16.993,16.993,0,0,1-3.163-8.286,17.587,17.587,0,0,1-.09-1.757,17.262,17.262,0,0,1,.1-1.885,16.915,16.915,0,0,1,1.391-5.12,17.155,17.155,0,0,1,5.6-6.879,16.872,16.872,0,0,1,3.157-1.811h0a17.163,17.163,0,0,1,6.885-1.441,17.31,17.31,0,0,1,1.885.1,17.05,17.05,0,0,1,8.263,3.227,17.224,17.224,0,0,1,3.735,3.762,16.973,16.973,0,0,1,3.164,8.286c.058.577.09,1.165.09,1.758Z" transform="translate(-119.121 -119.022)" fill="url(#linear-gradient-8)"/>
                <path id="Path_3982" data-name="Path 3982" d="M158.628,141.684q0,.9-.089,1.783A17.547,17.547,0,0,1,155.3,152a17.735,17.735,0,0,1-7.073,5.771,17.476,17.476,0,0,1-5.566,1.467q-.822.078-1.664.079-.9,0-1.783-.089a17.572,17.572,0,0,1-8.535-3.244,17.582,17.582,0,0,1-7.238-12.637q-.078-.822-.079-1.664,0-.9.089-1.785a17.619,17.619,0,0,1,15.881-15.771q.822-.078,1.664-.079a17.6,17.6,0,0,1,7.338,1.6,17.279,17.279,0,0,1,2.979,1.737,17.6,17.6,0,0,1,7.239,12.636q.076.822.077,1.664Z" transform="translate(-114.553 -115.187)" fill="#264702" opacity="0.86"/>
                <path id="Path_3983" data-name="Path 3983" d="M162.551,145.3a17.126,17.126,0,0,1-15.378,17.047,17.4,17.4,0,0,1-1.758.089,17.117,17.117,0,0,1-17.045-15.378,17.4,17.4,0,0,1-.09-1.758,17.128,17.128,0,0,1,7.092-13.884,16.936,16.936,0,0,1,3.158-1.811h0a16.994,16.994,0,0,1,5.127-1.352,17.4,17.4,0,0,1,1.758-.09,17.123,17.123,0,0,1,7,1.493,16.955,16.955,0,0,1,3.143,1.835,17.177,17.177,0,0,1,3.735,3.762,16.981,16.981,0,0,1,3.164,8.286,17.4,17.4,0,0,1,.09,1.758Z" transform="translate(-119.121 -119.003)" fill="url(#linear-gradient-8)"/>
                <g id="Group_15269" data-name="Group 15269" transform="translate(1.636)">
                  <path id="Path_3984" data-name="Path 3984" d="M315.418.369V6.375a20.335,20.335,0,0,0-8.808-.005v-6a26.591,26.591,0,0,1,8.808,0Z" transform="translate(-286.346)" fill="#fff"/>
                  <path id="Path_3985" data-name="Path 3985" d="M32.716,136.084a20.331,20.331,0,0,0-4.408,7.624l-4.615-2.664h0l-.583-.336a26.444,26.444,0,0,1,1.357-3.044c.08-.153.163-.3.246-.455s.183-.327.276-.489.189-.324.286-.484.2-.319.3-.477.2-.312.3-.467c.088-.133.178-.264.268-.394.034-.05.068-.1.105-.148.055-.081.113-.163.173-.243s.1-.133.143-.2l.02-.029c.045-.063.091-.126.141-.189.086-.116.176-.233.266-.347.169-.224.347-.445.527-.663l.005,0,.585.337,4.612,2.662Z" transform="translate(-23.101 -123.572)" fill="#fff"/>
                  <path id="Path_3986" data-name="Path 3986" d="M32.591,461.559l-4.61,2.662-.588.339h0c-.056-.068-.111-.136-.164-.2s-.109-.136-.164-.2c-.114-.143-.228-.289-.339-.435s-.226-.3-.336-.452c-.134-.184-.267-.372-.4-.561q-.586-.855-1.113-1.765a26.629,26.629,0,0,1-1.888-4.007l.583-.337,4.618-2.666a20.291,20.291,0,0,0,4.4,7.629Z" transform="translate(-22.99 -421.498)" fill="#fff"/>
                  <path id="Path_3987" data-name="Path 3987" d="M315.138,646.834v6c-.178.03-.357.058-.539.085-.143.021-.286.041-.43.06-.083.011-.168.021-.253.031q-.2.025-.4.045c-.179.02-.359.036-.54.051l-.384.029c-.1.009-.2.015-.3.02-.158.01-.316.016-.475.024s-.309.011-.464.014a.693.693,0,0,1-.086,0c-.173.005-.346.006-.52.006s-.376,0-.563-.006c-.133,0-.266-.006-.4-.011-.031,0-.061,0-.093,0-.058,0-.118,0-.176-.009-.133-.005-.264-.011-.4-.02-.168-.01-.332-.021-.5-.035-.088-.006-.174-.015-.263-.024-.134-.011-.268-.025-.4-.038-.159-.016-.319-.035-.479-.057l-.139-.016c-.149-.019-.3-.04-.45-.063a.153.153,0,0,1-.031,0q-.252-.037-.5-.08a.1.1,0,0,1-.025,0V646.83a20.334,20.334,0,0,0,8.808.005Z" transform="translate(-286.086 -600.616)" fill="#fff"/>
                  <path id="Path_3988" data-name="Path 3988" d="M588.259,457.174a.1.1,0,0,1-.011.03c-.06.159-.121.319-.184.479-.114.291-.236.577-.361.862l-.02.045c-.056.128-.113.256-.173.382-.041.1-.086.191-.133.286-.066.143-.136.287-.208.43-.061.124-.123.248-.188.371q-.287.556-.6,1.1-.408.708-.854,1.38l-.015.024a.868.868,0,0,1-.05.073c-.065.1-.131.2-.2.3-.039.058-.078.116-.118.173s-.081.114-.123.173a.118.118,0,0,1-.02.026c-.051.073-.1.146-.156.218s-.107.144-.159.216-.113.153-.171.228-.117.151-.174.226c-.156.2-.319.407-.484.607l0,0-.6-.346-4.6-2.654a20.319,20.319,0,0,0,4.408-7.626l4.6,2.657.6.346Z" transform="translate(-538.95 -421.721)" fill="#fff"/>
                  <path id="Path_3989" data-name="Path 3989" d="M588.461,140.939l-.6.344-4.607,2.659a20.312,20.312,0,0,0-4.4-7.629l4.6-2.656.6-.344.005,0q.519.628,1,1.295.162.222.319.449l.02.029q.618.895,1.172,1.851a26.424,26.424,0,0,1,1.888,4.007Z" transform="translate(-539.145 -123.785)" fill="#fff"/>
                </g>
                <g id="Group_15270" data-name="Group 15270" transform="translate(1.635)">
                  <path id="Path_3990" data-name="Path 3990" d="M71.69,35.107a25.432,25.432,0,0,1-3.527,6.506q-.427.571-.886,1.117l.6.346c.166-.2.329-.4.489-.6.058-.075.116-.149.174-.226s.114-.151.171-.228.106-.143.159-.216.105-.144.156-.218a.142.142,0,0,0,.02-.026c.041-.058.083-.115.123-.173s.08-.114.118-.173c.07-.1.136-.2.2-.3a.884.884,0,0,0,.05-.073l.015-.024c.075-.111.148-.224.221-.339q.216-.339.427-.688c.07-.118.138-.234.206-.352l.015-.026c.071-.126.144-.253.214-.379s.154-.279.229-.42c.05-.093.1-.184.144-.277.065-.123.126-.246.188-.371.071-.143.141-.287.208-.43.046-.1.091-.189.133-.286.06-.126.116-.254.173-.382l.02-.045c.124-.286.246-.572.361-.862.063-.159.124-.319.184-.479a.1.1,0,0,0,.011-.03l-.6-.346Zm-1.281-21.96q-.553-.957-1.172-1.851l-.02-.029c-.105-.151-.211-.3-.319-.449-.081-.111-.163-.221-.244-.331q-.372-.491-.763-.96l-.6.344A25.514,25.514,0,0,1,71.475,16.9q.117.294.226.593l.6-.344a26.56,26.56,0,0,0-1.888-4.007ZM27.723,10.164c.086-.106.173-.211.261-.314L27.4,9.512c-.066.076-.129.153-.191.229-.114.143-.229.286-.341.43-.09.114-.179.231-.266.347-.05.063-.1.126-.141.189l-.02.029c-.048.065-.1.131-.143.2s-.118.161-.173.243c-.036.05-.071.1-.105.148q-.135.194-.268.394c-.1.154-.2.311-.3.467s-.2.316-.3.477-.191.321-.286.484-.186.324-.276.489-.166.3-.246.455a26.5,26.5,0,0,0-1.357,3.044l.583.336a25.469,25.469,0,0,1,4.151-7.307ZM23.563,35.1l-.583.337a26.7,26.7,0,0,0,1.888,4.007q.526.91,1.113,1.765c.129.189.263.377.4.562.11.153.223.3.336.452s.224.292.339.435c.055.068.109.138.164.2l.166.2.588-.339A25.663,25.663,0,0,1,24,36.213q-.231-.551-.439-1.117ZM47.638,0a26.35,26.35,0,0,0-4.394.366v.679l.105-.019a25.951,25.951,0,0,1,8.582,0l.121.021V.369A26.444,26.444,0,0,0,47.639,0ZM47.63,51.912a26.055,26.055,0,0,1-2.717-.141q-.852-.09-1.688-.236v.684a.15.15,0,0,0,.025,0c.166.029.332.055.5.08a.235.235,0,0,0,.031,0c.149.024.3.045.45.063l.139.016c.159.021.319.04.479.056.133.014.266.026.4.038l.263.024c.166.014.331.025.5.035.131.009.262.015.4.02.058.005.118.006.176.009.031,0,.061,0,.093,0,.133.005.266.01.4.011.188,0,.376.006.563.006s.347,0,.52-.006c.029,0,.058,0,.086,0,.154,0,.309-.006.464-.014s.317-.014.475-.024c.1,0,.2-.011.3-.02l.384-.029c.181-.015.361-.031.54-.051.134-.014.269-.029.4-.045.085-.01.169-.02.253-.031.144-.019.287-.038.43-.06.181-.026.361-.055.539-.085v-.688a25.608,25.608,0,0,1-4.4.377Z" transform="translate(-22.98 0)" fill="url(#linear-gradient-10)"/>
                </g>
                <g id="Group_15273" data-name="Group 15273">
                  <g id="Group_15272" data-name="Group 15272" opacity="0.05">
                    <g id="Group_15271" data-name="Group 15271">
                      <path id="Path_3991" data-name="Path 3991" d="M48.762,12.485c-.191,0-.381,0-.572,0a44.5,44.5,0,0,0-42.207,30.4A26.282,26.282,0,0,1,26.384,0,26.578,26.578,0,0,1,30.8.369,26.35,26.35,0,0,1,48.762,12.485Z" transform="translate(-0.09)" fill="url(#linear-gradient-11)"/>
                    </g>
                  </g>
                </g>
              </g>
              <g id="Group_15281" data-name="Group 15281" transform="translate(1.646 3.861)">
                <g id="Group_15275" data-name="Group 15275" transform="translate(32.283 0.028)">
                  <path id="Path_3992" data-name="Path 3992" d="M481.851,56.965c-.816,1.433-1.642,2.866-2.471,4.286l-.033.056-.056-.033-4.274-2.493-.038-.022.021-.037,2.493-4.274.011-.019.019.011,4.274,2.493.053.031Zm-.106-.061L477.5,54.479l.029-.008-2.455,4.3-.016-.059,4.3,2.455-.089.024c.81-1.419,1.623-2.824,2.446-4.23l.031-.053Z" transform="translate(-474.98 -54.43)" fill="#274a01"/>
                </g>
                <ellipse id="Ellipse_297" data-name="Ellipse 297" cx="0.584" cy="0.584" rx="0.584" ry="0.584" transform="translate(35.099 2.866)" fill="#fff"/>
                <ellipse id="Ellipse_298" data-name="Ellipse 298" cx="0.584" cy="0.584" rx="0.584" ry="0.584" transform="translate(11.139 2.328)" fill="#fff"/>
                <ellipse id="Ellipse_299" data-name="Ellipse 299" cx="0.584" cy="0.584" rx="0.584" ry="0.584" transform="translate(13.381 0.975)" fill="#fff"/>
                <ellipse id="Ellipse_300" data-name="Ellipse 300" cx="0.584" cy="0.584" rx="0.584" ry="0.584" transform="translate(12.974 2.866)" fill="#fff"/>
                <ellipse id="Ellipse_301" data-name="Ellipse 301" cx="0.584" cy="0.584" rx="0.584" ry="0.584" transform="translate(14.864 3.403)" fill="#fff"/>
                <ellipse id="Ellipse_302" data-name="Ellipse 302" cx="0.584" cy="0.584" rx="0.584" ry="0.584" transform="translate(12.444 5.823) rotate(-80.78)" fill="#fff"/>
                <circle id="Ellipse_303" data-name="Ellipse 303" cx="0.584" cy="0.584" r="0.584" transform="translate(0.335 21.238) rotate(-45)" fill="#fff"/>
                <ellipse id="Ellipse_304" data-name="Ellipse 304" cx="0.584" cy="0.584" rx="0.584" ry="0.584" transform="translate(3.22 21.67) rotate(-76.72)" fill="#fff"/>
                <ellipse id="Ellipse_305" data-name="Ellipse 305" cx="0.584" cy="0.584" rx="0.584" ry="0.584" transform="translate(0.491 24.381) rotate(-80.78)" fill="#fff"/>
                <ellipse id="Ellipse_306" data-name="Ellipse 306" cx="0.584" cy="0.584" rx="0.584" ry="0.584" transform="translate(3.159 23.581) rotate(-22.5)" fill="#fff"/>
                <ellipse id="Ellipse_307" data-name="Ellipse 307" cx="0.584" cy="0.584" rx="0.584" ry="0.584" transform="translate(14.836 40.555)" fill="#fff"/>
                <ellipse id="Ellipse_308" data-name="Ellipse 308" cx="0.584" cy="0.584" rx="0.584" ry="0.584" transform="translate(33.264 40.611)" fill="#fff"/>
                <circle id="Ellipse_309" data-name="Ellipse 309" cx="0.584" cy="0.584" r="0.584" transform="translate(44.53 21.224) rotate(-45)" fill="#fff"/>
                <ellipse id="Ellipse_310" data-name="Ellipse 310" cx="0.584" cy="0.584" rx="0.584" ry="0.584" transform="translate(45.986 23.005) rotate(-76.72)" fill="#fff"/>
                <ellipse id="Ellipse_311" data-name="Ellipse 311" cx="0.584" cy="0.584" rx="0.584" ry="0.584" transform="translate(47.261 23.604) rotate(-22.5)" fill="#fff"/>
                <ellipse id="Ellipse_312" data-name="Ellipse 312" cx="0.584" cy="0.584" rx="0.584" ry="0.584" transform="translate(36.933 41.667)" fill="#fff"/>
                <ellipse id="Ellipse_313" data-name="Ellipse 313" cx="0.584" cy="0.584" rx="0.584" ry="0.584" transform="translate(14.114 41.82)" fill="#fff"/>
                <ellipse id="Ellipse_314" data-name="Ellipse 314" cx="0.584" cy="0.584" rx="0.584" ry="0.584" transform="translate(13.391 43.085)" fill="#fff"/>
                <path id="Path_3993" data-name="Path 3993" d="M200.248,604.4a.584.584,0,1,1,.6-.57A.584.584,0,0,1,200.248,604.4Z" transform="translate(-187.064 -563.999)" fill="#fff"/>
                <path id="Path_3994" data-name="Path 3994" d="M189.728,621.865a.584.584,0,1,1,.6-.57A.584.584,0,0,1,189.728,621.865Z" transform="translate(-177.296 -580.212)" fill="#fff"/>
                <path id="Path_3995" data-name="Path 3995" d="M179.208,639.335a.583.583,0,1,1,.6-.57A.583.583,0,0,1,179.208,639.335Z" transform="translate(-167.527 -596.434)" fill="#fff"/>
                <g id="Group_15276" data-name="Group 15276" transform="translate(44.151 20.054)">
                  <path id="Path_3996" data-name="Path 3996" d="M646.092,339.783c-1.648.01-3.3.011-4.947,0h-.065v-.065l.021-4.948v-.044h.044l4.948.021h.021v.021l-.021,4.948v.061Zm0-.122-.021-4.887.021.021-4.948.021.044-.044.021,4.948-.065-.065c1.634-.008,3.257-.006,4.886,0h.061Z" transform="translate(-641.08 -334.73)" fill="#284c02"/>
                </g>
                <g id="Group_15277" data-name="Group 15277" transform="translate(10.105)">
                  <path id="Path_3997" data-name="Path 3997" d="M168.928,54.04c.832,1.423,1.662,2.855,2.477,4.283l.032.056-.056.032-4.3,2.455-.038.021-.021-.037-2.455-4.3-.011-.019.019-.011,4.3-2.455.053-.031Zm-.106.061L164.6,56.563l.008-.029,2.493,4.274-.059-.016,4.274-2.493-.024.089c-.824-1.411-1.634-2.817-2.44-4.233l-.03-.053Z" transform="translate(-164.56 -54.04)" fill="#32540e"/>
                </g>
                <g id="Group_15278" data-name="Group 15278" transform="translate(0 20.084)">
                  <path id="Path_3998" data-name="Path 3998" d="M23.152,335.148c1.648-.01,3.3-.011,4.947,0h.065v.065l-.021,4.948v.044H28.1l-4.948-.021H23.13v-.021l.021-4.948v-.061Zm0,.122.021,4.887-.021-.021,4.948-.021-.044.044-.021-4.948.065.065c-1.634.008-3.257.006-4.886,0h-.061Z" transform="translate(-23.13 -335.139)" fill="#385c11"/>
                </g>
                <g id="Group_15279" data-name="Group 15279" transform="translate(10.22 38.233)">
                  <path id="Path_3999" data-name="Path 3999" d="M166.18,593.513c.816-1.433,1.642-2.866,2.471-4.286l.033-.056.056.033,4.274,2.493.038.022-.021.037-2.493,4.274-.011.019-.019-.011-4.274-2.493-.053-.031Zm.106.061L170.528,596l-.029.008,2.455-4.3.016.059-4.3-2.455.089-.024c-.81,1.419-1.623,2.823-2.446,4.23l-.031.053Z" transform="translate(-166.18 -589.17)" fill="#264901"/>
                </g>
                <g id="Group_15280" data-name="Group 15280" transform="translate(32.244 38.221)">
                  <path id="Path_4000" data-name="Path 4000" d="M476.939,595.847c-.832-1.422-1.662-2.855-2.477-4.282l-.032-.057.056-.032,4.3-2.455.038-.021.021.037,2.455,4.3.011.019-.019.011-4.3,2.455-.053.031Zm.106-.061,4.221-2.462-.008.029-2.493-4.274.059.016-4.274,2.493.024-.089c.824,1.411,1.634,2.817,2.44,4.233l.03.053Z" transform="translate(-474.43 -589)" fill="#346500"/>
                </g>
              </g>
            </g>
          </g>
        </g>
      </g>
    </g>
  </g>
</svg>
