<svg id="Layer_2" data-name="Layer 2" xmlns="http://www.w3.org/2000/svg" xmlns:xlink="http://www.w3.org/1999/xlink" className="w-full" viewBox="0 0 52.83 52.58">
  <defs>
    <style>
      .coin4-cls-1 {
        fill: url(#coin4-linear-gradient);
      }

      .coin4-cls-1, .coin4-cls-2, .coin4-cls-3, .coin4-cls-4, .coin4-cls-5, .coin4-cls-6, .coin4-cls-7, .coin4-cls-8, .coin4-cls-9, .coin4-cls-10, .coin4-cls-11, .coin4-cls-12, .coin4-cls-13, .coin4-cls-14, .coin4-cls-15, .coin4-cls-16, .coin4-cls-17, .coin4-cls-18 {
        stroke-width: 0px;
      }

      .coin4-cls-2 {
        fill: #7a0909;
        opacity: .93;
      }

      .coin4-cls-2, .coin4-cls-19, .coin4-cls-4 {
        isolation: isolate;
      }

      .coin4-cls-3 {
        fill: url(#coin4-linear-gradient-6);
      }

      .coin4-cls-4 {
        opacity: .98;
      }

      .coin4-cls-4, .coin4-cls-9 {
        fill: #740707;
      }

      .coin4-cls-5 {
        fill: url(#coin4-linear-gradient-5);
      }

      .coin4-cls-6 {
        fill: #740606;
      }

      .coin4-cls-7 {
        fill: #760b0b;
      }

      .coin4-cls-8 {
        fill: #fff;
      }

      .coin4-cls-10 {
        fill: url(#coin4-linear-gradient-2);
      }

      .coin4-cls-11 {
        fill: url(#coin4-linear-gradient-7);
      }

      .coin4-cls-12 {
        fill: url(#coin4-linear-gradient-3);
      }

      .coin4-cls-13 {
        fill: url(#coin4-linear-gradient-9);
      }

      .coin4-cls-14 {
        fill: url(#coin4-linear-gradient-8);
      }

      .coin4-cls-15 {
        fill: #730606;
      }

      .coin4-cls-16 {
        fill: url(#coin4-linear-gradient-10);
      }

      .coin4-cls-17 {
        fill: url(#coin4-linear-gradient-4);
      }

      .coin4-cls-18 {
        fill: #efefef;
      }
    </style>
    <linearGradient id="coin4-linear-gradient" x1="-915.14" y1="557.01" x2="-914.15" y2="556.49" gradientTransform="translate(48147.67 29304.4) scale(52.61 -52.59)" gradientUnits="userSpaceOnUse">
      <stop offset="0" stop-color="#ce0000"/>
      <stop offset="1" stop-color="#900"/>
    </linearGradient>
    <linearGradient id="coin4-linear-gradient-2" x1="-915.08" y1="556.98" x2="-914.19" y2="556.51" gradientTransform="translate(48137.66 29313.9) scale(52.6 -52.6)" gradientUnits="userSpaceOnUse">
      <stop offset="0" stop-color="#ff4d4d"/>
      <stop offset="1" stop-color="#720000"/>
    </linearGradient>
    <linearGradient id="coin4-linear-gradient-3" x1="-908.01" y1="553.47" x2="-907.6" y2="552.52" gradientTransform="translate(34492.85 21021.04) scale(37.97 -37.97)" gradientUnits="userSpaceOnUse">
      <stop offset="0" stop-color="#c41010"/>
      <stop offset="1" stop-color="#820000"/>
    </linearGradient>
    <linearGradient id="coin4-linear-gradient-4" x1="-906.03" y1="552.27" x2="-905.31" y2="551.37" gradientTransform="translate(31668.71 19305.68) scale(34.94 -34.94)" xlink:href="#coin4-linear-gradient"/>
    <linearGradient id="coin4-linear-gradient-5" x1="-905.32" y1="551.27" x2="-906.09" y2="552.48" gradientTransform="translate(31668.71 19305.68) scale(34.94 -34.94)" xlink:href="#coin4-linear-gradient"/>
    <linearGradient id="coin4-linear-gradient-6" x1="-906.03" y1="552.27" x2="-905.31" y2="551.37" gradientTransform="translate(31668.71 19305.68) scale(34.94 -34.94)" xlink:href="#coin4-linear-gradient"/>
    <linearGradient id="coin4-linear-gradient-7" x1="-905.98" y1="552.21" x2="-905.36" y2="551.43" gradientTransform="translate(31665 19304.54) scale(34.93 -34.94)" xlink:href="#coin4-linear-gradient-2"/>
    <linearGradient id="coin4-linear-gradient-8" x1="-905.51" y1="551.98" x2="-904.8" y2="551.08" gradientTransform="translate(31045.91 18926.71) scale(34.27 -34.27)" xlink:href="#coin4-linear-gradient"/>
    <linearGradient id="coin4-linear-gradient-9" x1="-905.51" y1="551.98" x2="-904.79" y2="551.08" gradientTransform="translate(31046.82 18928.97) scale(34.27 -34.27)" gradientUnits="userSpaceOnUse">
      <stop offset="0" stop-color="#ce0000"/>
      <stop offset="1" stop-color="#c50000"/>
    </linearGradient>
    <linearGradient id="coin4-linear-gradient-10" x1="-913.84" y1="557.2" x2="-913.03" y2="556.22" gradientTransform="translate(45079.97 29298.16) scale(49.32 -52.58)" gradientUnits="userSpaceOnUse">
      <stop offset="0" stop-color="#eaeaea"/>
      <stop offset="1" stop-color="#ab1a1a"/>
    </linearGradient>
  </defs>
  <g id="Layer_1-2" data-name="Layer 1">
    <g id="Group_15353" data-name="Group 15353">
      <g id="Red_Chip" data-name="Red Chip">
        <g id="Layer_2-2" data-name="Layer 2">
          <g id="_Ñëîé_6" data-name="Ñëîé 6">
            <g id="Group_15299" data-name="Group 15299">
              <g id="Group_15298" data-name="Group 15298">
                <g id="Group_15290" data-name="Group 15290">
                  <path id="Path_4023" data-name="Path 4023" class="coin4-cls-1" d="m52.71,26.29C51.87,62.67-2.72,59.77.25,23.53c3.79-32.6,52.15-30.06,52.46,2.77Z"/>
                  <path id="Path_4024" data-name="Path 4024" class="coin4-cls-10" d="m50.89,16.66C37.69-15.29-10.17,3.54,1.95,35.92c13.22,31.93,61.02,13.15,48.95-19.26Zm-.03,17.3C41.98,62.97-2.48,53.82.9,23.61,5.93-13.1,60.84-1.74,50.86,33.97h0Z"/>
                  <path id="Path_4025" data-name="Path 4025" class="coin4-cls-12" d="m45.4,26.29c-.62,26.19-39.91,24.2-37.87-1.92C9.87.86,45.46,2.7,45.4,26.29Z"/>
                  <g id="Group_15285" data-name="Group 15285">
                    <path id="Path_4026" data-name="Path 4026" class="coin4-cls-18" d="m28.34,7.41v1.52c-1.23-.14-2.48-.14-3.71-.01v-1.52c1.22-.12,2.48-.11,3.71.01Z"/>
                    <path id="Path_4027" data-name="Path 4027" class="coin4-cls-18" d="m19.4,10.3c-1.14.5-2.22,1.12-3.22,1.85l-.76-1.32c1.01-.72,2.09-1.34,3.22-1.85,0,0,.76,1.32.76,1.32Z"/>
                    <path id="Path_4028" data-name="Path 4028" class="coin4-cls-18" d="m12.34,15.95c-.74,1-1.36,2.07-1.87,3.21l-1.32-.76c.52-1.13,1.14-2.2,1.87-3.21l1.32.76Z"/>
                    <path id="Path_4029" data-name="Path 4029" class="coin4-cls-18" d="m8.95,26.29c0,.6.03,1.2.09,1.79h-1.52c-.12-1.22-.11-2.48.01-3.71h1.52c-.07.64-.11,1.28-.11,1.92Z"/>
                    <path id="Path_4030" data-name="Path 4030" class="coin4-cls-18" d="m12.27,36.53l-1.32.76c-.72-1.01-1.34-2.09-1.85-3.22l1.32-.76c.5,1.14,1.12,2.21,1.85,3.22Z"/>
                    <path id="Path_4031" data-name="Path 4031" class="coin4-cls-18" d="m19.28,42.24l-.76,1.32c-1.13-.52-2.2-1.14-3.21-1.87l.76-1.32c1,.74,2.07,1.36,3.21,1.87h0Z"/>
                    <path id="Path_4032" data-name="Path 4032" class="coin4-cls-18" d="m28.21,43.67v1.52c-1.22.12-2.49.11-3.71-.01v-1.52c1.23.13,2.48.13,3.71.01Z"/>
                    <path id="Path_4033" data-name="Path 4033" class="coin4-cls-18" d="m37.42,41.76c-1.01.72-2.09,1.34-3.22,1.85l-.76-1.32c1.14-.5,2.22-1.12,3.22-1.85l.76,1.32h0Z"/>
                    <path id="Path_4034" data-name="Path 4034" class="coin4-cls-18" d="m43.69,34.19c-.52,1.13-1.14,2.2-1.87,3.21l-1.32-.76c.74-1,1.36-2.07,1.87-3.21,0,0,1.32.76,1.32.76Z"/>
                    <path id="Path_4035" data-name="Path 4035" class="coin4-cls-18" d="m45.4,26.29c0,.65-.03,1.29-.1,1.92h-1.52c.13-1.23.13-2.48,0-3.71h1.52c.06.59.09,1.19.09,1.79Z"/>
                    <path id="Path_4036" data-name="Path 4036" class="coin4-cls-18" d="m43.74,18.51l-1.32.76c-.5-1.14-1.12-2.22-1.85-3.22l1.32-.76c.72,1.01,1.34,2.09,1.85,3.22h0Z"/>
                    <path id="Path_4037" data-name="Path 4037" class="coin4-cls-18" d="m37.53,10.9l-.76,1.32c-1-.74-2.07-1.36-3.2-1.87l.76-1.32c1.13.51,2.2,1.14,3.21,1.87h0Z"/>
                  </g>
                  <path id="Path_4038" data-name="Path 4038" class="coin4-cls-2" d="m39.98,13.02C22.02-3.81-3.7,22.04,13.2,39.91-4.61,21.99,21.99-4.7,39.98,13.02Z"/>
                  <path id="Path_4039" data-name="Path 4039" class="coin4-cls-17" d="m43.89,26.3c.06,9.58-7.9,17.52-17.47,17.47-18.59.28-24.09-26.26-7.02-33.47,11.15-5.18,24.78,3.67,24.49,16h0Z"/>
                  <path id="Path_4040" data-name="Path 4040" class="coin4-cls-5" d="m43.89,26.3c.06,9.58-7.9,17.52-17.47,17.47-18.59.28-24.09-26.26-7.02-33.47,11.15-5.18,24.78,3.67,24.49,16h0Z"/>
                  <path id="Path_4041" data-name="Path 4041" class="coin4-cls-3" d="m43.89,26.3c.06,9.58-7.9,17.52-17.47,17.47-18.59.28-24.09-26.26-7.02-33.47,11.15-5.18,24.78,3.67,24.49,16h0Z"/>
                  <path id="Path_4042" data-name="Path 4042" class="coin4-cls-11" d="m43.8,24.5c-.95-11.56-13.89-19.05-24.39-14.21-17.2,6.96-11.25,34.41,7.38,33.46,9.91.03,18.26-9.42,17.02-19.26h0Zm-.34,3.68c-.99,12.74-17.14,19.83-27.18,11.93-10.54-7.22-8.6-24.75,3.26-29.5,11.53-5.51,25.73,4.93,23.92,17.57h0Z"/>
                  <path id="Path_4043" data-name="Path 4043" class="coin4-cls-14" d="m43.56,26.29c.47,13.6-16.6,22.24-27.28,13.81-10.54-7.22-8.6-24.75,3.26-29.5,10.81-5.14,24.4,3.72,24.02,15.69h0Z"/>
                  <path id="Path_4044" data-name="Path 4044" class="coin4-cls-4" d="m44.2,26.5c-.08,23.05-35.19,23.05-35.27,0-.09-23.22,35.18-23.06,35.27,0h0Z"/>
                  <path id="Path_4045" data-name="Path 4045" class="coin4-cls-13" d="m43.56,26.3c.06,9.4-7.75,17.19-17.14,17.14-18.09.56-23.59-26.08-6.88-32.83,10.8-5.14,24.39,3.73,24.02,15.69h0Z"/>
                  <g id="Group_15286" data-name="Group 15286">
                    <path id="Path_4046" data-name="Path 4046" class="coin4-cls-8" d="m30.83.37v6.01c-2.9-.65-5.91-.65-8.81,0V.37c2.92-.49,5.89-.49,8.81,0h0Z"/>
                    <path id="Path_4047" data-name="Path 4047" class="coin4-cls-8" d="m11.38,12.51c-2.01,2.19-3.51,4.79-4.41,7.62l-4.62-2.66-.58-.34c1.03-2.77,2.53-5.35,4.41-7.63.1.05,4.91,2.83,5.2,3h0Z"/>
                    <path id="Path_4048" data-name="Path 4048" class="coin4-cls-8" d="m11.36,40.06c-.31.18-5.09,2.94-5.2,3h0c-1.88-2.26-3.37-4.86-4.4-7.62.08-.04,4.92-2.85,5.2-3.01.89,2.83,2.39,5.44,4.4,7.63Z"/>
                    <path id="Path_4049" data-name="Path 4049" class="coin4-cls-8" d="m30.81,46.22v6c-2.91.49-5.9.48-8.81,0v-6.01c2.9.64,5.91.65,8.81,0Z"/>
                    <path id="Path_4050" data-name="Path 4050" class="coin4-cls-8" d="m51.07,35.45c-1.03,2.77-2.53,5.35-4.4,7.63-.13-.07-4.89-2.82-5.2-3,2.01-2.19,3.51-4.79,4.41-7.63.33.19,5.06,2.93,5.2,3h0Z"/>
                    <path id="Path_4051" data-name="Path 4051" class="coin4-cls-8" d="m51.08,17.15c-.12.06-4.9,2.83-5.21,3-.89-2.83-2.39-5.44-4.4-7.63.34-.19,5.06-2.93,5.2-3,1.87,2.27,3.37,4.87,4.4,7.63h0Z"/>
                  </g>
                  <g id="Group_15287" data-name="Group 15287">
                    <path id="Path_4052" data-name="Path 4052" class="coin4-cls-16" d="m50.47,35.11c-1.01,2.77-2.51,5.36-4.41,7.62l.6.35c1.89-2.27,3.37-4.86,4.41-7.62l-.6-.35h0Zm-1.28-21.96c-.74-1.28-1.57-2.49-2.52-3.62l-.6.34c1.9,2.26,3.39,4.85,4.41,7.62l.6-.34c-.52-1.39-1.15-2.73-1.89-4.01h0ZM6.5,10.16c.09-.11.17-.21.26-.31l-.58-.34c-1.89,2.26-3.38,4.86-4.41,7.62l.58.34c.97-2.65,2.37-5.12,4.15-7.31h0Zm-4.16,24.94l-.58.34c1.03,2.76,2.52,5.36,4.41,7.62l.59-.34c-1.9-2.27-3.39-4.85-4.41-7.63h0ZM26.42,0c-1.47,0-2.94.12-4.39.37v.68c2.91-.5,5.89-.5,8.81,0V.37C29.37.12,27.9,0,26.42,0Zm0,51.91c-1.47,0-2.96-.12-4.4-.38v.68c2.91.47,5.9.49,8.81,0v-.69c-1.45.25-2.93.38-4.4.38h0Z"/>
                  </g>
                </g>
                <g id="Group_15297" data-name="Group 15297">
                  <g id="Group_15291" data-name="Group 15291">
                    <path id="Path_4054" data-name="Path 4054" class="coin4-cls-7" d="m40.93,6.42c-.83,1.45-1.66,2.9-2.5,4.34-.09-.05-4.28-2.5-4.37-2.55.04-.07,2.49-4.26,2.52-4.33.1.06,4.24,2.47,4.35,2.54Zm-.11-.06l-4.24-2.42h.03s-2.45,4.29-2.45,4.29l-.02-.06,4.3,2.45-.09.02c.82-1.44,1.64-2.86,2.48-4.28h0Z"/>
                  </g>
                  <path id="Ellipse_315" data-name="Ellipse 315" class="coin4-cls-8" d="m37.46,6.73c.76-.01.76,1.18,0,1.17-.76.01-.76-1.18,0-1.17Z"/>
                  <path id="Ellipse_316" data-name="Ellipse 316" class="coin4-cls-8" d="m13.5,6.19c.76-.01.76,1.18,0,1.17-.76.01-.76-1.18,0-1.17Z"/>
                  <path id="Ellipse_317" data-name="Ellipse 317" class="coin4-cls-8" d="m15.74,4.84c.76-.01.76,1.18,0,1.17-.76.01-.76-1.18,0-1.17Z"/>
                  <path id="Ellipse_318" data-name="Ellipse 318" class="coin4-cls-8" d="m14.75,7.22c.11-.75,1.28-.56,1.15.18-.11.75-1.28.56-1.15-.18Z"/>
                  <path id="Ellipse_319" data-name="Ellipse 319" class="coin4-cls-8" d="m16.64,7.81c.04-.76,1.23-.68,1.17.08-.04.76-1.23.68-1.17-.08Z"/>
                  <path id="Ellipse_320" data-name="Ellipse 320" class="coin4-cls-8" d="m14.66,8.66c.7-.3,1.15.8.45,1.08-.7.3-1.15-.8-.45-1.08Z"/>
                  <path id="Ellipse_321" data-name="Ellipse 321" class="coin4-cls-8" d="m2.36,24.97c.16-.74,1.32-.47,1.14.27-.16.74-1.32.47-1.14-.27Z"/>
                  <path id="Ellipse_322" data-name="Ellipse 322" class="coin4-cls-8" d="m5.7,24.52c.76-.01.76,1.18,0,1.17-.76.01-.76-1.18,0-1.17Z"/>
                  <path id="Ellipse_323" data-name="Ellipse 323" class="coin4-cls-8" d="m2.71,27.22c.7-.3,1.15.8.45,1.08-.7.3-1.15-.8-.45-1.08Z"/>
                  <path id="Ellipse_324" data-name="Ellipse 324" class="coin4-cls-8" d="m5.7,27.17c.76-.01.76,1.18,0,1.17-.76.01-.76-1.18,0-1.17Z"/>
                  <path id="Ellipse_325" data-name="Ellipse 325" class="coin4-cls-8" d="m16.62,44.9c.11-.75,1.28-.56,1.15.18-.11.75-1.28.56-1.15-.18Z"/>
                  <path id="Ellipse_326" data-name="Ellipse 326" class="coin4-cls-8" d="m35.62,44.47c.76-.01.76,1.18,0,1.17-.76.01-.76-1.18,0-1.17Z"/>
                  <path id="Ellipse_327" data-name="Ellipse 327" class="coin4-cls-8" d="m47.13,24.5c.76-.01.76,1.18,0,1.17-.76.01-.76-1.18,0-1.17Z"/>
                  <path id="Ellipse_328" data-name="Ellipse 328" class="coin4-cls-8" d="m48.46,25.85c.76-.01.76,1.18,0,1.17-.76.01-.76-1.18,0-1.17Z"/>
                  <path id="Ellipse_329" data-name="Ellipse 329" class="coin4-cls-8" d="m49.8,27.2c.76-.01.76,1.18,0,1.17-.76.01-.76-1.18,0-1.17Z"/>
                  <path id="Ellipse_330" data-name="Ellipse 330" class="coin4-cls-8" d="m38.71,46.02c.11-.75,1.29-.56,1.15.19-.11.75-1.29.56-1.15-.19Z"/>
                  <path id="Ellipse_331" data-name="Ellipse 331" class="coin4-cls-8" d="m16.47,45.68c.76-.01.76,1.18,0,1.17-.76.01-.76-1.18,0-1.17Z"/>
                  <path id="Ellipse_332" data-name="Ellipse 332" class="coin4-cls-8" d="m15.64,46.96c.74-.15.96,1.02.21,1.15-.74.15-.96-1.02-.21-1.15Z"/>
                  <path id="Path_4055" data-name="Path 4055" class="coin4-cls-8" d="m14.96,44.26c-.76,0-.72-1.2.03-1.17.76,0,.73,1.2-.03,1.17Z"/>
                  <path id="Path_4056" data-name="Path 4056" class="coin4-cls-8" d="m14.2,45.51c-.76,0-.72-1.2.03-1.17.76,0,.72,1.2-.03,1.17Z"/>
                  <path id="Path_4057" data-name="Path 4057" class="coin4-cls-8" d="m13.45,46.76c-.76-.01-.72-1.2.03-1.17.76.01.72,1.2-.03,1.17Z"/>
                  <g id="Group_15292" data-name="Group 15292">
                    <path id="Path_4058" data-name="Path 4058" class="coin4-cls-15" d="m50.93,28.97c-1.67.01-3.34.01-5.01,0,0-.1.02-4.95.02-5.06.08,0,4.93.02,5.01.02,0,.11-.02,4.92-.02,5.04Zm0-.12l-.02-4.89.02.02-4.95.02.04-.04.02,4.95-.07-.07c1.65,0,3.3,0,4.95,0h0Z"/>
                  </g>
                  <g id="Group_15293" data-name="Group 15293">
                    <path id="Path_4059" data-name="Path 4059" class="coin4-cls-6" d="m16.24,3.86c.84,1.44,1.68,2.89,2.51,4.34-.09.05-4.3,2.46-4.39,2.51-.04-.07-2.45-4.29-2.49-4.36.07-.04,4.31-2.46,4.37-2.5h0Zm-.11.06l-4.22,2.46v-.03s2.5,4.27,2.5,4.27l-.06-.02,4.27-2.49-.02.09c-.83-1.43-1.65-2.85-2.47-4.29Z"/>
                  </g>
                  <g id="Group_15294" data-name="Group 15294">
                    <path id="Path_4060" data-name="Path 4060" class="coin4-cls-9" d="m1.79,23.95c1.67-.01,3.34-.01,5.01,0,0,.1-.02,4.95-.02,5.06-.08,0-4.93-.02-5.01-.02,0-.11.02-4.93.02-5.04Zm0,.12l.02,4.89-.02-.02,4.95-.02-.04.04-.02-4.95.07.07c-1.65,0-3.3,0-4.95,0h0Z"/>
                  </g>
                  <g id="Group_15295" data-name="Group 15295">
                    <path id="Path_4061" data-name="Path 4061" class="coin4-cls-6" d="m11.99,46.44c.83-1.45,1.66-2.9,2.5-4.34.09.05,4.28,2.5,4.37,2.55-.04.07-2.49,4.26-2.52,4.33-.1-.06-4.24-2.47-4.35-2.54Zm.11.06l4.24,2.43h-.03s2.46-4.29,2.46-4.29l.02.06-4.3-2.46.09-.02c-.82,1.44-1.64,2.86-2.48,4.28h0Z"/>
                  </g>
                  <g id="Group_15296" data-name="Group 15296">
                    <path id="Path_4062" data-name="Path 4062" class="coin4-cls-15" d="m36.52,48.93c-.84-1.44-1.68-2.89-2.51-4.34.09-.05,4.3-2.46,4.39-2.51.04.07,2.45,4.29,2.49,4.36-.07.04-4.31,2.46-4.37,2.5h0Zm.11-.06l4.22-2.46v.03s-2.5-4.27-2.5-4.27l.06.02-4.27,2.49.02-.09c.83,1.43,1.65,2.85,2.47,4.29Z"/>
                  </g>
                </g>
              </g>
            </g>
          </g>
        </g>
      </g>
    </g>
  </g>
</svg>