<svg xmlns="http://www.w3.org/2000/svg" xmlns:xlink="http://www.w3.org/1999/xlink" width="34.461" height="32.119" viewBox="0 0 34.461 32.119">
  <defs>
    <linearGradient id="linear-gradient" x1="0.007" y1="0.241" x2="0.984" y2="0.755" gradientUnits="objectBoundingBox">
      <stop offset="0" stop-color="#ce0000"/>
      <stop offset="1" stop-color="#900"/>
    </linearGradient>
    <linearGradient id="linear-gradient-2" x1="0.057" y1="0.267" x2="0.943" y2="0.733" gradientUnits="objectBoundingBox">
      <stop offset="0" stop-color="#ff4d4d"/>
      <stop offset="1" stop-color="#720000"/>
    </linearGradient>
    <linearGradient id="linear-gradient-3" x1="0.294" y1="0.019" x2="0.704" y2="0.974" gradientUnits="objectBoundingBox">
      <stop offset="0" stop-color="#c41010"/>
      <stop offset="1" stop-color="#820000"/>
    </linearGradient>
    <linearGradient id="linear-gradient-4" x1="0.144" y1="0.052" x2="0.857" y2="0.949" xlink:href="#linear-gradient"/>
    <linearGradient id="linear-gradient-5" x1="0.846" y1="1.044" x2="0.077" y2="-0.164" xlink:href="#linear-gradient"/>
    <linearGradient id="linear-gradient-7" x1="0.189" y1="0.109" x2="0.811" y2="0.891" xlink:href="#linear-gradient-2"/>
    <linearGradient id="linear-gradient-10" x1="0.121" y1="0.04" x2="0.932" y2="1.026" gradientUnits="objectBoundingBox">
      <stop offset="0" stop-color="#eaeaea"/>
      <stop offset="1" stop-color="#ab1a1a"/>
    </linearGradient>
    <linearGradient id="linear-gradient-11" x1="0.565" y1="0.668" x2="0.121" y2="-0.291" gradientUnits="objectBoundingBox">
      <stop offset="0" stop-color="#fff"/>
      <stop offset="1" stop-color="#fff"/>
    </linearGradient>
    <linearGradient id="linear-gradient-12" x1="0.007" y1="0.241" x2="0.984" y2="0.755" gradientUnits="objectBoundingBox">
      <stop offset="0" stop-color="#4d9600"/>
      <stop offset="1" stop-color="#336300"/>
    </linearGradient>
    <linearGradient id="linear-gradient-13" x1="0.057" y1="0.267" x2="0.943" y2="0.733" gradientUnits="objectBoundingBox">
      <stop offset="0" stop-color="#62aa17"/>
      <stop offset="1" stop-color="#2a5100"/>
    </linearGradient>
    <linearGradient id="linear-gradient-14" x1="0.293" y1="0.019" x2="0.704" y2="0.974" gradientUnits="objectBoundingBox">
      <stop offset="0" stop-color="#3a7000"/>
      <stop offset="1" stop-color="#2a5100"/>
    </linearGradient>
    <linearGradient id="linear-gradient-15" x1="0.144" y1="0.052" x2="0.857" y2="0.949" xlink:href="#linear-gradient-12"/>
    <linearGradient id="linear-gradient-16" x1="0.846" y1="1.044" x2="0.077" y2="-0.164" xlink:href="#linear-gradient-12"/>
    <linearGradient id="linear-gradient-18" x1="0.189" y1="0.109" x2="0.811" y2="0.891" xlink:href="#linear-gradient-13"/>
    <linearGradient id="linear-gradient-19" x1="0.144" y1="0.052" x2="0.857" y2="0.949" xlink:href="#linear-gradient-12"/>
    <linearGradient id="linear-gradient-21" x1="0.121" y1="0.04" x2="0.932" y2="1.026" gradientUnits="objectBoundingBox">
      <stop offset="0" stop-color="#fff"/>
      <stop offset="1" stop-color="#257c00"/>
    </linearGradient>
  </defs>
  <g id="Group_16163" data-name="Group 16163" transform="translate(-263.5 -1026.881)" opacity="0.94">
    <g id="Group_16161" data-name="Group 16161" transform="translate(263.5 1026.881)">
      <g id="Red_Chip" data-name="Red Chip" transform="translate(0 0)">
        <g id="Layer_2" data-name="Layer 2">
          <g id="Ñëîé_6" data-name="Ñëîé 6">
            <g id="Group_15299" data-name="Group 15299">
              <g id="Group_15298" data-name="Group 15298">
                <g id="Group_15290" data-name="Group 15290">
                  <path id="Path_4023" data-name="Path 4023" d="M25.9,12.95A12.937,12.937,0,0,1,12.95,25.9a13.11,13.11,0,0,1-1.373-.072A12.949,12.949,0,0,1,12.95,0a13.09,13.09,0,0,1,2.174.182A12.939,12.939,0,0,1,25.9,12.949Z" transform="translate(0 0)" fill="url(#linear-gradient)"/>
                  <path id="Path_4024" data-name="Path 4024" d="M25,8.215A12.952,12.952,0,1,0,11.576,25.837a13.11,13.11,0,0,0,1.373.072A12.957,12.957,0,0,0,25,8.215Zm-.015,8.523a12.6,12.6,0,0,1-12.042,8.838,12.834,12.834,0,0,1-1.338-.07A12.618,12.618,0,0,1,12.946.34a12.77,12.77,0,0,1,2.118.177,12.627,12.627,0,0,1,9.923,16.22Z" transform="translate(0 -0.01)" fill="url(#linear-gradient-2)"/>
                  <path id="Path_4025" data-name="Path 4025" d="M121.047,111.7c0,.319-.017.634-.048.945a9.262,9.262,0,0,1-.8,2.945,9.392,9.392,0,0,1-4.67,4.639,9.269,9.269,0,0,1-2.951.778q-.436.042-.883.042c-.319,0-.634-.017-.945-.048a9.311,9.311,0,0,1-4.524-1.72,9.318,9.318,0,0,1-3.837-6.7q-.042-.436-.042-.882a9.445,9.445,0,0,1,.048-.946,9.295,9.295,0,0,1,1.719-4.524,9.331,9.331,0,0,1,6.7-3.837q.436-.042.882-.042a9.316,9.316,0,0,1,5.47,1.767,9.329,9.329,0,0,1,3.838,6.7q.041.436.041.882Z" transform="translate(-98.749 -98.749)" fill="url(#linear-gradient-3)"/>
                  <g id="Group_15285" data-name="Group 15285" transform="translate(3.601 3.601)">
                    <path id="Path_4026" data-name="Path 4026" d="M344.778,102.387v.75a8.59,8.59,0,0,0-.946-.052,8.7,8.7,0,0,0-.882.045v-.749q.436-.042.882-.042A9.244,9.244,0,0,1,344.778,102.387Z" transform="translate(-334.483 -102.34)" fill="#efefef"/>
                    <path id="Path_4027" data-name="Path 4027" d="M216.03,126.27a8.5,8.5,0,0,0-1.585.909l-.375-.649a9.282,9.282,0,0,1,1.586-.91l.375.65Z" transform="translate(-210.138 -124.801)" fill="#efefef"/>
                    <path id="Path_4028" data-name="Path 4028" d="M127.941,212.955a8.568,8.568,0,0,0-.921,1.579l-.65-.375a9.283,9.283,0,0,1,.921-1.579Z" transform="translate(-125.524 -208.701)" fill="#efefef"/>
                    <path id="Path_4029" data-name="Path 4029" d="M103.086,342.076a8.687,8.687,0,0,0,.045.882h-.749q-.042-.436-.042-.882a9.447,9.447,0,0,1,.048-.946h.75A8.575,8.575,0,0,0,103.086,342.076Z" transform="translate(-102.34 -332.728)" fill="#efefef"/>
                    <path id="Path_4030" data-name="Path 4030" d="M127.16,467.854l-.649.375a9.311,9.311,0,0,1-.911-1.585l.65-.375a8.531,8.531,0,0,0,.91,1.585Z" transform="translate(-124.782 -453.464)" fill="#efefef"/>
                    <path id="Path_4031" data-name="Path 4031" d="M214.534,565.932l-.375.649a9.271,9.271,0,0,1-1.58-.921l.376-.65a8.506,8.506,0,0,0,1.579.922Z" transform="translate(-208.701 -548.73)" fill="#efefef"/>
                    <path id="Path_4032" data-name="Path 4032" d="M342.988,611.047v.749q-.436.042-.883.042c-.319,0-.634-.017-.945-.048v-.75a8.563,8.563,0,0,0,.945.052A8.706,8.706,0,0,0,342.988,611.047Z" transform="translate(-332.756 -593.14)" fill="#efefef"/>
                    <path id="Path_4033" data-name="Path 4033" d="M468.23,566.759a9.31,9.31,0,0,1-1.584.91l-.376-.65a8.511,8.511,0,0,0,1.585-.909l.375.649Z" transform="translate(-453.464 -549.791)" fill="#efefef"/>
                    <path id="Path_4034" data-name="Path 4034" d="M566.6,468.3a9.361,9.361,0,0,1-.921,1.58l-.65-.376a8.548,8.548,0,0,0,.922-1.579l.649.375Z" transform="translate(-548.749 -455.056)" fill="#efefef"/>
                    <path id="Path_4035" data-name="Path 4035" d="M611.837,343.832c0,.319-.017.634-.048.945h-.75a8.561,8.561,0,0,0,.052-.945,8.674,8.674,0,0,0-.045-.882h.75Q611.837,343.386,611.837,343.832Z" transform="translate(-593.14 -334.484)" fill="#efefef"/>
                    <path id="Path_4036" data-name="Path 4036" d="M567.64,215.654l-.649.376a8.5,8.5,0,0,0-.911-1.585l.65-.375a9.3,9.3,0,0,1,.91,1.585Z" transform="translate(-549.762 -210.139)" fill="#efefef"/>
                    <path id="Path_4037" data-name="Path 4037" d="M469.894,127.311l-.376.65a8.51,8.51,0,0,0-1.578-.922l.374-.649a9.16,9.16,0,0,1,1.58.921Z" transform="translate(-455.075 -125.544)" fill="#efefef"/>
                  </g>
                  <path id="Path_4038" data-name="Path 4038" d="M118.377,105.149a9.323,9.323,0,0,0-1.027-.86,9.332,9.332,0,0,0-5.47-1.767q-.447,0-.882.042a9.34,9.34,0,0,0-8.419,8.361c-.031.311-.048.627-.048.946q0,.447.042.882a9.335,9.335,0,0,0,2.614,5.643,9.3,9.3,0,0,1-2.8-5.825q-.042-.436-.042-.882a9.452,9.452,0,0,1,.047-.946,9.341,9.341,0,0,1,8.419-8.361q.436-.042.882-.042a9.33,9.33,0,0,1,6.679,2.809Z" transform="translate(-98.748 -98.739)" fill="#7a0909" opacity="0.93"/>
                  <path id="Path_4039" data-name="Path 4039" d="M140.736,132.133a8.6,8.6,0,0,1-7.721,8.558,8.7,8.7,0,0,1-.883.045,8.594,8.594,0,0,1-8.558-7.721,8.7,8.7,0,0,1-.045-.882,8.616,8.616,0,0,1,5.146-7.879h0a8.521,8.521,0,0,1,2.574-.678,8.7,8.7,0,0,1,.882-.045,8.594,8.594,0,0,1,8.558,7.72,8.69,8.69,0,0,1,.045.882Z" transform="translate(-119.183 -119.183)" fill="url(#linear-gradient-4)"/>
                  <path id="Path_4040" data-name="Path 4040" d="M140.736,132.133a8.6,8.6,0,0,1-7.721,8.558,8.7,8.7,0,0,1-.883.045,8.594,8.594,0,0,1-8.558-7.721,8.7,8.7,0,0,1-.045-.882,8.616,8.616,0,0,1,5.146-7.879h0a8.521,8.521,0,0,1,2.574-.678,8.7,8.7,0,0,1,.882-.045,8.594,8.594,0,0,1,8.558,7.72,8.69,8.69,0,0,1,.045.882Z" transform="translate(-119.183 -119.183)" fill="url(#linear-gradient-5)"/>
                  <path id="Path_4041" data-name="Path 4041" d="M140.736,132.133a8.6,8.6,0,0,1-7.721,8.558,8.7,8.7,0,0,1-.883.045,8.594,8.594,0,0,1-8.558-7.721,8.7,8.7,0,0,1-.045-.882,8.616,8.616,0,0,1,5.146-7.879h0a8.521,8.521,0,0,1,2.574-.678,8.7,8.7,0,0,1,.882-.045,8.594,8.594,0,0,1,8.558,7.72,8.69,8.69,0,0,1,.045.882Z" transform="translate(-119.183 -119.183)" fill="url(#linear-gradient-4)"/>
                  <path id="Path_4042" data-name="Path 4042" d="M140.691,131.26a8.6,8.6,0,0,0-8.558-7.72,8.686,8.686,0,0,0-.882.045,8.528,8.528,0,0,0-2.574.678h0a8.5,8.5,0,0,0-1.585.909,8.617,8.617,0,0,0-2.811,3.454,8.6,8.6,0,0,0-.75,3.516,8.685,8.685,0,0,0,.045.882,8.6,8.6,0,0,0,8.558,7.721,8.7,8.7,0,0,0,.883-.045,8.558,8.558,0,0,0,4.16-1.588,8.648,8.648,0,0,0,1.89-1.876,8.589,8.589,0,0,0,1.671-5.094,8.684,8.684,0,0,0-.045-.882Zm-.169,1.81a8.4,8.4,0,0,1-1.588,4.069,8.42,8.42,0,0,1-5.934,3.4c-.285.029-.574.044-.866.044a8.488,8.488,0,0,1-.927-.051,8.414,8.414,0,0,1-4.07-1.589,8.488,8.488,0,0,1-1.84-1.854,8.369,8.369,0,0,1-1.558-4.081,8.664,8.664,0,0,1-.044-.865,8.508,8.508,0,0,1,.051-.928,8.331,8.331,0,0,1,.685-2.521,8.449,8.449,0,0,1,2.757-3.388,8.309,8.309,0,0,1,1.555-.892h0a8.453,8.453,0,0,1,3.391-.71,8.524,8.524,0,0,1,.928.05,8.4,8.4,0,0,1,4.07,1.589,8.482,8.482,0,0,1,1.839,1.853,8.358,8.358,0,0,1,1.558,4.081c.029.284.044.574.044.866a8.5,8.5,0,0,1-.051.927Z" transform="translate(-119.183 -119.193)" fill="url(#linear-gradient-7)"/>
                  <path id="Path_4043" data-name="Path 4043" d="M145.069,136.619a8.5,8.5,0,0,1-.051.927,8.4,8.4,0,0,1-1.588,4.069,8.42,8.42,0,0,1-5.934,3.4c-.285.029-.574.044-.866.044a8.492,8.492,0,0,1-.927-.051,8.415,8.415,0,0,1-4.07-1.589,8.489,8.489,0,0,1-1.84-1.854,8.369,8.369,0,0,1-1.558-4.081,8.664,8.664,0,0,1-.044-.865,8.507,8.507,0,0,1,.051-.928,8.33,8.33,0,0,1,.685-2.522,8.449,8.449,0,0,1,2.757-3.388,8.31,8.31,0,0,1,1.555-.892h0a8.454,8.454,0,0,1,3.391-.71,8.524,8.524,0,0,1,.928.05,8.4,8.4,0,0,1,4.069,1.589,8.483,8.483,0,0,1,1.839,1.853,8.36,8.36,0,0,1,1.558,4.081c.028.284.044.574.044.866Z" transform="translate(-123.679 -123.67)" fill="url(#linear-gradient-4)"/>
                  <path id="Path_4044" data-name="Path 4044" d="M140.64,132.734q0,.445-.044.878a8.642,8.642,0,0,1-1.6,4.2,8.734,8.734,0,0,1-3.483,2.842,8.606,8.606,0,0,1-2.741.722q-.4.039-.82.039-.445,0-.878-.044a8.654,8.654,0,0,1-4.2-1.6,8.659,8.659,0,0,1-3.565-6.224q-.039-.4-.039-.82,0-.445.044-.879a8.677,8.677,0,0,1,7.821-7.767q.4-.039.82-.039a8.67,8.67,0,0,1,3.614.786,8.513,8.513,0,0,1,1.467.855,8.666,8.666,0,0,1,3.565,6.223q.037.4.038.819Z" transform="translate(-118.932 -119.685)" fill="#740707" opacity="0.98"/>
                  <path id="Path_4045" data-name="Path 4045" d="M145.069,136.6a8.435,8.435,0,0,1-7.574,8.4,8.568,8.568,0,0,1-.866.044,8.43,8.43,0,0,1-8.395-7.573,8.572,8.572,0,0,1-.044-.866,8.436,8.436,0,0,1,3.493-6.838,8.342,8.342,0,0,1,1.555-.892h0a8.373,8.373,0,0,1,2.525-.666,8.577,8.577,0,0,1,.866-.044,8.432,8.432,0,0,1,3.449.735,8.351,8.351,0,0,1,1.548.9,8.459,8.459,0,0,1,1.839,1.853,8.363,8.363,0,0,1,1.559,4.081,8.577,8.577,0,0,1,.044.866Z" transform="translate(-123.679 -123.65)" fill="url(#linear-gradient-4)"/>
                  <g id="Group_15286" data-name="Group 15286" transform="translate(0.806)">
                    <path id="Path_4046" data-name="Path 4046" d="M310.858.182V3.139a10.015,10.015,0,0,0-4.338,0V.18a13.1,13.1,0,0,1,4.338,0Z" transform="translate(-296.54 0)" fill="#fff"/>
                    <path id="Path_4047" data-name="Path 4047" d="M27.751,134.56a10.013,10.013,0,0,0-2.171,3.755L23.307,137h0l-.287-.165a13.022,13.022,0,0,1,.669-1.5c.039-.075.08-.15.121-.224s.09-.161.136-.241.093-.16.141-.238.1-.157.146-.235l.149-.23c.043-.065.088-.13.132-.194.016-.025.033-.048.052-.073.027-.04.056-.08.085-.12s.047-.065.07-.1l.01-.014c.022-.031.045-.062.07-.093.043-.057.087-.115.131-.171.083-.11.171-.219.259-.327l0,0,.288.166,2.271,1.311Z" transform="translate(-23.016 -128.397)" fill="#fff"/>
                    <path id="Path_4048" data-name="Path 4048" d="M27.629,457.687,25.358,459l-.29.167h0c-.028-.033-.055-.067-.081-.1s-.054-.067-.081-.1c-.056-.07-.112-.143-.167-.214s-.111-.147-.165-.223c-.066-.091-.132-.183-.2-.277q-.289-.421-.548-.869a13.11,13.11,0,0,1-.93-1.973l.287-.166,2.275-1.313a9.993,9.993,0,0,0,2.167,3.757Z" transform="translate(-22.9 -437.957)" fill="#fff"/>
                    <path id="Path_4049" data-name="Path 4049" d="M310.578,646.832v2.957c-.088.015-.176.029-.265.042l-.212.03-.125.015-.2.022c-.088.01-.177.018-.266.025l-.189.014-.148.01c-.078,0-.156.008-.234.012s-.152.006-.228.007a.355.355,0,0,1-.043,0c-.085,0-.17,0-.256,0s-.185,0-.277,0c-.065,0-.131,0-.2-.006l-.046,0c-.029,0-.058,0-.087,0-.065,0-.13-.006-.195-.01-.083,0-.164-.01-.246-.017l-.129-.011-.2-.019c-.078-.008-.157-.017-.236-.028l-.069-.008c-.073-.009-.148-.02-.222-.031l-.015,0q-.124-.018-.246-.039l-.012,0V646.83a10.013,10.013,0,0,0,4.338,0Z" transform="translate(-296.27 -624.07)" fill="#fff"/>
                    <path id="Path_4050" data-name="Path 4050" d="M583.293,455.649a.057.057,0,0,1-.006.015c-.03.078-.06.157-.091.236-.056.143-.116.284-.178.425l-.01.022c-.028.063-.056.126-.085.188s-.043.094-.065.141c-.033.07-.067.141-.1.212s-.061.122-.093.183q-.142.274-.3.543-.2.349-.421.679l-.007.012a.419.419,0,0,1-.025.036c-.032.049-.065.1-.1.146-.019.029-.038.057-.058.085l-.061.085a.057.057,0,0,1-.01.013c-.025.036-.051.072-.077.107l-.078.106c-.028.038-.055.075-.084.112l-.086.111c-.077.1-.157.2-.238.3l0,0-.3-.17-2.264-1.307a10.005,10.005,0,0,0,2.171-3.756L583,455.479l.3.17Z" transform="translate(-559.007 -438.189)" fill="#fff"/>
                    <path id="Path_4051" data-name="Path 4051" d="M583.508,137.067l-.293.169-2.269,1.31a10.008,10.008,0,0,0-2.166-3.757l2.265-1.308.294-.169,0,0q.255.309.494.638.08.109.157.221l.01.014q.3.441.577.912a13.022,13.022,0,0,1,.93,1.973Z" transform="translate(-559.22 -128.619)" fill="#fff"/>
                  </g>
                  <g id="Group_15287" data-name="Group 15287" transform="translate(0.805)">
                    <path id="Path_4052" data-name="Path 4052" d="M46.88,17.29a12.525,12.525,0,0,1-1.737,3.2q-.21.281-.436.55l.3.17c.082-.1.162-.2.241-.3l.086-.111.084-.112.078-.106c.026-.035.052-.071.077-.107a.071.071,0,0,0,.01-.013l.061-.085c.02-.028.039-.056.058-.085.034-.048.067-.1.1-.146.009-.012.017-.024.025-.036l.007-.012c.037-.055.073-.11.109-.167q.107-.167.21-.339l.1-.173.007-.013c.035-.062.071-.125.106-.186s.076-.138.113-.207c.025-.046.048-.091.071-.137s.062-.121.093-.183.07-.141.1-.212c.023-.047.045-.093.065-.141s.057-.125.085-.188l.01-.022c.061-.141.121-.281.178-.425.031-.078.061-.157.091-.236a.051.051,0,0,0,.006-.015l-.3-.17ZM46.25,6.475q-.272-.471-.577-.912l-.01-.014c-.052-.075-.1-.148-.157-.221l-.12-.163q-.183-.242-.376-.473l-.294.169a12.566,12.566,0,0,1,2.059,3.464q.058.145.111.292l.293-.169a13.082,13.082,0,0,0-.93-1.973ZM25.226,5.006c.043-.052.085-.1.128-.155l-.288-.166c-.033.038-.064.075-.094.113-.056.07-.113.141-.168.212s-.088.114-.131.171c-.025.031-.048.062-.07.093l-.01.014c-.024.032-.048.065-.07.1s-.058.08-.085.12c-.018.025-.035.048-.052.073q-.067.1-.132.194c-.05.076-.1.153-.149.23s-.1.156-.146.235-.094.158-.141.238-.092.16-.136.241-.082.149-.121.224a13.05,13.05,0,0,0-.669,1.5l.287.165a12.543,12.543,0,0,1,2.044-3.6ZM23.177,17.285l-.287.166a13.151,13.151,0,0,0,.93,1.973q.259.448.548.869c.064.093.129.186.2.277.054.075.11.149.165.223s.11.144.167.214l.081.1.082.1.29-.167a12.649,12.649,0,0,1-1.955-3.206q-.114-.271-.216-.55ZM35.034,0A12.978,12.978,0,0,0,32.87.18V.515l.052-.009a12.781,12.781,0,0,1,4.227,0l.06.011V.182A13.024,13.024,0,0,0,35.035,0Zm0,25.566a12.832,12.832,0,0,1-1.338-.07q-.42-.044-.831-.116v.337l.012,0,.246.039.015,0c.074.012.148.022.222.031l.069.008c.078.011.157.02.236.028l.2.019.129.012.246.017.195.01c.029,0,.058,0,.087,0l.046,0c.065,0,.131,0,.2.006.093,0,.185,0,.277,0s.171,0,.256,0h.043c.076,0,.152,0,.228-.007s.156-.007.234-.012l.148-.01.189-.014c.089-.007.178-.015.266-.025l.2-.022.125-.015c.071-.009.141-.019.212-.03.089-.013.178-.027.265-.042V25.38a12.612,12.612,0,0,1-2.168.186Z" transform="translate(-22.89 0)" fill="url(#linear-gradient-10)"/>
                  </g>
                  <g id="Group_15289" data-name="Group 15289" opacity="0.1">
                    <g id="Group_15288" data-name="Group 15288">
                      <path id="Path_4053" data-name="Path 4053" d="M23.971,6.149l-.282,0A21.917,21.917,0,0,0,2.9,21.12,12.944,12.944,0,0,1,12.95,0a13.09,13.09,0,0,1,2.174.182,12.978,12.978,0,0,1,8.848,5.967Z" transform="translate(0 0)" fill="url(#linear-gradient-11)"/>
                    </g>
                  </g>
                </g>
                <g id="Group_15297" data-name="Group 15297" transform="translate(0.811 1.902)">
                  <g id="Group_15291" data-name="Group 15291" transform="translate(15.9 0.014)">
                    <path id="Path_4054" data-name="Path 4054" d="M478.274,55.678c-.4.706-.809,1.412-1.217,2.111l-.016.028-.028-.016-2.1-1.228-.019-.011.011-.018,1.228-2.1.005-.009.009.005,2.1,1.228.026.015Zm-.052-.03-2.089-1.194.014,0-1.209,2.115-.008-.029,2.115,1.209-.044.012c.4-.7.8-1.391,1.2-2.083l.015-.026Z" transform="translate(-474.89 -54.43)" fill="#760b0b"/>
                  </g>
                  <ellipse id="Ellipse_315" data-name="Ellipse 315" cx="0.287" cy="0.287" rx="0.287" ry="0.287" transform="translate(17.286 1.411)" fill="#fff"/>
                  <ellipse id="Ellipse_316" data-name="Ellipse 316" cx="0.287" cy="0.287" rx="0.287" ry="0.287" transform="translate(5.486 1.146)" fill="#fff"/>
                  <ellipse id="Ellipse_317" data-name="Ellipse 317" cx="0.287" cy="0.287" rx="0.287" ry="0.287" transform="translate(6.59 0.48)" fill="#fff"/>
                  <ellipse id="Ellipse_318" data-name="Ellipse 318" cx="0.287" cy="0.287" rx="0.287" ry="0.287" transform="matrix(0.158, -0.987, 0.987, 0.158, 6.348, 1.937)" fill="#fff"/>
                  <ellipse id="Ellipse_319" data-name="Ellipse 319" cx="0.287" cy="0.287" rx="0.287" ry="0.287" transform="translate(7.302 2.231) rotate(-86.17)" fill="#fff"/>
                  <ellipse id="Ellipse_320" data-name="Ellipse 320" cx="0.287" cy="0.287" rx="0.287" ry="0.287" transform="translate(6.082 2.475) rotate(-22.62)" fill="#fff"/>
                  <ellipse id="Ellipse_321" data-name="Ellipse 321" cx="0.287" cy="0.287" rx="0.287" ry="0.287" transform="translate(0.226 10.674) rotate(-76.76)" fill="#fff"/>
                  <ellipse id="Ellipse_322" data-name="Ellipse 322" cx="0.287" cy="0.287" rx="0.287" ry="0.287" transform="translate(1.644 10.172)" fill="#fff"/>
                  <ellipse id="Ellipse_323" data-name="Ellipse 323" cx="0.287" cy="0.287" rx="0.287" ry="0.287" transform="translate(0.196 11.614) rotate(-22.62)" fill="#fff"/>
                  <ellipse id="Ellipse_324" data-name="Ellipse 324" cx="0.287" cy="0.287" rx="0.287" ry="0.287" transform="translate(1.644 11.482)" fill="#fff"/>
                  <ellipse id="Ellipse_325" data-name="Ellipse 325" cx="0.287" cy="0.287" rx="0.287" ry="0.287" transform="matrix(0.158, -0.987, 0.987, 0.158, 7.265, 20.498)" fill="#fff"/>
                  <ellipse id="Ellipse_326" data-name="Ellipse 326" cx="0.287" cy="0.287" rx="0.287" ry="0.287" transform="translate(16.383 20.001)" fill="#fff"/>
                  <ellipse id="Ellipse_327" data-name="Ellipse 327" cx="0.287" cy="0.287" rx="0.287" ry="0.287" transform="translate(22.05 10.165)" fill="#fff"/>
                  <ellipse id="Ellipse_328" data-name="Ellipse 328" cx="0.287" cy="0.287" rx="0.287" ry="0.287" transform="translate(22.707 10.829)" fill="#fff"/>
                  <ellipse id="Ellipse_329" data-name="Ellipse 329" cx="0.287" cy="0.287" rx="0.287" ry="0.287" transform="translate(23.364 11.493)" fill="#fff"/>
                  <ellipse id="Ellipse_330" data-name="Ellipse 330" cx="0.287" cy="0.287" rx="0.287" ry="0.287" transform="translate(18.148 21.047) rotate(-80.78)" fill="#fff"/>
                  <ellipse id="Ellipse_331" data-name="Ellipse 331" cx="0.287" cy="0.287" rx="0.287" ry="0.287" transform="translate(6.951 20.596)" fill="#fff"/>
                  <ellipse id="Ellipse_332" data-name="Ellipse 332" cx="0.287" cy="0.287" rx="0.287" ry="0.287" transform="matrix(0.983, -0.182, 0.182, 0.983, 6.546, 21.277)" fill="#fff"/>
                  <path id="Path_4055" data-name="Path 4055" d="M199.869,603.813a.287.287,0,1,1,.294-.281A.287.287,0,0,1,199.869,603.813Z" transform="translate(-193.376 -583.913)" fill="#fff"/>
                  <path id="Path_4056" data-name="Path 4056" d="M189.349,621.273a.287.287,0,1,1,.294-.281A.287.287,0,0,1,189.349,621.273Z" transform="translate(-183.226 -600.759)" fill="#fff"/>
                  <path id="Path_4057" data-name="Path 4057" d="M178.829,638.743a.287.287,0,1,1,.294-.281A.287.287,0,0,1,178.829,638.743Z" transform="translate(-173.076 -617.614)" fill="#fff"/>
                  <g id="Group_15292" data-name="Group 15292" transform="translate(21.744 9.877)">
                    <path id="Path_4058" data-name="Path 4058" d="M643.458,337.218c-.812,0-1.627.006-2.436,0h-.032v-.032l.011-2.437v-.022h.022l2.437.011h.01v.01l-.01,2.437v.03Zm0-.06-.011-2.407.011.011-2.437.011.021-.021.011,2.437-.032-.032c.8,0,1.6,0,2.407,0h.03Z" transform="translate(-640.99 -334.73)" fill="#730606"/>
                  </g>
                  <g id="Group_15293" data-name="Group 15293" transform="translate(4.977)">
                    <path id="Path_4059" data-name="Path 4059" d="M166.621,54.04c.41.7.818,1.406,1.22,2.109l.016.028-.028.016L165.714,57.4l-.019.011-.011-.018-1.209-2.115-.005-.009.009-.005,2.115-1.209.026-.015Zm-.052.03-2.079,1.213,0-.014,1.228,2.1-.029-.008,2.1-1.228-.012.044c-.406-.695-.8-1.387-1.2-2.085l-.015-.026Z" transform="translate(-164.47 -54.04)" fill="#740606"/>
                  </g>
                  <g id="Group_15294" data-name="Group 15294" transform="translate(0 9.891)">
                    <path id="Path_4060" data-name="Path 4060" d="M23.051,335.144c.812,0,1.627-.006,2.436,0h.032v.032l-.011,2.437v.021h-.021l-2.437-.011H23.04v-.011l.011-2.437v-.03Zm0,.06.011,2.407-.011-.011,2.437-.01-.021.021-.011-2.437.032.032c-.8,0-1.6,0-2.407,0h-.03Z" transform="translate(-23.04 -335.139)" fill="#740707"/>
                  </g>
                  <g id="Group_15295" data-name="Group 15295" transform="translate(5.034 18.83)">
                    <path id="Path_4061" data-name="Path 4061" d="M166.09,591.309c.4-.706.809-1.412,1.217-2.111l.016-.028.027.016,2.1,1.228.019.011-.011.018-1.228,2.1-.005.009-.009-.005-2.1-1.228-.026-.015Zm.052.03,2.089,1.194-.014,0,1.209-2.115.008.029-2.116-1.209.044-.011c-.4.7-.8,1.391-1.2,2.083l-.015.026Z" transform="translate(-166.09 -589.17)" fill="#740606"/>
                  </g>
                  <g id="Group_15296" data-name="Group 15296" transform="translate(15.88 18.824)">
                    <path id="Path_4062" data-name="Path 4062" d="M475.566,592.372c-.41-.7-.818-1.406-1.22-2.109l-.016-.028.028-.016,2.116-1.209.019-.011.011.018,1.209,2.115.005.009-.009.005-2.116,1.209-.026.015Zm.052-.03,2.079-1.213,0,.014-1.228-2.1.029.008-2.1,1.228.012-.044c.406.7.8,1.388,1.2,2.085l.015.026Z" transform="translate(-474.33 -589)" fill="#730606"/>
                  </g>
                </g>
              </g>
            </g>
          </g>
        </g>
      </g>
    </g>
    <g id="Group_16162" data-name="Group 16162" transform="translate(272.061 1033.1)">
      <g id="Group_15395" data-name="Group 15395" transform="translate(0 0)">
        <g id="Green_Chip" data-name="Green Chip" transform="translate(0 0)">
          <g id="Layer_2-2" data-name="Layer 2" transform="translate(0 0)">
            <g id="Ñëîé_6-2" data-name="Ñëîé 6">
              <g id="Group_15283" data-name="Group 15283">
                <g id="Group_15282" data-name="Group 15282">
                  <g id="Group_15274" data-name="Group 15274">
                    <path id="Path_3961" data-name="Path 3961" d="M25.99,12.95A12.937,12.937,0,0,1,13.04,25.9a13.11,13.11,0,0,1-1.373-.072A12.949,12.949,0,0,1,13.04,0a13.09,13.09,0,0,1,2.174.182A12.939,12.939,0,0,1,25.99,12.949Z" transform="translate(-0.09 0)" fill="url(#linear-gradient-12)"/>
                    <path id="Path_3962" data-name="Path 3962" d="M25.093,8.215A12.952,12.952,0,1,0,11.666,25.837a13.109,13.109,0,0,0,1.373.072A12.957,12.957,0,0,0,25.093,8.215Zm-.015,8.523a12.6,12.6,0,0,1-12.042,8.838,12.834,12.834,0,0,1-1.338-.07A12.618,12.618,0,0,1,13.036.34a12.77,12.77,0,0,1,2.118.177,12.627,12.627,0,0,1,9.923,16.22Z" transform="translate(-0.09 -0.01)" fill="url(#linear-gradient-13)"/>
                    <path id="Path_3963" data-name="Path 3963" d="M121.147,111.7c0,.319-.017.634-.048.945a9.26,9.26,0,0,1-.8,2.945,9.392,9.392,0,0,1-4.67,4.639,9.269,9.269,0,0,1-2.951.778q-.436.042-.882.042c-.319,0-.634-.017-.945-.048a9.311,9.311,0,0,1-4.524-1.72,9.317,9.317,0,0,1-3.837-6.7q-.042-.436-.042-.882c0-.319.017-.635.048-.946a9.294,9.294,0,0,1,1.719-4.524,9.331,9.331,0,0,1,6.7-3.837q.436-.042.882-.042a9.317,9.317,0,0,1,5.47,1.767,9.329,9.329,0,0,1,3.838,6.7q.041.436.041.882Z" transform="translate(-98.848 -98.749)" fill="url(#linear-gradient-14)"/>
                    <g id="Group_15268" data-name="Group 15268" transform="translate(3.601 3.601)">
                      <path id="Path_3964" data-name="Path 3964" d="M344.868,102.387v.75a8.589,8.589,0,0,0-.946-.052,8.7,8.7,0,0,0-.882.045v-.749q.436-.042.882-.042A9.244,9.244,0,0,1,344.868,102.387Z" transform="translate(-334.573 -102.34)" fill="#efefef"/>
                      <path id="Path_3965" data-name="Path 3965" d="M216.11,126.27a8.514,8.514,0,0,0-1.586.909l-.375-.649a9.28,9.28,0,0,1,1.586-.91l.375.65Z" transform="translate(-210.219 -124.801)" fill="#efefef"/>
                      <path id="Path_3966" data-name="Path 3966" d="M128.031,212.955a8.566,8.566,0,0,0-.921,1.579l-.65-.375a9.283,9.283,0,0,1,.921-1.579Z" transform="translate(-125.614 -208.701)" fill="#efefef"/>
                      <path id="Path_3967" data-name="Path 3967" d="M103.176,342.076a8.689,8.689,0,0,0,.045.882h-.749q-.042-.436-.042-.882c0-.319.017-.635.048-.946h.75A8.575,8.575,0,0,0,103.176,342.076Z" transform="translate(-102.43 -332.728)" fill="#efefef"/>
                      <path id="Path_3968" data-name="Path 3968" d="M127.25,467.854l-.649.375a9.309,9.309,0,0,1-.911-1.585l.65-.375A8.517,8.517,0,0,0,127.25,467.854Z" transform="translate(-124.872 -453.464)" fill="#efefef"/>
                      <path id="Path_3969" data-name="Path 3969" d="M214.624,565.932l-.375.649a9.269,9.269,0,0,1-1.58-.921l.376-.65a8.507,8.507,0,0,0,1.579.922Z" transform="translate(-208.791 -548.73)" fill="#efefef"/>
                      <path id="Path_3970" data-name="Path 3970" d="M343.087,611.047v.749q-.436.042-.882.042c-.319,0-.634-.017-.945-.048v-.75a8.56,8.56,0,0,0,.945.052A8.691,8.691,0,0,0,343.087,611.047Z" transform="translate(-332.856 -593.14)" fill="#efefef"/>
                      <path id="Path_3971" data-name="Path 3971" d="M468.32,566.759a9.31,9.31,0,0,1-1.585.91l-.376-.65a8.511,8.511,0,0,0,1.585-.909l.375.649Z" transform="translate(-453.554 -549.791)" fill="#efefef"/>
                      <path id="Path_3972" data-name="Path 3972" d="M566.691,468.3a9.361,9.361,0,0,1-.921,1.58l-.65-.376a8.541,8.541,0,0,0,.922-1.579l.649.375Z" transform="translate(-548.839 -455.056)" fill="#efefef"/>
                      <path id="Path_3973" data-name="Path 3973" d="M611.927,343.832c0,.319-.016.634-.047.945h-.75a8.546,8.546,0,0,0,.052-.945,8.674,8.674,0,0,0-.045-.882h.75Q611.927,343.386,611.927,343.832Z" transform="translate(-593.23 -334.484)" fill="#efefef"/>
                      <path id="Path_3974" data-name="Path 3974" d="M567.72,215.654l-.649.376a8.5,8.5,0,0,0-.911-1.585l.65-.375a9.306,9.306,0,0,1,.91,1.585Z" transform="translate(-549.842 -210.139)" fill="#efefef"/>
                      <path id="Path_3975" data-name="Path 3975" d="M469.984,127.311l-.376.65a8.51,8.51,0,0,0-1.578-.922l.374-.649a9.157,9.157,0,0,1,1.58.921Z" transform="translate(-455.165 -125.544)" fill="#efefef"/>
                    </g>
                    <path id="Path_3976" data-name="Path 3976" d="M118.467,105.149a9.321,9.321,0,0,0-1.027-.86,9.332,9.332,0,0,0-5.47-1.767q-.447,0-.882.042a9.34,9.34,0,0,0-8.419,8.361c-.031.311-.047.627-.047.946q0,.447.042.882a9.335,9.335,0,0,0,2.614,5.643,9.3,9.3,0,0,1-2.8-5.825q-.042-.436-.042-.882c0-.319.017-.635.048-.946a9.294,9.294,0,0,1,1.719-4.524,9.331,9.331,0,0,1,6.7-3.837q.436-.042.882-.042a9.33,9.33,0,0,1,6.679,2.809Z" transform="translate(-98.838 -98.739)" fill="#274b01"/>
                    <path id="Path_3977" data-name="Path 3977" d="M140.826,132.133a8.6,8.6,0,0,1-7.721,8.558,8.7,8.7,0,0,1-.882.045,8.594,8.594,0,0,1-8.558-7.721,8.689,8.689,0,0,1-.045-.882,8.615,8.615,0,0,1,5.146-7.879h0a8.521,8.521,0,0,1,2.574-.678,8.7,8.7,0,0,1,.882-.045,8.594,8.594,0,0,1,8.558,7.72,8.69,8.69,0,0,1,.045.882Z" transform="translate(-119.273 -119.183)" fill="url(#linear-gradient-15)"/>
                    <path id="Path_3978" data-name="Path 3978" d="M140.826,132.133a8.6,8.6,0,0,1-7.721,8.558,8.7,8.7,0,0,1-.882.045,8.594,8.594,0,0,1-8.558-7.721,8.689,8.689,0,0,1-.045-.882,8.615,8.615,0,0,1,5.146-7.879h0a8.521,8.521,0,0,1,2.574-.678,8.7,8.7,0,0,1,.882-.045,8.594,8.594,0,0,1,8.558,7.72,8.69,8.69,0,0,1,.045.882Z" transform="translate(-119.273 -119.183)" fill="url(#linear-gradient-16)"/>
                    <path id="Path_3979" data-name="Path 3979" d="M140.826,132.133a8.6,8.6,0,0,1-7.721,8.558,8.7,8.7,0,0,1-.882.045,8.594,8.594,0,0,1-8.558-7.721,8.689,8.689,0,0,1-.045-.882,8.615,8.615,0,0,1,5.146-7.879h0a8.521,8.521,0,0,1,2.574-.678,8.7,8.7,0,0,1,.882-.045,8.594,8.594,0,0,1,8.558,7.72,8.69,8.69,0,0,1,.045.882Z" transform="translate(-119.273 -119.183)" fill="url(#linear-gradient-15)"/>
                    <path id="Path_3980" data-name="Path 3980" d="M140.772,131.26a8.6,8.6,0,0,0-8.558-7.72,8.686,8.686,0,0,0-.882.045,8.529,8.529,0,0,0-2.574.678h0a8.511,8.511,0,0,0-1.586.909,8.619,8.619,0,0,0-2.811,3.454,8.6,8.6,0,0,0-.75,3.516,8.685,8.685,0,0,0,.045.882,8.6,8.6,0,0,0,8.558,7.721,8.685,8.685,0,0,0,.882-.045,8.559,8.559,0,0,0,4.16-1.588,8.648,8.648,0,0,0,1.89-1.876,8.59,8.59,0,0,0,1.671-5.094,8.7,8.7,0,0,0-.045-.882Zm-.169,1.81a8.4,8.4,0,0,1-1.588,4.069,8.42,8.42,0,0,1-5.934,3.4c-.285.029-.574.044-.866.044a8.489,8.489,0,0,1-.927-.051,8.414,8.414,0,0,1-4.07-1.589,8.488,8.488,0,0,1-1.84-1.854,8.369,8.369,0,0,1-1.558-4.081,8.664,8.664,0,0,1-.044-.865,8.5,8.5,0,0,1,.051-.928,8.33,8.33,0,0,1,.685-2.521,8.449,8.449,0,0,1,2.757-3.388,8.31,8.31,0,0,1,1.555-.892h0a8.454,8.454,0,0,1,3.391-.71,8.525,8.525,0,0,1,.928.05,8.4,8.4,0,0,1,4.069,1.589,8.482,8.482,0,0,1,1.839,1.853,8.359,8.359,0,0,1,1.558,4.081c.029.284.044.574.044.866a8.5,8.5,0,0,1-.051.927Z" transform="translate(-119.264 -119.193)" fill="url(#linear-gradient-18)"/>
                    <path id="Path_3981" data-name="Path 3981" d="M145.159,136.619a8.5,8.5,0,0,1-.051.927,8.4,8.4,0,0,1-1.588,4.069,8.42,8.42,0,0,1-5.934,3.4c-.285.029-.574.044-.866.044a8.492,8.492,0,0,1-.927-.051,8.415,8.415,0,0,1-4.07-1.589,8.49,8.49,0,0,1-1.84-1.854,8.369,8.369,0,0,1-1.558-4.081c-.028-.284-.044-.573-.044-.865a8.507,8.507,0,0,1,.051-.928,8.331,8.331,0,0,1,.685-2.522,8.449,8.449,0,0,1,2.757-3.388,8.308,8.308,0,0,1,1.555-.892h0a8.454,8.454,0,0,1,3.391-.71,8.524,8.524,0,0,1,.928.05,8.4,8.4,0,0,1,4.069,1.589,8.482,8.482,0,0,1,1.839,1.853,8.359,8.359,0,0,1,1.558,4.081c.028.284.044.574.044.866Z" transform="translate(-123.769 -123.67)" fill="url(#linear-gradient-19)"/>
                    <path id="Path_3982" data-name="Path 3982" d="M140.73,132.734q0,.445-.044.878a8.642,8.642,0,0,1-1.6,4.2,8.734,8.734,0,0,1-3.483,2.842,8.607,8.607,0,0,1-2.741.722q-.4.039-.82.039-.445,0-.878-.044a8.655,8.655,0,0,1-4.2-1.6,8.659,8.659,0,0,1-3.565-6.224q-.039-.4-.039-.82,0-.445.044-.879a8.678,8.678,0,0,1,7.822-7.767q.4-.039.82-.039a8.67,8.67,0,0,1,3.614.786,8.512,8.512,0,0,1,1.467.855,8.666,8.666,0,0,1,3.565,6.223q.037.4.038.819Z" transform="translate(-119.022 -119.685)" fill="#264702" opacity="0.86"/>
                    <path id="Path_3983" data-name="Path 3983" d="M145.159,136.6a8.4,8.4,0,0,1-1.639,5,8.485,8.485,0,0,1-1.854,1.84,8.4,8.4,0,0,1-4.081,1.558,8.569,8.569,0,0,1-.866.044,8.43,8.43,0,0,1-8.395-7.573,8.572,8.572,0,0,1-.044-.866,8.436,8.436,0,0,1,3.493-6.838,8.34,8.34,0,0,1,1.555-.892h0a8.372,8.372,0,0,1,2.525-.666,8.576,8.576,0,0,1,.866-.044,8.431,8.431,0,0,1,3.449.735,8.35,8.35,0,0,1,1.548.9,8.459,8.459,0,0,1,1.839,1.853,8.362,8.362,0,0,1,1.558,4.081,8.568,8.568,0,0,1,.044.866Z" transform="translate(-123.769 -123.65)" fill="url(#linear-gradient-19)"/>
                    <g id="Group_15269" data-name="Group 15269" transform="translate(0.806)">
                      <path id="Path_3984" data-name="Path 3984" d="M310.948.182V3.139a10.016,10.016,0,0,0-4.338,0V.18a13.1,13.1,0,0,1,4.338,0Z" transform="translate(-296.63 0)" fill="#fff"/>
                      <path id="Path_3985" data-name="Path 3985" d="M27.841,134.56a10.013,10.013,0,0,0-2.171,3.755L23.4,137h0l-.287-.165a13.022,13.022,0,0,1,.669-1.5c.039-.075.08-.15.121-.224s.09-.161.136-.241.093-.16.141-.238.1-.157.146-.235l.149-.23c.043-.065.088-.13.132-.194.017-.025.033-.048.052-.073.027-.04.056-.08.085-.12s.047-.065.07-.1l.01-.014c.022-.031.045-.062.07-.093.043-.057.087-.115.131-.171.083-.11.171-.219.259-.327l0,0,.288.166,2.271,1.311Z" transform="translate(-23.106 -128.397)" fill="#fff"/>
                      <path id="Path_3986" data-name="Path 3986" d="M27.719,457.687,25.448,459l-.29.167h0c-.028-.033-.055-.067-.081-.1s-.054-.067-.081-.1c-.056-.07-.112-.143-.167-.214s-.111-.147-.165-.223c-.066-.091-.132-.183-.2-.277q-.289-.421-.548-.869a13.11,13.11,0,0,1-.93-1.973l.287-.166,2.275-1.313a9.993,9.993,0,0,0,2.167,3.757Z" transform="translate(-22.99 -437.957)" fill="#fff"/>
                      <path id="Path_3987" data-name="Path 3987" d="M310.668,646.832v2.957c-.088.015-.176.029-.265.042l-.212.03-.125.015-.2.022c-.088.01-.177.018-.266.025l-.189.014-.148.01c-.078,0-.155.008-.234.012s-.152.006-.228.007a.354.354,0,0,1-.043,0c-.085,0-.17,0-.256,0s-.185,0-.277,0c-.066,0-.131,0-.2-.006l-.046,0c-.029,0-.058,0-.087,0-.065,0-.13-.006-.195-.01-.083,0-.164-.01-.246-.017l-.129-.011-.2-.019c-.078-.008-.157-.017-.236-.028l-.069-.008c-.074-.009-.148-.02-.222-.031l-.015,0q-.124-.018-.246-.039l-.012,0V646.83a10.014,10.014,0,0,0,4.338,0Z" transform="translate(-296.36 -624.07)" fill="#fff"/>
                      <path id="Path_3988" data-name="Path 3988" d="M583.383,455.649a.049.049,0,0,1-.006.015c-.03.078-.06.157-.091.236-.056.143-.116.284-.178.425l-.01.022c-.028.063-.055.126-.085.188s-.043.094-.066.141c-.033.07-.067.141-.1.212s-.06.122-.092.183q-.142.274-.3.543-.2.349-.421.679l-.007.012a.392.392,0,0,1-.025.036c-.032.049-.065.1-.1.146-.019.029-.038.057-.058.085l-.061.085a.056.056,0,0,1-.01.013c-.025.036-.051.072-.077.107l-.078.106c-.028.038-.056.075-.084.112l-.086.111c-.077.1-.157.2-.238.3l0,0-.3-.17-2.264-1.307a10.006,10.006,0,0,0,2.171-3.756l2.266,1.309.3.17Z" transform="translate(-559.097 -438.189)" fill="#fff"/>
                      <path id="Path_3989" data-name="Path 3989" d="M583.589,137.067l-.293.169-2.269,1.31a10,10,0,0,0-2.166-3.757l2.265-1.308.294-.169,0,0q.256.309.494.638.08.109.157.221l.01.014q.3.441.577.912a13.011,13.011,0,0,1,.93,1.973Z" transform="translate(-559.3 -128.619)" fill="#fff"/>
                    </g>
                    <g id="Group_15270" data-name="Group 15270" transform="translate(0.805)">
                      <path id="Path_3990" data-name="Path 3990" d="M46.97,17.29a12.525,12.525,0,0,1-1.737,3.2q-.21.281-.436.55l.3.17c.082-.1.162-.2.241-.3l.086-.111.084-.112.078-.106c.026-.035.052-.071.077-.107a.07.07,0,0,0,.01-.013l.061-.085c.02-.028.039-.056.058-.085.034-.048.067-.1.1-.146a.432.432,0,0,0,.025-.036l.007-.012c.037-.055.073-.11.109-.167q.107-.167.21-.339l.1-.173.007-.013c.035-.062.071-.125.106-.186s.076-.138.113-.207c.025-.046.048-.091.071-.137s.062-.121.093-.183.07-.141.1-.212c.023-.047.045-.093.065-.141s.057-.125.085-.188l.01-.022c.061-.141.121-.281.178-.425.031-.078.061-.157.091-.236a.051.051,0,0,0,.006-.015l-.3-.17ZM46.339,6.475q-.272-.471-.577-.912l-.01-.014c-.052-.075-.1-.148-.157-.221l-.12-.163q-.183-.242-.376-.473l-.294.169a12.565,12.565,0,0,1,2.059,3.464q.058.145.111.292l.293-.169a13.081,13.081,0,0,0-.93-1.973ZM25.316,5.006c.043-.052.085-.1.128-.155l-.288-.166c-.033.038-.064.075-.094.113-.056.07-.113.141-.168.212s-.088.114-.131.171c-.025.031-.048.062-.07.093l-.01.014c-.024.032-.048.065-.07.1s-.058.08-.085.12c-.018.025-.035.048-.052.073q-.067.1-.132.194c-.05.076-.1.153-.149.23s-.1.156-.146.235-.094.158-.141.238-.092.16-.136.241-.082.149-.121.224a13.049,13.049,0,0,0-.669,1.5l.287.165a12.543,12.543,0,0,1,2.044-3.6ZM23.267,17.285l-.287.166a13.15,13.15,0,0,0,.93,1.973q.259.448.548.869c.064.093.129.186.2.277.054.075.11.149.165.223s.11.144.167.214l.081.1.082.1.29-.167a12.639,12.639,0,0,1-1.955-3.206q-.114-.271-.216-.55ZM35.124,0A12.978,12.978,0,0,0,32.96.18V.515l.052-.009a12.781,12.781,0,0,1,4.227,0l.06.011V.182A13.024,13.024,0,0,0,35.125,0Zm0,25.566a12.832,12.832,0,0,1-1.338-.07q-.42-.044-.831-.116v.337l.012,0,.246.039.015,0c.074.012.148.022.222.031l.069.008c.078.011.157.02.236.028l.2.019.129.012.246.017.195.01c.029,0,.058,0,.087,0l.046,0c.065,0,.131,0,.2.006.093,0,.185,0,.277,0s.171,0,.256,0h.043c.076,0,.152,0,.228-.007s.156-.007.234-.012l.148-.01.189-.014c.089-.007.178-.015.266-.025l.2-.022.125-.015c.071-.009.141-.019.212-.03.089-.013.178-.027.265-.042V25.38a12.612,12.612,0,0,1-2.168.186Z" transform="translate(-22.98 0)" fill="url(#linear-gradient-21)"/>
                    </g>
                    <g id="Group_15273" data-name="Group 15273">
                      <g id="Group_15272" data-name="Group 15272" opacity="0.05">
                        <g id="Group_15271" data-name="Group 15271">
                          <path id="Path_3991" data-name="Path 3991" d="M24.061,6.149l-.282,0A21.917,21.917,0,0,0,2.993,21.12,12.944,12.944,0,0,1,13.04,0a13.09,13.09,0,0,1,2.174.182,12.978,12.978,0,0,1,8.848,5.967Z" transform="translate(-0.09 0)" fill="url(#linear-gradient-11)"/>
                        </g>
                      </g>
                    </g>
                  </g>
                  <g id="Group_15281" data-name="Group 15281" transform="translate(0.811 1.902)">
                    <g id="Group_15275" data-name="Group 15275" transform="translate(15.9 0.014)">
                      <path id="Path_3992" data-name="Path 3992" d="M478.364,55.678c-.4.706-.809,1.412-1.217,2.111l-.016.028L477.1,57.8,475,56.573l-.019-.011.011-.018,1.228-2.1.005-.009.009.005,2.1,1.228.026.015Zm-.052-.03-2.089-1.194.014,0-1.209,2.115-.008-.029,2.116,1.209-.044.012c.4-.7.8-1.391,1.2-2.083l.015-.026Z" transform="translate(-474.98 -54.43)" fill="#274a01"/>
                    </g>
                    <ellipse id="Ellipse_297" data-name="Ellipse 297" cx="0.287" cy="0.287" rx="0.287" ry="0.287" transform="translate(17.286 1.411)" fill="#fff"/>
                    <ellipse id="Ellipse_298" data-name="Ellipse 298" cx="0.287" cy="0.287" rx="0.287" ry="0.287" transform="translate(5.486 1.146)" fill="#fff"/>
                    <ellipse id="Ellipse_299" data-name="Ellipse 299" cx="0.287" cy="0.287" rx="0.287" ry="0.287" transform="translate(6.59 0.48)" fill="#fff"/>
                    <ellipse id="Ellipse_300" data-name="Ellipse 300" cx="0.287" cy="0.287" rx="0.287" ry="0.287" transform="translate(6.39 1.411)" fill="#fff"/>
                    <ellipse id="Ellipse_301" data-name="Ellipse 301" cx="0.287" cy="0.287" rx="0.287" ry="0.287" transform="translate(7.321 1.676)" fill="#fff"/>
                    <ellipse id="Ellipse_302" data-name="Ellipse 302" cx="0.287" cy="0.287" rx="0.287" ry="0.287" transform="translate(6.129 2.868) rotate(-80.78)" fill="#fff"/>
                    <circle id="Ellipse_303" data-name="Ellipse 303" cx="0.287" cy="0.287" r="0.287" transform="translate(0.165 10.46) rotate(-45)" fill="#fff"/>
                    <ellipse id="Ellipse_304" data-name="Ellipse 304" cx="0.287" cy="0.287" rx="0.287" ry="0.287" transform="translate(1.586 10.672) rotate(-76.72)" fill="#fff"/>
                    <ellipse id="Ellipse_305" data-name="Ellipse 305" cx="0.287" cy="0.287" rx="0.287" ry="0.287" transform="translate(0.242 12.007) rotate(-80.78)" fill="#fff"/>
                    <ellipse id="Ellipse_306" data-name="Ellipse 306" cx="0.287" cy="0.287" rx="0.287" ry="0.287" transform="translate(1.556 11.613) rotate(-22.5)" fill="#fff"/>
                    <ellipse id="Ellipse_307" data-name="Ellipse 307" cx="0.287" cy="0.287" rx="0.287" ry="0.287" transform="translate(7.307 19.973)" fill="#fff"/>
                    <ellipse id="Ellipse_308" data-name="Ellipse 308" cx="0.287" cy="0.287" rx="0.287" ry="0.287" transform="translate(16.383 20.001)" fill="#fff"/>
                    <circle id="Ellipse_309" data-name="Ellipse 309" cx="0.287" cy="0.287" r="0.287" transform="translate(21.931 10.453) rotate(-45)" fill="#fff"/>
                    <ellipse id="Ellipse_310" data-name="Ellipse 310" cx="0.287" cy="0.287" rx="0.287" ry="0.287" transform="translate(22.648 11.33) rotate(-76.72)" fill="#fff"/>
                    <ellipse id="Ellipse_311" data-name="Ellipse 311" cx="0.287" cy="0.287" rx="0.287" ry="0.287" transform="translate(23.276 11.625) rotate(-22.5)" fill="#fff"/>
                    <ellipse id="Ellipse_312" data-name="Ellipse 312" cx="0.287" cy="0.287" rx="0.287" ry="0.287" transform="translate(18.19 20.521)" fill="#fff"/>
                    <ellipse id="Ellipse_313" data-name="Ellipse 313" cx="0.287" cy="0.287" rx="0.287" ry="0.287" transform="translate(6.951 20.596)" fill="#fff"/>
                    <ellipse id="Ellipse_314" data-name="Ellipse 314" cx="0.287" cy="0.287" rx="0.287" ry="0.287" transform="translate(6.595 21.219)" fill="#fff"/>
                    <path id="Path_3993" data-name="Path 3993" d="M199.959,603.813a.287.287,0,1,1,.294-.281A.287.287,0,0,1,199.959,603.813Z" transform="translate(-193.466 -583.913)" fill="#fff"/>
                    <path id="Path_3994" data-name="Path 3994" d="M189.439,621.273a.287.287,0,1,1,.294-.281A.287.287,0,0,1,189.439,621.273Z" transform="translate(-183.316 -600.759)" fill="#fff"/>
                    <path id="Path_3995" data-name="Path 3995" d="M178.919,638.743a.287.287,0,1,1,.294-.281A.287.287,0,0,1,178.919,638.743Z" transform="translate(-173.166 -617.614)" fill="#fff"/>
                    <g id="Group_15276" data-name="Group 15276" transform="translate(21.744 9.877)">
                      <path id="Path_3996" data-name="Path 3996" d="M643.548,337.218c-.812,0-1.627.006-2.436,0h-.032v-.032l.011-2.437v-.022h.021l2.437.011h.011v.01l-.011,2.437v.03Zm0-.06-.011-2.407.011.011-2.437.011.022-.021.01,2.437-.032-.032c.8,0,1.6,0,2.406,0h.03Z" transform="translate(-641.08 -334.73)" fill="#284c02"/>
                    </g>
                    <g id="Group_15277" data-name="Group 15277" transform="translate(4.977)">
                      <path id="Path_3997" data-name="Path 3997" d="M166.711,54.04c.41.7.818,1.406,1.22,2.109l.016.028-.028.016L165.8,57.4l-.019.011-.011-.018-1.209-2.115-.005-.009.009-.005,2.115-1.209.026-.015Zm-.052.03-2.079,1.213,0-.014,1.228,2.1-.029-.008,2.1-1.228-.012.044c-.406-.695-.8-1.387-1.2-2.085l-.015-.026Z" transform="translate(-164.56 -54.04)" fill="#32540e"/>
                    </g>
                    <g id="Group_15278" data-name="Group 15278" transform="translate(0 9.891)">
                      <path id="Path_3998" data-name="Path 3998" d="M23.141,335.144c.812,0,1.627-.006,2.436,0h.032v.032l-.011,2.437v.021h-.021l-2.437-.011H23.13v-.011l.011-2.437v-.03Zm0,.06.011,2.407-.011-.011,2.437-.01-.021.021-.011-2.437.032.032c-.8,0-1.6,0-2.407,0h-.03Z" transform="translate(-23.13 -335.139)" fill="#385c11"/>
                    </g>
                    <g id="Group_15279" data-name="Group 15279" transform="translate(5.034 18.83)">
                      <path id="Path_3999" data-name="Path 3999" d="M166.18,591.309c.4-.706.809-1.412,1.217-2.111l.016-.028.027.016,2.1,1.228.019.011-.011.018-1.228,2.1-.005.009-.009-.005-2.1-1.228-.026-.015Zm.052.03,2.089,1.194-.014,0,1.209-2.115.008.029-2.115-1.209.044-.011c-.4.7-.8,1.391-1.2,2.083l-.015.026Z" transform="translate(-166.18 -589.17)" fill="#264901"/>
                    </g>
                    <g id="Group_15280" data-name="Group 15280" transform="translate(15.88 18.824)">
                      <path id="Path_4000" data-name="Path 4000" d="M475.666,592.372c-.41-.7-.818-1.406-1.22-2.109l-.016-.028.028-.016,2.116-1.209.018-.011.011.018,1.209,2.115.005.009-.009.005-2.116,1.209-.026.015Zm.052-.03,2.079-1.213,0,.014-1.228-2.1.029.008-2.1,1.228.012-.044c.406.7.8,1.388,1.2,2.085l.015.026Z" transform="translate(-474.43 -589)" fill="#346500"/>
                    </g>
                  </g>
                </g>
              </g>
            </g>
          </g>
        </g>
      </g>
    </g>
  </g>
</svg>
