<svg xmlns="http://www.w3.org/2000/svg" xmlns:xlink="http://www.w3.org/1999/xlink"  className="w-full" viewBox="0 0 52.588 52.589">
  <defs>
    <linearGradient id="linear-gradient" x1="0.007" y1="0.241" x2="0.984" y2="0.755" gradientUnits="objectBoundingBox">
      <stop offset="0" stop-color="#ce0000"/>
      <stop offset="1" stop-color="#900"/>
    </linearGradient>
    <linearGradient id="linear-gradient-2" x1="0.057" y1="0.267" x2="0.943" y2="0.733" gradientUnits="objectBoundingBox">
      <stop offset="0" stop-color="#ff4d4d"/>
      <stop offset="1" stop-color="#720000"/>
    </linearGradient>
    <linearGradient id="linear-gradient-3" x1="0.294" y1="0.019" x2="0.704" y2="0.974" gradientUnits="objectBoundingBox">
      <stop offset="0" stop-color="#c41010"/>
      <stop offset="1" stop-color="#820000"/>
    </linearGradient>
    <linearGradient id="linear-gradient-4" x1="0.144" y1="0.052" x2="0.857" y2="0.949" xlink:href="#linear-gradient"/>
    <linearGradient id="linear-gradient-5" x1="0.846" y1="1.044" x2="0.077" y2="-0.164" xlink:href="#linear-gradient"/>
    <linearGradient id="linear-gradient-7" x1="0.189" y1="0.109" x2="0.811" y2="0.891" xlink:href="#linear-gradient-2"/>
    <linearGradient id="linear-gradient-10" x1="0.121" y1="0.04" x2="0.932" y2="1.026" gradientUnits="objectBoundingBox">
      <stop offset="0" stop-color="#eaeaea"/>
      <stop offset="1" stop-color="#ab1a1a"/>
    </linearGradient>
    <linearGradient id="linear-gradient-11" x1="0.565" y1="0.668" x2="0.121" y2="-0.291" gradientUnits="objectBoundingBox">
      <stop offset="0" stop-color="#fff"/>
      <stop offset="1" stop-color="#fff"/>
    </linearGradient>
  </defs>
  <g id="Group_15353" data-name="Group 15353" transform="translate(-929.651 -1008.001)">
    <g id="Red_Chip" data-name="Red Chip" transform="translate(929.651 1008.001)">
      <g id="Layer_2" data-name="Layer 2">
        <g id="Ñëîé_6" data-name="Ñëîé 6">
          <g id="Group_15299" data-name="Group 15299">
            <g id="Group_15298" data-name="Group 15298">
              <g id="Group_15290" data-name="Group 15290">
                <path id="Path_4023" data-name="Path 4023" d="M52.588,26.294A26.269,26.269,0,0,1,26.294,52.588a26.618,26.618,0,0,1-2.789-.146A26.294,26.294,0,0,1,26.294,0a26.578,26.578,0,0,1,4.414.369,26.271,26.271,0,0,1,21.88,25.925Z" transform="translate(0)" fill="url(#linear-gradient)"/>
                <path id="Path_4024" data-name="Path 4024" d="M50.767,16.669A26.3,26.3,0,1,0,23.505,52.451a26.618,26.618,0,0,0,2.789.146A26.31,26.31,0,0,0,50.767,16.669Zm-.031,17.305a25.589,25.589,0,0,1-24.45,17.946,26.056,26.056,0,0,1-2.717-.141A25.62,25.62,0,0,1,26.286.68a25.928,25.928,0,0,1,4.3.359A25.639,25.639,0,0,1,50.735,33.974Z" transform="translate(0 -0.009)" fill="url(#linear-gradient-2)"/>
                <path id="Path_4025" data-name="Path 4025" d="M140.313,121.331c0,.648-.034,1.288-.1,1.92a18.806,18.806,0,0,1-1.62,5.979,19.069,19.069,0,0,1-9.482,9.42,18.82,18.82,0,0,1-5.991,1.579q-.885.085-1.792.085c-.648,0-1.288-.034-1.919-.1a18.9,18.9,0,0,1-9.187-3.492,18.919,18.919,0,0,1-7.791-13.6q-.085-.885-.085-1.791a19.186,19.186,0,0,1,.1-1.921,18.965,18.965,0,0,1,17.094-16.977q.885-.085,1.791-.085a18.916,18.916,0,0,1,11.106,3.588,18.942,18.942,0,0,1,7.793,13.6q.083.885.083,1.791Z" transform="translate(-95.037 -95.037)" fill="url(#linear-gradient-3)"/>
                <g id="Group_15285" data-name="Group 15285" transform="translate(7.312 7.312)">
                  <path id="Path_4026" data-name="Path 4026" d="M346.662,102.436v1.523a17.44,17.44,0,0,0-1.921-.105,17.644,17.644,0,0,0-1.791.091v-1.52q.885-.085,1.791-.085A18.77,18.77,0,0,1,346.662,102.436Z" transform="translate(-325.759 -102.34)" fill="#efefef"/>
                  <path id="Path_4027" data-name="Path 4027" d="M218.05,126.94a17.252,17.252,0,0,0-3.219,1.846l-.761-1.318a18.85,18.85,0,0,1,3.219-1.848l.761,1.32Z" transform="translate(-206.087 -123.957)" fill="#efefef"/>
                  <path id="Path_4028" data-name="Path 4028" d="M129.559,213.341a17.4,17.4,0,0,0-1.87,3.206l-1.32-.761a18.847,18.847,0,0,1,1.87-3.206Z" transform="translate(-124.653 -204.704)" fill="#efefef"/>
                  <path id="Path_4029" data-name="Path 4029" d="M103.854,343.051a17.642,17.642,0,0,0,.091,1.791h-1.52q-.085-.885-.085-1.791a19.187,19.187,0,0,1,.1-1.921h1.523A17.409,17.409,0,0,0,103.854,343.051Z" transform="translate(-102.34 -324.069)" fill="#efefef"/>
                  <path id="Path_4030" data-name="Path 4030" d="M128.768,469.487l-1.318.761a18.908,18.908,0,0,1-1.85-3.217l1.32-.761a17.329,17.329,0,0,0,1.848,3.217Z" transform="translate(-123.938 -440.268)" fill="#efefef"/>
                  <path id="Path_4031" data-name="Path 4031" d="M216.548,566.881l-.761,1.318a18.833,18.833,0,0,1-3.207-1.87l.763-1.32a17.282,17.282,0,0,0,3.206,1.871Z" transform="translate(-204.704 -531.954)" fill="#efefef"/>
                  <path id="Path_4032" data-name="Path 4032" d="M344.871,611.054v1.52q-.885.085-1.792.085c-.648,0-1.288-.034-1.919-.1V611.04a17.386,17.386,0,0,0,1.919.1A17.654,17.654,0,0,0,344.871,611.054Z" transform="translate(-324.097 -574.695)" fill="#efefef"/>
                  <path id="Path_4033" data-name="Path 4033" d="M470.25,567.427a18.891,18.891,0,0,1-3.217,1.848l-.763-1.32a17.3,17.3,0,0,0,3.219-1.846l.761,1.318Z" transform="translate(-440.268 -532.975)" fill="#efefef"/>
                  <path id="Path_4034" data-name="Path 4034" d="M568.219,468.682a19.015,19.015,0,0,1-1.87,3.207l-1.32-.763a17.358,17.358,0,0,0,1.871-3.206l1.318.761Z" transform="translate(-531.972 -441.8)" fill="#efefef"/>
                  <path id="Path_4035" data-name="Path 4035" d="M612.659,344.741c0,.648-.034,1.288-.1,1.92H611.04a17.4,17.4,0,0,0,.1-1.92,17.629,17.629,0,0,0-.091-1.791h1.523Q612.659,343.835,612.659,344.741Z" transform="translate(-574.695 -325.759)" fill="#efefef"/>
                  <path id="Path_4036" data-name="Path 4036" d="M569.248,217.287l-1.318.763a17.267,17.267,0,0,0-1.85-3.219l1.32-.761a18.893,18.893,0,0,1,1.848,3.217Z" transform="translate(-532.947 -206.087)" fill="#efefef"/>
                  <path id="Path_4037" data-name="Path 4037" d="M471.907,128.26l-.763,1.32a17.28,17.28,0,0,0-3.2-1.871l.76-1.318a18.6,18.6,0,0,1,3.207,1.87Z" transform="translate(-441.819 -124.672)" fill="#efefef"/>
                </g>
                <path id="Path_4038" data-name="Path 4038" d="M134.892,108.044a18.925,18.925,0,0,0-2.086-1.747,18.947,18.947,0,0,0-11.106-3.588q-.908,0-1.791.085a18.964,18.964,0,0,0-17.094,16.977c-.063.632-.1,1.273-.1,1.921q0,.908.085,1.791a18.954,18.954,0,0,0,5.308,11.459,18.882,18.882,0,0,1-5.676-11.827q-.085-.885-.085-1.791a19.188,19.188,0,0,1,.1-1.921,18.872,18.872,0,0,1,3.49-9.185,18.946,18.946,0,0,1,13.6-7.791q.885-.085,1.791-.085a18.943,18.943,0,0,1,13.561,5.7Z" transform="translate(-95.037 -95.028)" fill="#7a0909" opacity="0.93"/>
                <path id="Path_4039" data-name="Path 4039" d="M158.466,141a17.456,17.456,0,0,1-15.677,17.377,17.663,17.663,0,0,1-1.792.091,17.451,17.451,0,0,1-17.376-15.677A17.654,17.654,0,0,1,123.53,141a17.494,17.494,0,0,1,10.448-16h0a17.3,17.3,0,0,1,5.226-1.377A17.653,17.653,0,0,1,141,123.53a17.45,17.45,0,0,1,17.377,15.676,17.654,17.654,0,0,1,.091,1.791Z" transform="translate(-114.704 -114.704)" fill="url(#linear-gradient-4)"/>
                <path id="Path_4040" data-name="Path 4040" d="M158.466,141a17.456,17.456,0,0,1-15.677,17.377,17.663,17.663,0,0,1-1.792.091,17.451,17.451,0,0,1-17.376-15.677A17.654,17.654,0,0,1,123.53,141a17.494,17.494,0,0,1,10.448-16h0a17.3,17.3,0,0,1,5.226-1.377A17.653,17.653,0,0,1,141,123.53a17.45,17.45,0,0,1,17.377,15.676,17.654,17.654,0,0,1,.091,1.791Z" transform="translate(-114.704 -114.704)" fill="url(#linear-gradient-5)"/>
                <path id="Path_4041" data-name="Path 4041" d="M158.466,141a17.456,17.456,0,0,1-15.677,17.377,17.663,17.663,0,0,1-1.792.091,17.451,17.451,0,0,1-17.376-15.677A17.654,17.654,0,0,1,123.53,141a17.494,17.494,0,0,1,10.448-16h0a17.3,17.3,0,0,1,5.226-1.377A17.653,17.653,0,0,1,141,123.53a17.45,17.45,0,0,1,17.377,15.676,17.654,17.654,0,0,1,.091,1.791Z" transform="translate(-114.704 -114.704)" fill="url(#linear-gradient-4)"/>
                <path id="Path_4042" data-name="Path 4042" d="M158.375,139.216A17.46,17.46,0,0,0,141,123.54a17.641,17.641,0,0,0-1.791.091,17.316,17.316,0,0,0-5.226,1.378h0a17.253,17.253,0,0,0-3.219,1.846,17.5,17.5,0,0,0-5.707,7.013,17.459,17.459,0,0,0-1.523,7.14,17.644,17.644,0,0,0,.091,1.791A17.46,17.46,0,0,0,141,158.476a17.663,17.663,0,0,0,1.792-.091,17.377,17.377,0,0,0,8.447-3.224,17.559,17.559,0,0,0,3.837-3.809,17.441,17.441,0,0,0,3.392-10.344,17.639,17.639,0,0,0-.091-1.791Zm-.344,3.675a17.052,17.052,0,0,1-3.224,8.263,17.1,17.1,0,0,1-12.05,6.9c-.578.058-1.165.09-1.758.09a17.24,17.24,0,0,1-1.883-.1,17.085,17.085,0,0,1-8.264-3.226,17.236,17.236,0,0,1-3.736-3.764,16.993,16.993,0,0,1-3.163-8.286c-.058-.577-.09-1.163-.09-1.757a17.267,17.267,0,0,1,.1-1.885,16.916,16.916,0,0,1,1.391-5.12,17.156,17.156,0,0,1,5.6-6.879,16.873,16.873,0,0,1,3.157-1.811h0A17.163,17.163,0,0,1,141,123.872a17.31,17.31,0,0,1,1.885.1,17.05,17.05,0,0,1,8.263,3.227,17.222,17.222,0,0,1,3.734,3.762,16.972,16.972,0,0,1,3.164,8.286c.058.577.09,1.165.09,1.758a17.267,17.267,0,0,1-.1,1.883Z" transform="translate(-114.704 -114.713)" fill="url(#linear-gradient-7)"/>
                <path id="Path_4043" data-name="Path 4043" d="M162.461,145.316a17.256,17.256,0,0,1-.1,1.883,17.052,17.052,0,0,1-3.224,8.263,17.1,17.1,0,0,1-12.05,6.9c-.578.058-1.165.09-1.758.09a17.24,17.24,0,0,1-1.883-.1,17.085,17.085,0,0,1-8.264-3.226,17.237,17.237,0,0,1-3.736-3.764,16.994,16.994,0,0,1-3.163-8.286,17.592,17.592,0,0,1-.09-1.757,17.265,17.265,0,0,1,.1-1.885,16.916,16.916,0,0,1,1.391-5.12,17.155,17.155,0,0,1,5.6-6.879,16.872,16.872,0,0,1,3.157-1.811h0a17.163,17.163,0,0,1,6.885-1.441,17.309,17.309,0,0,1,1.885.1,17.05,17.05,0,0,1,8.263,3.227,17.223,17.223,0,0,1,3.735,3.762,16.973,16.973,0,0,1,3.164,8.286c.058.577.09,1.165.09,1.758Z" transform="translate(-119.031 -119.022)" fill="url(#linear-gradient-4)"/>
                <path id="Path_4044" data-name="Path 4044" d="M158.538,141.684q0,.9-.089,1.783A17.548,17.548,0,0,1,155.207,152a17.735,17.735,0,0,1-7.073,5.771,17.476,17.476,0,0,1-5.566,1.467q-.822.078-1.664.079-.9,0-1.783-.089a17.572,17.572,0,0,1-8.535-3.244,17.582,17.582,0,0,1-7.238-12.637q-.078-.822-.079-1.664,0-.9.089-1.785a17.618,17.618,0,0,1,15.881-15.771q.822-.078,1.664-.079a17.6,17.6,0,0,1,7.338,1.6,17.279,17.279,0,0,1,2.979,1.737,17.6,17.6,0,0,1,7.239,12.636q.076.822.077,1.664Z" transform="translate(-114.463 -115.187)" fill="#740707" opacity="0.98"/>
                <path id="Path_4045" data-name="Path 4045" d="M162.461,145.3a17.127,17.127,0,0,1-15.378,17.047,17.4,17.4,0,0,1-1.758.089,17.117,17.117,0,0,1-17.045-15.378,17.408,17.408,0,0,1-.09-1.758,17.128,17.128,0,0,1,7.092-13.884,16.936,16.936,0,0,1,3.158-1.811h0a16.994,16.994,0,0,1,5.127-1.352,17.4,17.4,0,0,1,1.758-.09,17.123,17.123,0,0,1,7,1.493,16.955,16.955,0,0,1,3.143,1.835,17.177,17.177,0,0,1,3.735,3.762,16.981,16.981,0,0,1,3.164,8.286,17.408,17.408,0,0,1,.09,1.758Z" transform="translate(-119.031 -119.003)" fill="url(#linear-gradient-4)"/>
                <g id="Group_15286" data-name="Group 15286" transform="translate(1.636)">
                  <path id="Path_4046" data-name="Path 4046" d="M315.328.369V6.375a20.335,20.335,0,0,0-8.808-.005v-6a26.591,26.591,0,0,1,8.808,0Z" transform="translate(-286.256)" fill="#fff"/>
                  <path id="Path_4047" data-name="Path 4047" d="M32.626,136.084a20.331,20.331,0,0,0-4.408,7.624L23.6,141.044h0l-.583-.336a26.444,26.444,0,0,1,1.357-3.044c.08-.153.163-.3.246-.455s.183-.327.276-.489.189-.324.286-.484.2-.319.3-.477.2-.312.3-.467c.088-.133.178-.264.268-.394.033-.05.068-.1.105-.148.055-.081.113-.163.173-.243s.1-.133.143-.2l.02-.029c.045-.063.091-.126.141-.189.086-.116.176-.233.266-.347.169-.224.347-.445.527-.663l.005,0,.585.337,4.612,2.662Z" transform="translate(-23.011 -123.572)" fill="#fff"/>
                  <path id="Path_4048" data-name="Path 4048" d="M32.5,461.559l-4.61,2.662-.588.339h0c-.056-.068-.111-.136-.164-.2s-.109-.136-.164-.2c-.114-.143-.228-.289-.339-.435s-.226-.3-.336-.452c-.134-.184-.267-.372-.4-.561q-.586-.855-1.113-1.765a26.629,26.629,0,0,1-1.888-4.007l.583-.337L28.1,453.93a20.291,20.291,0,0,0,4.4,7.629Z" transform="translate(-22.9 -421.498)" fill="#fff"/>
                  <path id="Path_4049" data-name="Path 4049" d="M315.048,646.834v6c-.178.03-.357.058-.539.085-.143.021-.286.041-.43.06-.083.011-.168.021-.253.031q-.2.025-.4.045c-.179.02-.359.036-.54.051l-.384.029c-.1.009-.2.015-.3.02-.158.01-.316.016-.475.024s-.309.011-.464.014a.693.693,0,0,1-.086,0c-.173.005-.346.006-.52.006s-.376,0-.563-.006c-.133,0-.266-.006-.4-.011-.031,0-.061,0-.093,0-.058,0-.118,0-.176-.009-.133-.005-.264-.011-.4-.02-.168-.01-.332-.021-.5-.035-.088-.006-.174-.015-.263-.024-.134-.011-.268-.025-.4-.038-.159-.016-.319-.035-.479-.057l-.139-.016c-.149-.019-.3-.04-.45-.063a.154.154,0,0,1-.031,0q-.252-.037-.5-.08a.1.1,0,0,1-.025,0V646.83a20.334,20.334,0,0,0,8.808.005Z" transform="translate(-285.996 -600.616)" fill="#fff"/>
                  <path id="Path_4050" data-name="Path 4050" d="M588.17,457.174a.107.107,0,0,1-.011.03c-.06.159-.122.319-.184.479-.114.291-.236.577-.361.862l-.02.045c-.056.128-.113.256-.173.382-.041.1-.086.191-.133.286-.066.143-.137.287-.208.43-.061.124-.123.248-.188.371q-.287.556-.6,1.1-.408.708-.855,1.38l-.015.024a.869.869,0,0,1-.05.073c-.065.1-.131.2-.2.3-.039.058-.078.116-.118.173s-.081.114-.123.173a.124.124,0,0,1-.02.026c-.051.073-.1.146-.156.218s-.106.144-.159.216-.113.153-.171.228-.116.151-.174.226c-.156.2-.319.407-.484.607l-.005,0-.6-.346-4.6-2.654a20.317,20.317,0,0,0,4.408-7.626l4.6,2.657.6.346Z" transform="translate(-538.86 -421.721)" fill="#fff"/>
                  <path id="Path_4051" data-name="Path 4051" d="M588.38,140.939l-.6.344-4.607,2.659a20.326,20.326,0,0,0-4.4-7.629l4.6-2.656.6-.344.005,0q.519.628,1,1.295.162.222.319.449l.02.029q.618.895,1.172,1.851a26.424,26.424,0,0,1,1.888,4.007Z" transform="translate(-539.064 -123.785)" fill="#fff"/>
                </g>
                <g id="Group_15287" data-name="Group 15287" transform="translate(1.635)">
                  <path id="Path_4052" data-name="Path 4052" d="M71.6,35.107a25.432,25.432,0,0,1-3.527,6.506q-.427.571-.886,1.117l.6.346c.166-.2.329-.4.489-.6.058-.075.116-.149.174-.226s.114-.151.171-.228.106-.143.159-.216.105-.144.156-.218a.143.143,0,0,0,.02-.026c.041-.058.083-.115.123-.173s.08-.114.118-.173c.07-.1.136-.2.2-.3.019-.025.035-.048.05-.073l.015-.024c.075-.111.148-.224.221-.339q.216-.339.427-.688c.07-.118.138-.234.206-.352l.015-.026c.071-.126.144-.253.214-.379s.154-.279.229-.42c.05-.093.1-.184.144-.277.065-.123.126-.246.188-.371.071-.143.141-.287.208-.43.046-.1.091-.189.133-.286.06-.126.116-.254.173-.382l.02-.045c.124-.286.246-.572.361-.862.063-.159.124-.319.184-.479a.1.1,0,0,0,.011-.03l-.6-.346ZM70.32,13.147q-.553-.957-1.172-1.851l-.02-.029c-.105-.151-.211-.3-.319-.449-.081-.111-.163-.221-.244-.331q-.372-.491-.763-.96l-.6.344A25.514,25.514,0,0,1,71.386,16.9q.117.294.226.593l.6-.344a26.562,26.562,0,0,0-1.888-4.007ZM27.633,10.164c.086-.106.173-.211.261-.314l-.585-.337c-.066.076-.129.153-.191.229-.114.143-.229.286-.341.43-.09.114-.179.231-.266.347-.05.063-.1.126-.141.189l-.02.029c-.048.065-.1.131-.143.2s-.118.161-.173.243c-.036.05-.071.1-.105.148q-.135.194-.268.394c-.1.154-.2.311-.3.467s-.2.316-.3.477-.191.321-.286.484-.186.324-.276.489-.166.3-.246.455A26.5,26.5,0,0,0,22.9,17.136l.583.336a25.469,25.469,0,0,1,4.151-7.307ZM23.473,35.1l-.583.337a26.7,26.7,0,0,0,1.888,4.007q.526.91,1.113,1.765c.129.189.263.377.4.562.11.153.223.3.336.452s.224.292.339.435c.055.068.109.138.164.2l.166.2.588-.339a25.683,25.683,0,0,1-3.97-6.51q-.231-.551-.439-1.117ZM47.548,0a26.35,26.35,0,0,0-4.394.366v.679l.105-.019a25.951,25.951,0,0,1,8.582,0l.121.021V.369A26.444,26.444,0,0,0,47.549,0ZM47.54,51.912a26.054,26.054,0,0,1-2.717-.141q-.852-.09-1.688-.236v.684a.15.15,0,0,0,.025,0c.166.029.332.055.5.08a.235.235,0,0,0,.031,0c.149.024.3.045.45.063l.139.016c.159.021.319.04.479.056.133.014.266.026.4.038l.263.024c.166.014.331.025.5.035.131.009.262.015.4.02.058.005.118.006.176.009.031,0,.061,0,.093,0,.133.005.266.01.4.011.188,0,.376.006.563.006s.347,0,.52-.006c.029,0,.058,0,.086,0,.154,0,.309-.006.464-.014s.317-.014.475-.024c.1,0,.2-.011.3-.02l.384-.029c.181-.015.361-.031.54-.051.134-.014.269-.029.4-.045.085-.01.169-.02.253-.031.144-.019.287-.038.43-.06.181-.026.361-.055.539-.085v-.688a25.608,25.608,0,0,1-4.4.377Z" transform="translate(-22.89 0)" fill="url(#linear-gradient-10)"/>
                </g>
                <g id="Group_15289" data-name="Group 15289" opacity="0.1">
                  <g id="Group_15288" data-name="Group 15288">
                    <path id="Path_4053" data-name="Path 4053" d="M48.672,12.485c-.191,0-.381,0-.572,0a44.5,44.5,0,0,0-42.207,30.4A26.282,26.282,0,0,1,26.294,0a26.578,26.578,0,0,1,4.414.369A26.35,26.35,0,0,1,48.672,12.485Z" transform="translate(0)" fill="url(#linear-gradient-11)"/>
                  </g>
                </g>
              </g>
              <g id="Group_15297" data-name="Group 15297" transform="translate(1.646 3.861)">
                <g id="Group_15291" data-name="Group 15291" transform="translate(32.283 0.028)">
                  <path id="Path_4054" data-name="Path 4054" d="M481.761,56.965c-.816,1.433-1.642,2.866-2.471,4.286l-.033.056-.056-.033-4.274-2.493-.038-.022.021-.037,2.493-4.274.011-.019.019.011,4.274,2.493.053.031Zm-.106-.061-4.243-2.425.029-.008-2.455,4.3-.016-.059,4.3,2.455-.089.024c.81-1.419,1.623-2.824,2.446-4.23l.031-.053Z" transform="translate(-474.89 -54.43)" fill="#760b0b"/>
                </g>
                <ellipse id="Ellipse_315" data-name="Ellipse 315" cx="0.584" cy="0.584" rx="0.584" ry="0.584" transform="translate(35.099 2.866)" fill="#fff"/>
                <ellipse id="Ellipse_316" data-name="Ellipse 316" cx="0.584" cy="0.584" rx="0.584" ry="0.584" transform="translate(11.139 2.328)" fill="#fff"/>
                <ellipse id="Ellipse_317" data-name="Ellipse 317" cx="0.584" cy="0.584" rx="0.584" ry="0.584" transform="translate(13.381 0.975)" fill="#fff"/>
                <ellipse id="Ellipse_318" data-name="Ellipse 318" cx="0.584" cy="0.584" rx="0.584" ry="0.584" transform="matrix(0.158, -0.987, 0.987, 0.158, 12.889, 3.933)" fill="#fff"/>
                <ellipse id="Ellipse_319" data-name="Ellipse 319" cx="0.584" cy="0.584" rx="0.584" ry="0.584" transform="translate(14.827 4.53) rotate(-86.17)" fill="#fff"/>
                <ellipse id="Ellipse_320" data-name="Ellipse 320" cx="0.584" cy="0.584" rx="0.584" ry="0.584" transform="translate(12.349 5.025) rotate(-22.62)" fill="#fff"/>
                <ellipse id="Ellipse_321" data-name="Ellipse 321" cx="0.584" cy="0.584" rx="0.584" ry="0.584" transform="translate(0.458 21.674) rotate(-76.76)" fill="#fff"/>
                <ellipse id="Ellipse_322" data-name="Ellipse 322" cx="0.584" cy="0.584" rx="0.584" ry="0.584" transform="translate(3.339 20.654)" fill="#fff"/>
                <ellipse id="Ellipse_323" data-name="Ellipse 323" cx="0.584" cy="0.584" rx="0.584" ry="0.584" transform="translate(0.398 23.582) rotate(-22.62)" fill="#fff"/>
                <ellipse id="Ellipse_324" data-name="Ellipse 324" cx="0.584" cy="0.584" rx="0.584" ry="0.584" transform="translate(3.339 23.313)" fill="#fff"/>
                <ellipse id="Ellipse_325" data-name="Ellipse 325" cx="0.584" cy="0.584" rx="0.584" ry="0.584" transform="matrix(0.158, -0.987, 0.987, 0.158, 14.751, 41.62)" fill="#fff"/>
                <ellipse id="Ellipse_326" data-name="Ellipse 326" cx="0.584" cy="0.584" rx="0.584" ry="0.584" transform="translate(33.264 40.611)" fill="#fff"/>
                <ellipse id="Ellipse_327" data-name="Ellipse 327" cx="0.584" cy="0.584" rx="0.584" ry="0.584" transform="translate(44.771 20.64)" fill="#fff"/>
                <ellipse id="Ellipse_328" data-name="Ellipse 328" cx="0.584" cy="0.584" rx="0.584" ry="0.584" transform="translate(46.105 21.989)" fill="#fff"/>
                <ellipse id="Ellipse_329" data-name="Ellipse 329" cx="0.584" cy="0.584" rx="0.584" ry="0.584" transform="translate(47.44 23.337)" fill="#fff"/>
                <ellipse id="Ellipse_330" data-name="Ellipse 330" cx="0.584" cy="0.584" rx="0.584" ry="0.584" transform="translate(36.848 42.736) rotate(-80.78)" fill="#fff"/>
                <ellipse id="Ellipse_331" data-name="Ellipse 331" cx="0.584" cy="0.584" rx="0.584" ry="0.584" transform="translate(14.114 41.82)" fill="#fff"/>
                <ellipse id="Ellipse_332" data-name="Ellipse 332" cx="0.584" cy="0.584" rx="0.584" ry="0.584" transform="matrix(0.983, -0.182, 0.182, 0.983, 13.291, 43.203)" fill="#fff"/>
                <path id="Path_4055" data-name="Path 4055" d="M200.158,604.4a.584.584,0,1,1,.6-.57A.583.583,0,0,1,200.158,604.4Z" transform="translate(-186.974 -563.999)" fill="#fff"/>
                <path id="Path_4056" data-name="Path 4056" d="M189.638,621.865a.584.584,0,1,1,.6-.57A.584.584,0,0,1,189.638,621.865Z" transform="translate(-177.206 -580.212)" fill="#fff"/>
                <path id="Path_4057" data-name="Path 4057" d="M179.118,639.335a.583.583,0,1,1,.6-.57A.583.583,0,0,1,179.118,639.335Z" transform="translate(-167.437 -596.434)" fill="#fff"/>
                <g id="Group_15292" data-name="Group 15292" transform="translate(44.151 20.054)">
                  <path id="Path_4058" data-name="Path 4058" d="M646,339.783c-1.648.01-3.3.011-4.947,0h-.065v-.065l.022-4.948v-.044h.044l4.948.021h.021v.021L646,339.721v.061Zm0-.122-.021-4.887.021.021-4.948.021.044-.044.021,4.948-.065-.065c1.634-.008,3.257-.006,4.886,0H646Z" transform="translate(-640.99 -334.73)" fill="#730606"/>
                </g>
                <g id="Group_15293" data-name="Group 15293" transform="translate(10.105)">
                  <path id="Path_4059" data-name="Path 4059" d="M168.838,54.04c.832,1.423,1.662,2.855,2.477,4.283l.032.056-.056.032-4.3,2.455-.038.021-.021-.037-2.455-4.3-.011-.019.019-.011,4.3-2.455.053-.031Zm-.106.061-4.221,2.462.008-.029,2.493,4.274-.059-.016,4.274-2.493-.024.089c-.824-1.411-1.634-2.817-2.44-4.233l-.03-.053Z" transform="translate(-164.47 -54.04)" fill="#740606"/>
                </g>
                <g id="Group_15294" data-name="Group 15294" transform="translate(0 20.084)">
                  <path id="Path_4060" data-name="Path 4060" d="M23.062,335.148c1.648-.01,3.3-.011,4.947,0h.065v.065l-.021,4.948v.044h-.044l-4.948-.021H23.04v-.021l.021-4.948v-.061Zm0,.122.021,4.887-.021-.021,4.948-.021-.044.044-.021-4.948.065.065c-1.634.008-3.257.006-4.886,0h-.061Z" transform="translate(-23.04 -335.139)" fill="#740707"/>
                </g>
                <g id="Group_15295" data-name="Group 15295" transform="translate(10.22 38.233)">
                  <path id="Path_4061" data-name="Path 4061" d="M166.09,593.513c.816-1.433,1.642-2.866,2.471-4.286l.033-.056.056.033,4.274,2.493.038.022-.021.037-2.493,4.274-.011.019-.019-.011-4.274-2.493-.053-.031Zm.106.061L170.438,596l-.029.008,2.455-4.3.016.059-4.3-2.455.089-.024c-.81,1.419-1.623,2.823-2.446,4.23l-.031.053Z" transform="translate(-166.09 -589.17)" fill="#740606"/>
                </g>
                <g id="Group_15296" data-name="Group 15296" transform="translate(32.243 38.221)">
                  <path id="Path_4062" data-name="Path 4062" d="M476.839,595.847c-.832-1.422-1.662-2.855-2.477-4.282l-.032-.057.056-.032,4.3-2.455.038-.021.021.037,2.455,4.3.011.019-.019.011-4.3,2.455-.053.031Zm.106-.061,4.221-2.462-.008.029-2.493-4.274.059.016-4.274,2.493.024-.089c.824,1.411,1.634,2.817,2.44,4.233l.03.053Z" transform="translate(-474.33 -589)" fill="#730606"/>
                </g>
              </g>
            </g>
          </g>
        </g>
      </g>
    </g>
  </g>
</svg>
