<svg id="Layer_2" data-name="Layer 2" xmlns="http://www.w3.org/2000/svg" xmlns:xlink="http://www.w3.org/1999/xlink" className="w-full" viewBox="0 0 52.62 52.6">
  <defs>
    <style>
      .coin7-cls-1 {
        fill: url(#coin7-linear-gradient);
      }

      .coin7-cls-1, .coin7-cls-2, .coin7-cls-3, .coin7-cls-4, .coin7-cls-5, .coin7-cls-6, .coin7-cls-7, .coin7-cls-8, .coin7-cls-9, .coin7-cls-10, .coin7-cls-11, .coin7-cls-12, .coin7-cls-13, .coin7-cls-14, .coin7-cls-15, .coin7-cls-16, .coin7-cls-17 {
        stroke-width: 0px;
      }

      .coin7-cls-2 {
        fill: url(#coin7-linear-gradient-6);
      }

      .coin7-cls-18 {
        isolation: isolate;
      }

      .coin7-cls-3 {
        fill: url(#coin7-linear-gradient-5);
      }

      .coin7-cls-4 {
        fill: #8e0071;
      }

      .coin7-cls-5 {
        fill: #7f0366;
      }

      .coin7-cls-6 {
        fill: #fff;
      }

      .coin7-cls-7 {
        fill: url(#coin7-linear-gradient-2);
      }

      .coin7-cls-8 {
        fill: url(#coin7-linear-gradient-7);
      }

      .coin7-cls-9 {
        fill: url(#coin7-linear-gradient-3);
      }

      .coin7-cls-10 {
        fill: url(#coin7-linear-gradient-9);
      }

      .coin7-cls-11 {
        fill: url(#coin7-linear-gradient-8);
      }

      .coin7-cls-12 {
        fill: #900073;
      }

      .coin7-cls-13 {
        fill: #87006c;
      }

      .coin7-cls-14 {
        fill: url(#coin7-linear-gradient-10);
      }

      .coin7-cls-15 {
        fill: url(#coin7-linear-gradient-4);
      }

      .coin7-cls-16 {
        fill: #90247a;
      }

      .coin7-cls-17 {
        fill: #efefef;
      }
    </style>
    <linearGradient id="coin7-linear-gradient" x1="-915.23" y1="557.02" x2="-914.25" y2="556.51" gradientTransform="translate(48160.5 29304.8) scale(52.62 -52.59)" gradientUnits="userSpaceOnUse">
      <stop offset="0" stop-color="#ce2fab"/>
      <stop offset="1" stop-color="#99007a"/>
    </linearGradient>
    <linearGradient id="coin7-linear-gradient-2" x1="-915.17" y1="557" x2="-914.29" y2="556.53" gradientTransform="translate(48142.96 29314.94) scale(52.6 -52.6)" gradientUnits="userSpaceOnUse">
      <stop offset="0" stop-color="#ff8ee7"/>
      <stop offset="1" stop-color="#72105c"/>
    </linearGradient>
    <linearGradient id="coin7-linear-gradient-3" x1="-908.1" y1="553.49" x2="-907.69" y2="552.53" gradientTransform="translate(34496.3 21021.18) scale(37.97 -37.97)" gradientUnits="userSpaceOnUse">
      <stop offset="0" stop-color="#c4009b"/>
      <stop offset="1" stop-color="#820068"/>
    </linearGradient>
    <linearGradient id="coin7-linear-gradient-4" x1="-906.12" y1="552.28" x2="-905.41" y2="551.39" gradientTransform="translate(31671.87 19305.76) scale(34.94 -34.94)" xlink:href="#coin7-linear-gradient"/>
    <linearGradient id="coin7-linear-gradient-5" x1="-905.42" y1="551.29" x2="-906.19" y2="552.5" gradientTransform="translate(31671.87 19305.76) scale(34.94 -34.94)" xlink:href="#coin7-linear-gradient"/>
    <linearGradient id="coin7-linear-gradient-6" x1="-906.12" y1="552.28" x2="-905.41" y2="551.39" gradientTransform="translate(31671.87 19305.76) scale(34.94 -34.94)" xlink:href="#coin7-linear-gradient"/>
    <linearGradient id="coin7-linear-gradient-7" x1="-906.07" y1="552.23" x2="-905.45" y2="551.44" gradientTransform="translate(31668.16 19305.19) scale(34.93 -34.94)" xlink:href="#coin7-linear-gradient-2"/>
    <linearGradient id="coin7-linear-gradient-8" x1="-905.6" y1="552" x2="-904.89" y2="551.1" gradientTransform="translate(31049.01 18927.34) scale(34.27 -34.27)" xlink:href="#coin7-linear-gradient"/>
    <linearGradient id="coin7-linear-gradient-9" x1="-905.6" y1="552" x2="-904.89" y2="551.1" gradientTransform="translate(31049.92 18929.02) scale(34.27 -34.27)" gradientUnits="userSpaceOnUse">
      <stop offset="0" stop-color="#bf289e"/>
      <stop offset="1" stop-color="#c1139e"/>
    </linearGradient>
    <linearGradient id="coin7-linear-gradient-10" x1="-913.93" y1="557.22" x2="-913.12" y2="556.24" gradientTransform="translate(45084.47 29299.12) scale(49.32 -52.58)" gradientUnits="userSpaceOnUse">
      <stop offset="0" stop-color="#fff"/>
      <stop offset="1" stop-color="#800870"/>
    </linearGradient>
  </defs>
  <g id="Layer_1-2" data-name="Layer 1">
    <g id="Group_16167" data-name="Group 16167">
      <g id="_500" data-name=" 500">
        <g id="Layer_2-2" data-name="Layer 2">
          <g id="_Ñëîé_2" data-name="Ñëîé 2">
            <g id="Group_16158" data-name="Group 16158">
              <g id="Group_16150" data-name="Group 16150">
                <path id="Path_7407" data-name="Path 7407" class="coin7-cls-1" d="m52.62,26.31c.01,14.51-11.74,26.28-26.24,26.29-.02,0-.03,0-.05,0-.93,0-1.86-.05-2.79-.15C9.1,50.94-1.38,37.99.15,23.55,1.56,10.16,12.86,0,26.33.02c1.48,0,2.96.12,4.41.37,12.64,2.14,21.89,13.1,21.88,25.92h0Z"/>
                <path id="Path_7408" data-name="Path 7408" class="coin7-cls-7" d="m50.8,16.68C45.48,3.16,30.21-3.48,16.7,1.83,3.18,7.15-3.47,22.42,1.85,35.94c3.59,9.12,11.94,15.48,21.69,16.52.93.1,1.86.15,2.79.15,14.53,0,26.3-11.79,26.29-26.32,0-3.29-.62-6.54-1.82-9.6Zm-.03,17.3c-3.34,10.69-13.25,17.96-24.45,17.95-.91,0-1.81-.05-2.72-.14C9.53,50.31-.68,37.7.81,23.62,2.18,10.57,13.2.67,26.32.69c1.44,0,2.88.12,4.3.36,13.96,2.39,23.34,15.63,20.95,29.59-.19,1.13-.46,2.25-.81,3.34h0Z"/>
                <path id="Path_7409" data-name="Path 7409" class="coin7-cls-9" d="m45.31,26.31c0,.65-.03,1.29-.1,1.92-.21,2.07-.75,4.09-1.62,5.98-1.92,4.18-5.29,7.53-9.48,9.42-1.9.85-3.92,1.39-5.99,1.58-.59.06-1.19.09-1.79.09-.65,0-1.29-.03-1.92-.1-3.32-.33-6.49-1.54-9.19-3.49-4.44-3.19-7.28-8.15-7.79-13.6-.06-.59-.08-1.19-.08-1.79,0-.64.03-1.28.1-1.92.33-3.32,1.54-6.49,3.49-9.18,3.2-4.44,8.15-7.28,13.6-7.79.59-.06,1.19-.08,1.79-.08,3.99,0,7.87,1.25,11.11,3.59,4.44,3.2,7.28,8.15,7.79,13.6.05.59.08,1.19.08,1.79h0Z"/>
                <g id="Group_16145" data-name="Group 16145">
                  <path id="Path_7410" data-name="Path 7410" class="coin7-cls-17" d="m28.25,7.43v1.52c-.64-.07-1.28-.11-1.92-.11-.6,0-1.2.03-1.79.09v-1.52c.59-.06,1.19-.08,1.79-.08.64,0,1.28.03,1.92.1Z"/>
                  <path id="Path_7411" data-name="Path 7411" class="coin7-cls-17" d="m19.31,10.31c-1.14.5-2.22,1.12-3.22,1.85l-.76-1.32c1.01-.72,2.09-1.34,3.22-1.85,0,0,.76,1.32.76,1.32Z"/>
                  <path id="Path_7412" data-name="Path 7412" class="coin7-cls-17" d="m12.25,15.97c-.74,1-1.36,2.07-1.87,3.21l-1.32-.76c.52-1.13,1.14-2.2,1.87-3.21l1.32.76Z"/>
                  <path id="Path_7413" data-name="Path 7413" class="coin7-cls-17" d="m8.86,26.31c0,.6.03,1.2.09,1.79h-1.52c-.06-.59-.08-1.19-.08-1.79,0-.64.03-1.28.1-1.92h1.52c-.07.64-.11,1.28-.11,1.92Z"/>
                  <path id="Path_7414" data-name="Path 7414" class="coin7-cls-17" d="m12.17,36.55l-1.32.76c-.72-1.01-1.34-2.09-1.85-3.22l1.32-.76c.5,1.14,1.12,2.21,1.85,3.22Z"/>
                  <path id="Path_7415" data-name="Path 7415" class="coin7-cls-17" d="m19.19,42.26l-.76,1.32c-1.13-.52-2.2-1.14-3.21-1.87l.76-1.32c1,.74,2.07,1.36,3.21,1.87h0Z"/>
                  <path id="Path_7416" data-name="Path 7416" class="coin7-cls-17" d="m28.12,43.69v1.52c-.59.06-1.19.09-1.79.09-.65,0-1.29-.03-1.92-.1v-1.52c.64.07,1.28.1,1.92.1.6,0,1.2-.03,1.79-.09Z"/>
                  <path id="Path_7417" data-name="Path 7417" class="coin7-cls-17" d="m37.33,41.78c-1.01.72-2.09,1.34-3.22,1.85l-.76-1.32c1.14-.5,2.22-1.12,3.22-1.85l.76,1.32h0Z"/>
                  <path id="Path_7418" data-name="Path 7418" class="coin7-cls-17" d="m43.59,34.21c-.52,1.13-1.14,2.2-1.87,3.21l-1.32-.76c.74-1,1.36-2.07,1.87-3.21l1.32.76h0Z"/>
                  <path id="Path_7419" data-name="Path 7419" class="coin7-cls-17" d="m45.31,26.31c0,.65-.03,1.29-.1,1.92h-1.52c.07-.64.1-1.28.1-1.92,0-.6-.03-1.2-.09-1.79h1.52c.06.59.09,1.19.09,1.79Z"/>
                  <path id="Path_7420" data-name="Path 7420" class="coin7-cls-17" d="m43.65,18.53l-1.32.76c-.5-1.14-1.12-2.22-1.85-3.22l1.32-.76c.72,1.01,1.34,2.09,1.85,3.22h0Z"/>
                  <path id="Path_7421" data-name="Path 7421" class="coin7-cls-17" d="m37.43,10.92l-.76,1.32c-1-.74-2.07-1.36-3.2-1.87l.76-1.32c1.13.51,2.2,1.14,3.21,1.87h0Z"/>
                </g>
                <path id="Path_7422" data-name="Path 7422" class="coin7-cls-5" d="m39.89,13.03c-.65-.63-1.35-1.22-2.09-1.75-3.23-2.33-7.12-3.59-11.11-3.59-.61,0-1.2.03-1.79.08-9.02.85-16.18,7.96-17.09,16.98-.06.63-.1,1.27-.1,1.92,0,.61.03,1.2.08,1.79.41,4.31,2.28,8.36,5.31,11.46-3.24-3.14-5.26-7.33-5.68-11.83-.06-.59-.08-1.19-.08-1.79,0-.64.03-1.28.1-1.92.33-3.32,1.54-6.49,3.49-9.18,3.2-4.44,8.15-7.28,13.6-7.79.59-.06,1.19-.08,1.79-.08,5.1,0,9.99,2.05,13.56,5.7h0Z"/>
                <path id="Path_7423" data-name="Path 7423" class="coin7-cls-15" d="m43.79,26.31c0,8.96-6.77,16.46-15.68,17.38-.6.06-1.19.09-1.79.09-8.96,0-16.47-6.77-17.38-15.68-.06-.59-.09-1.19-.09-1.79,0-6.93,4.1-13.21,10.45-16h0c1.66-.73,3.42-1.19,5.23-1.38.6-.06,1.2-.09,1.8-.09,8.96,0,16.47,6.77,17.38,15.68.06.6.09,1.19.09,1.79h0Z"/>
                <path id="Path_7424" data-name="Path 7424" class="coin7-cls-3" d="m43.79,26.31c0,8.96-6.77,16.46-15.68,17.38-.6.06-1.19.09-1.79.09-8.96,0-16.47-6.77-17.38-15.68-.06-.59-.09-1.19-.09-1.79,0-6.93,4.1-13.21,10.45-16h0c1.66-.73,3.42-1.19,5.23-1.38.6-.06,1.2-.09,1.8-.09,8.96,0,16.47,6.77,17.38,15.68.06.6.09,1.19.09,1.79h0Z"/>
                <path id="Path_7425" data-name="Path 7425" class="coin7-cls-2" d="m43.79,26.31c0,8.96-6.77,16.46-15.68,17.38-.6.06-1.19.09-1.79.09-8.96,0-16.47-6.77-17.38-15.68-.06-.59-.09-1.19-.09-1.79,0-6.93,4.1-13.21,10.45-16h0c1.66-.73,3.42-1.19,5.23-1.38.6-.06,1.2-.09,1.8-.09,8.96,0,16.47,6.77,17.38,15.68.06.6.09,1.19.09,1.79h0Z"/>
                <path id="Path_7426" data-name="Path 7426" class="coin7-cls-8" d="m43.7,24.52c-.91-8.91-8.42-15.68-17.37-15.68-.6,0-1.2.03-1.79.09-1.8.18-3.57.65-5.23,1.38h0c-1.14.5-2.22,1.12-3.22,1.85-2.48,1.8-4.45,4.22-5.71,7.01-1.01,2.25-1.52,4.68-1.52,7.14,0,.6.03,1.2.09,1.79.91,8.91,8.42,15.68,17.37,15.68.6,0,1.2-.03,1.79-.09,3.05-.31,5.97-1.42,8.45-3.22,1.47-1.06,2.76-2.35,3.84-3.81,2.21-3,3.39-6.62,3.39-10.34,0-.6-.03-1.2-.09-1.79h0Zm-.34,3.67c-.33,2.99-1.44,5.84-3.22,8.26-2.86,3.9-7.24,6.41-12.05,6.9-.58.06-1.16.09-1.76.09-.63,0-1.26-.03-1.88-.1-2.99-.33-5.84-1.44-8.26-3.23-1.43-1.05-2.69-2.32-3.74-3.76-1.77-2.43-2.86-5.29-3.16-8.29-.06-.58-.09-1.17-.09-1.76,0-.63.03-1.26.1-1.88.19-1.77.66-3.5,1.39-5.12,1.23-2.74,3.16-5.12,5.6-6.88.98-.72,2.04-1.32,3.16-1.81h0c2.17-.95,4.52-1.44,6.89-1.44.63,0,1.26.03,1.88.1,2.99.33,5.84,1.44,8.26,3.23,1.43,1.05,2.69,2.32,3.73,3.76,1.77,2.43,2.86,5.29,3.16,8.29.06.58.09,1.16.09,1.76,0,.63-.03,1.26-.1,1.88h0Z"/>
                <path id="Path_7427" data-name="Path 7427" class="coin7-cls-11" d="m43.46,26.31c0,.63-.03,1.26-.1,1.88-.33,2.99-1.44,5.84-3.22,8.26-2.86,3.9-7.24,6.41-12.05,6.9-.58.06-1.16.09-1.76.09-.63,0-1.26-.03-1.88-.1-2.99-.33-5.84-1.44-8.26-3.23-1.43-1.05-2.69-2.32-3.74-3.76-1.77-2.43-2.86-5.29-3.16-8.29-.06-.58-.09-1.16-.09-1.76,0-.63.03-1.26.1-1.88.19-1.77.66-3.5,1.39-5.12,1.23-2.74,3.16-5.12,5.6-6.88.98-.72,2.04-1.32,3.16-1.81h0c2.17-.95,4.52-1.44,6.88-1.44.63,0,1.26.03,1.88.1,2.99.33,5.84,1.44,8.26,3.23,1.43,1.05,2.69,2.32,3.74,3.76,1.77,2.43,2.86,5.29,3.16,8.29.06.58.09,1.16.09,1.76h0Z"/>
                <path id="Path_7428" data-name="Path 7428" class="coin7-cls-16" d="m44.11,26.51c0,.6-.03,1.19-.09,1.78-.31,3.08-1.43,6.02-3.24,8.53-1.81,2.51-4.25,4.5-7.07,5.77-1.76.79-3.64,1.29-5.57,1.47-.55.05-1.1.08-1.66.08-.6,0-1.19-.03-1.78-.09-3.08-.31-6.03-1.43-8.54-3.24-4.13-2.97-6.77-7.58-7.24-12.64-.05-.55-.08-1.1-.08-1.66,0-.6.03-1.19.09-1.79.17-1.92.66-3.8,1.45-5.57.49-1.09,1.09-2.13,1.78-3.1,1.84-2.46,4.26-4.43,7.04-5.72,1.77-.79,3.65-1.28,5.58-1.46.55-.05,1.19-.07,1.75-.07.6,0,1.2.01,1.79.07,3.05.4,5.96,1.54,8.46,3.33,4.12,2.97,6.76,7.58,7.24,12.64.05.55.08,1.1.08,1.66h0Z"/>
                <path id="Path_7429" data-name="Path 7429" class="coin7-cls-10" d="m43.46,26.31c0,8.79-6.64,16.15-15.38,17.05-.58.06-1.17.09-1.76.09-8.79,0-16.15-6.64-17.04-15.38-.06-.58-.09-1.17-.09-1.76,0-5.5,2.64-10.66,7.09-13.88.98-.72,2.04-1.32,3.16-1.81h0c1.63-.72,3.36-1.17,5.13-1.35.58-.06,1.17-.09,1.76-.09,2.41,0,4.8.51,7,1.49,1.11.5,2.16,1.11,3.14,1.84,1.43,1.05,2.69,2.32,3.74,3.76,1.77,2.43,2.86,5.29,3.16,8.29.06.58.09,1.17.09,1.76h0Z"/>
                <g id="Group_16146" data-name="Group 16146">
                  <path id="Path_7430" data-name="Path 7430" class="coin7-cls-6" d="m30.74.39v6.01c-2.9-.65-5.91-.65-8.81,0V.39c2.92-.49,5.89-.49,8.81,0Z"/>
                  <path id="Path_7431" data-name="Path 7431" class="coin7-cls-6" d="m11.28,12.53c-2.01,2.19-3.51,4.79-4.41,7.62l-4.62-2.66h0l-.58-.34c.39-1.04.84-2.06,1.36-3.04.08-.15.16-.3.25-.46s.18-.33.28-.49.19-.32.29-.48.2-.32.3-.48.2-.31.3-.47c.09-.13.18-.26.27-.39.03-.05.07-.1.1-.15.06-.08.11-.16.17-.24s.1-.13.14-.2l.02-.03c.05-.06.09-.13.14-.19.09-.12.18-.23.27-.35.17-.22.35-.45.53-.66h0l.58.34,4.61,2.66h0Z"/>
                  <path id="Path_7432" data-name="Path 7432" class="coin7-cls-6" d="m11.27,40.08l-4.61,2.66-.59.34h0c-.06-.07-.11-.14-.16-.2s-.11-.14-.16-.2c-.11-.14-.23-.29-.34-.43s-.23-.3-.34-.45c-.13-.18-.27-.37-.4-.56-.39-.57-.76-1.16-1.11-1.77-.74-1.28-1.37-2.62-1.89-4.01l.58-.34,4.62-2.67c.89,2.83,2.39,5.44,4.4,7.63h0Z"/>
                  <path id="Path_7433" data-name="Path 7433" class="coin7-cls-6" d="m30.72,46.24v6c-.18.03-.36.06-.54.09-.14.02-.29.04-.43.06-.08.01-.17.02-.25.03-.13.02-.27.03-.4.04-.18.02-.36.04-.54.05l-.38.03c-.1,0-.2.02-.3.02-.16.01-.32.02-.48.02s-.31.01-.46.01c-.03,0-.06,0-.09,0-.17,0-.35,0-.52,0s-.38,0-.56,0c-.13,0-.27,0-.4-.01h-.09c-.06,0-.12,0-.18,0-.13,0-.26-.01-.4-.02-.17-.01-.33-.02-.5-.03-.09,0-.17-.02-.26-.02-.13-.01-.27-.03-.4-.04-.16-.02-.32-.03-.48-.06l-.14-.02c-.15-.02-.3-.04-.45-.06-.01,0-.02,0-.03,0-.17-.03-.33-.05-.5-.08,0,0-.02,0-.02,0v-6.01c2.9.65,5.91.65,8.81,0h0Z"/>
                  <path id="Path_7434" data-name="Path 7434" class="coin7-cls-6" d="m50.98,35.47s0,.02-.01.03c-.06.16-.12.32-.18.48-.11.29-.24.58-.36.86l-.02.05c-.06.13-.11.26-.17.38-.04.1-.09.19-.13.29-.07.14-.14.29-.21.43-.06.12-.12.25-.19.37-.19.37-.39.74-.6,1.1-.27.47-.56.93-.85,1.38l-.02.02s-.03.05-.05.07c-.07.1-.13.2-.2.3-.04.06-.08.12-.12.17s-.08.11-.12.17c0,0-.01.02-.02.03-.05.07-.1.15-.16.22s-.11.14-.16.22-.11.15-.17.23-.12.15-.17.23c-.16.2-.32.41-.48.61h0l-.6-.35-4.6-2.65c2.01-2.19,3.51-4.79,4.41-7.63l4.6,2.66.6.35h0Z"/>
                  <path id="Path_7435" data-name="Path 7435" class="coin7-cls-6" d="m50.98,17.17l-.6.34-4.61,2.66c-.89-2.83-2.39-5.44-4.4-7.63l4.6-2.66.6-.34h0c.35.42.68.85,1,1.29.11.15.21.3.32.45l.02.03c.41.6.8,1.21,1.17,1.85.74,1.28,1.37,2.62,1.89,4.01h0Z"/>
                </g>
                <g id="Group_16147" data-name="Group 16147">
                  <path id="Path_7436" data-name="Path 7436" class="coin7-cls-14" d="m50.38,35.12c-.85,2.33-2.04,4.52-3.53,6.51-.28.38-.58.75-.89,1.12l.6.35c.17-.2.33-.4.49-.6.06-.08.12-.15.17-.23s.11-.15.17-.23.11-.14.16-.22.11-.14.16-.22c0,0,.01-.02.02-.03.04-.06.08-.12.12-.17s.08-.11.12-.17c.07-.1.14-.2.2-.3.02-.02.03-.05.05-.07v-.02c.09-.11.16-.22.24-.34.14-.23.29-.46.43-.69.07-.12.14-.23.21-.35v-.03c.09-.13.16-.25.23-.38s.15-.28.23-.42c.05-.09.1-.18.14-.28.07-.12.13-.25.19-.37.07-.14.14-.29.21-.43.05-.1.09-.19.13-.29.06-.13.12-.25.17-.38l.02-.04c.12-.29.25-.57.36-.86.06-.16.12-.32.18-.48,0,0,0-.02.01-.03l-.6-.35h0Zm-1.28-21.96c-.37-.64-.76-1.25-1.17-1.85l-.02-.03c-.11-.15-.21-.3-.32-.45-.08-.11-.16-.22-.24-.33-.25-.33-.5-.65-.76-.96l-.6.34c1.76,2.1,3.18,4.48,4.18,7.03.08.2.15.39.23.59l.6-.34c-.52-1.39-1.15-2.73-1.89-4.01h0ZM6.41,10.18c.09-.11.17-.21.26-.31l-.58-.34c-.07.08-.13.15-.19.23-.11.14-.23.29-.34.43-.09.11-.18.23-.27.35-.05.06-.1.13-.14.19l-.02.03c-.05.06-.1.13-.14.2s-.12.16-.17.24c-.04.05-.07.1-.1.15-.09.13-.18.26-.27.39-.1.15-.2.31-.3.47s-.2.32-.3.48-.19.32-.29.48-.19.32-.28.49-.17.3-.25.45c-.51.98-.97,2-1.35,3.04l.58.34c.97-2.65,2.37-5.12,4.15-7.31h0Zm-4.16,24.94l-.58.34c.52,1.39,1.15,2.73,1.89,4.01.35.61.72,1.19,1.11,1.76.13.19.26.38.4.56.11.15.22.3.34.45s.22.29.34.44c.06.07.11.14.16.2l.17.2.59-.34c-1.64-1.96-2.98-4.15-3.97-6.51-.15-.37-.3-.74-.44-1.12h0ZM26.33.02c-1.47,0-2.94.12-4.39.37v.68l.1-.02c2.84-.48,5.74-.48,8.58,0l.12.02V.39c-1.46-.25-2.93-.37-4.41-.37h0Zm0,51.91c-.91,0-1.81-.05-2.72-.14-.57-.06-1.13-.14-1.69-.24v.68s.02,0,.03,0c.17.03.33.06.5.08.01,0,.02,0,.03,0,.15.02.3.04.45.06l.14.02c.16.02.32.04.48.06.13.01.27.03.4.04l.26.02c.17.01.33.03.5.03.13,0,.26.01.4.02.06,0,.12,0,.18,0h.09c.13,0,.27,0,.4.01.19,0,.38,0,.56,0s.35,0,.52,0h.09c.15,0,.31,0,.46-.01s.32-.01.47-.02c.1,0,.2-.01.3-.02l.38-.03c.18-.01.36-.03.54-.05.13-.01.27-.03.4-.04.08,0,.17-.02.25-.03.14-.02.29-.04.43-.06.18-.03.36-.06.54-.08v-.69c-1.45.25-2.93.38-4.4.38h0Z"/>
                </g>
              </g>
              <g id="Group_16157" data-name="Group 16157">
                <g id="Group_16151" data-name="Group 16151">
                  <path id="Path_7438" data-name="Path 7438" class="coin7-cls-16" d="m40.83,6.44c-.82,1.43-1.64,2.87-2.47,4.29l-.03.06-.06-.03-4.27-2.49-.04-.02.02-.04,2.49-4.27v-.02s.03.01.03.01l4.27,2.49.05.03h0Zm-.11-.06l-4.24-2.42h.03s-2.45,4.29-2.45,4.29l-.02-.06,4.3,2.45-.09.02c.81-1.42,1.62-2.82,2.45-4.23l.03-.05h0Z"/>
                </g>
                <circle id="Ellipse_498" data-name="Ellipse 498" class="coin7-cls-6" cx="37.36" cy="7.33" r=".58"/>
                <circle id="Ellipse_499" data-name="Ellipse 499" class="coin7-cls-6" cx="13.4" cy="6.79" r=".58"/>
                <circle id="Ellipse_500" data-name="Ellipse 500" class="coin7-cls-6" cx="15.64" cy="5.44" r=".58"/>
                <circle id="Ellipse_501" data-name="Ellipse 501" class="coin7-cls-6" cx="15.24" cy="7.33" r=".58"/>
                <circle id="Ellipse_502" data-name="Ellipse 502" class="coin7-cls-6" cx="17.13" cy="7.87" r=".58"/>
                <circle id="Ellipse_503" data-name="Ellipse 503" class="coin7-cls-6" cx="14.79" cy="9.22" r=".58"/>
                <circle id="Ellipse_504" data-name="Ellipse 504" class="coin7-cls-6" cx="2.84" cy="25.12" r=".58"/>
                <circle id="Ellipse_505" data-name="Ellipse 505" class="coin7-cls-6" cx="5.6" cy="25.12" r=".58"/>
                <circle id="Ellipse_506" data-name="Ellipse 506" class="coin7-cls-6" cx="2.84" cy="27.78" r=".58"/>
                <circle id="Ellipse_507" data-name="Ellipse 507" class="coin7-cls-6" cx="5.6" cy="27.78" r=".58"/>
                <circle id="Ellipse_508" data-name="Ellipse 508" class="coin7-cls-6" cx="17.1" cy="45.01" r=".58"/>
                <circle id="Ellipse_509" data-name="Ellipse 509" class="coin7-cls-6" cx="35.53" cy="45.07" r=".58"/>
                <circle id="Ellipse_510" data-name="Ellipse 510" class="coin7-cls-6" cx="47.03" cy="25.1" r=".58"/>
                <circle id="Ellipse_511" data-name="Ellipse 511" class="coin7-cls-6" cx="48.37" cy="26.45" r=".58"/>
                <circle id="Ellipse_512" data-name="Ellipse 512" class="coin7-cls-6" cx="49.7" cy="27.8" r=".58"/>
                <circle id="Ellipse_513" data-name="Ellipse 513" class="coin7-cls-6" cx="39.2" cy="46.13" r=".58"/>
                <circle id="Ellipse_514" data-name="Ellipse 514" class="coin7-cls-6" cx="16.38" cy="46.28" r=".58"/>
                <circle id="Ellipse_515" data-name="Ellipse 515" class="coin7-cls-6" cx="15.65" cy="47.55" r=".58"/>
                <path id="Path_7439" data-name="Path 7439" class="coin7-cls-6" d="m14.86,44.28c-.32,0-.58-.28-.57-.6,0-.32.28-.58.6-.57.32,0,.57.28.57.6,0,.32-.28.58-.6.57,0,0,0,0,0,0Z"/>
                <path id="Path_7440" data-name="Path 7440" class="coin7-cls-6" d="m14.11,45.53c-.32,0-.58-.28-.57-.6,0-.32.28-.58.6-.57.32,0,.58.28.57.6,0,.32-.28.58-.6.57,0,0,0,0,0,0Z"/>
                <path id="Path_7441" data-name="Path 7441" class="coin7-cls-6" d="m13.36,46.78c-.32,0-.58-.28-.57-.6,0-.32.28-.58.6-.57.32,0,.57.28.57.6,0,.32-.28.58-.6.57,0,0,0,0,0,0Z"/>
                <g id="Group_16152" data-name="Group 16152">
                  <path id="Path_7442" data-name="Path 7442" class="coin7-cls-4" d="m50.84,28.99c-1.65.01-3.3.01-4.95,0h-.07v-.07l.02-4.95v-.04h.04l4.95.02h.02v.02l-.02,4.95v.06h0Zm0-.12l-.02-4.89.02.02-4.95.02.04-.04.02,4.95-.07-.07c1.63,0,3.26,0,4.89,0h.06Z"/>
                </g>
                <g id="Group_16153" data-name="Group 16153">
                  <path id="Path_7443" data-name="Path 7443" class="coin7-cls-16" d="m16.15,3.88c.83,1.42,1.66,2.85,2.48,4.28l.03.06-.06.03-4.3,2.46-.04.02-.02-.04-2.46-4.3v-.02s0-.01,0-.01l4.3-2.46.05-.03h0Zm-.11.06l-4.22,2.46v-.03s2.5,4.27,2.5,4.27l-.06-.02,4.27-2.49-.02.09c-.82-1.41-1.63-2.82-2.44-4.23l-.03-.05h0Z"/>
                </g>
                <g id="Group_16154" data-name="Group 16154">
                  <path id="Path_7444" data-name="Path 7444" class="coin7-cls-16" d="m1.7,23.97c1.65-.01,3.3-.01,4.95,0h.07v.07l-.02,4.95v.04h-.04l-4.95-.02h-.02v-.02l.02-4.95v-.06h0Zm0,.12l.02,4.89-.02-.02,4.95-.02-.04.04-.02-4.95.07.07c-1.63,0-3.26,0-4.89,0h-.06Z"/>
                </g>
                <g id="Group_16155" data-name="Group 16155">
                  <path id="Path_7445" data-name="Path 7445" class="coin7-cls-12" d="m11.9,46.46c.82-1.43,1.64-2.87,2.47-4.29l.03-.06.06.03,4.27,2.49.04.02-.02.04-2.49,4.27v.02s-.03-.01-.03-.01l-4.27-2.49-.05-.03h0Zm.11.06l4.24,2.42h-.03s2.46-4.29,2.46-4.29l.02.06-4.3-2.46.09-.02c-.81,1.42-1.62,2.82-2.45,4.23l-.03.05h0Z"/>
                </g>
                <g id="Group_16156" data-name="Group 16156">
                  <path id="Path_7446" data-name="Path 7446" class="coin7-cls-13" d="m36.43,48.95c-.83-1.42-1.66-2.85-2.48-4.28l-.03-.06.06-.03,4.3-2.46.04-.02.02.04,2.45,4.3v.02s0,.01,0,.01l-4.3,2.46-.05.03h0Zm.11-.06l4.22-2.46v.03s-2.5-4.27-2.5-4.27l.06.02-4.27,2.49.02-.09c.82,1.41,1.63,2.82,2.44,4.23l.03.05h0Z"/>
                </g>
              </g>
            </g>
          </g>
        </g>
      </g>
    </g>
  </g>
</svg>