<svg xmlns="http://www.w3.org/2000/svg" viewBox="0 0 18.731 18.731">
  <g id="row1" transform="translate(-31.724 -34.724)">
    <path id="icon:1_3_" d="M43.15,53.455l-1.564-1.586V53.35h-.96V51.869l-1.564,1.586-.683-.674L40.626,50.5v-.579l-1.584,1.43-.643-.712,2.228-2.011v-3.4l-2.4,2.4.153,3-.958.049-.109-2.132-.409.409-.022,3.2-.96-.006.015-2.227-1.047,1.047-.679-.679,1.047-1.047-2.228.015-.006-.96,3.2-.022.409-.409L34.5,47.762l.049-.958,3,.153,2.4-2.4h-3.4L34.538,46.78l-.712-.643,1.43-1.584h-.579L32.4,46.8l-.674-.683,1.586-1.564H31.829v-.96H33.31l-1.586-1.564.674-.683,2.279,2.247h.579l-1.43-1.584.712-.643,2.011,2.227h3.4l-2.4-2.4-3,.153-.049-.958,2.132-.109-.409-.409-3.2-.022.006-.96,2.228.015-1.047-1.047.679-.679,1.047,1.047-.015-2.227.96-.007.022,3.2.409.409.109-2.132.958.049-.153,3,2.4,2.4V39.548L38.4,37.538l.643-.712,1.584,1.43v-.579L38.379,35.4l.683-.674,1.564,1.586V34.8h.96V36.31l1.564-1.586.683.674-2.247,2.279v.579l1.584-1.43.643.712-2.227,2.011v3.366l2.38-2.38-.153-3,.958-.049.109,2.131.409-.409.022-3.2.96.006-.015,2.227,1.07-1.07.679.679-1.07,1.07,2.228-.015.006.96-3.2.022-.409.409,2.131.109-.049.958-3-.153-2.38,2.38h3.366l2.011-2.227.712.643-1.43,1.584H47.5l2.279-2.247.674.683-1.586,1.564h1.514v.96H48.869l1.586,1.564-.674.683L47.5,44.553h-.579l1.43,1.584-.712.643-2.011-2.227H42.265l2.38,2.38,3-.153.049.958-2.131.109.409.409,3.2.022-.006.96-2.228-.015,1.07,1.071-.679.679-1.07-1.07.015,2.227-.96.007-.022-3.2-.409-.409-.109,2.132-.958-.049.153-3-2.38-2.38v3.4l2.227,2.011-.643.712-1.584-1.43V50.5l2.247,2.279Z" transform="translate(0)" fill="#0098fd"/>
  </g>
</svg>
