<svg xmlns="http://www.w3.org/2000/svg" viewBox="0 0 217.673 217.673" opacity="0.4">
  <g id="_003-roulette" data-name="003-roulette" >
    <path id="Path_7503" data-name="Path 7503" d="M106.186,281a44.707,44.707,0,0,1-2.628-10h-35.1a79.378,79.378,0,0,0,7.167,27.246Z" transform="translate(-39.352 -155.786)" fill="#85640A"/>
    <path id="Path_7504" data-name="Path 7504" d="M271,68.456v35.1a44.707,44.707,0,0,1,10.556,2.85l17.673-30.327A79.376,79.376,0,0,0,271,68.456Z" transform="translate(-155.786 -39.352)" fill="#85640A"/>
    <path id="Path_7505" data-name="Path 7505" d="M193.958,106.219a44.687,44.687,0,0,1,10.089-2.661v-35.1a79.38,79.38,0,0,0-27.329,7.205Z" transform="translate(-101.588 -39.352)" fill="#85640A"/>
    <path id="Path_7506" data-name="Path 7506" d="M202.762,392.2v-35.1a44.684,44.684,0,0,1-10.608-2.872l-17.671,30.324A79.378,79.378,0,0,0,202.762,392.2Z" transform="translate(-100.303 -203.627)" fill="#85640A"/>
    <path id="Path_7507" data-name="Path 7507" d="M280.909,354.88A44.726,44.726,0,0,1,271,357.472v35.1a79.367,79.367,0,0,0,27.156-7.125Z" transform="translate(-155.786 -204.005)" fill="#85640A"/>
    <path id="Path_7508" data-name="Path 7508" d="M392.186,271h-35.1a44.7,44.7,0,0,1-2.879,10.627l30.323,17.67A79.369,79.369,0,0,0,392.186,271Z" transform="translate(-203.617 -155.786)" fill="#85640A"/>
    <path id="Path_7509" data-name="Path 7509" d="M68.456,202.855h35.1a44.724,44.724,0,0,1,2.842-10.537L76.073,174.645A79.377,79.377,0,0,0,68.456,202.855Z" transform="translate(-39.352 -100.396)" fill="#85640A"/>
    <path id="Path_7510" data-name="Path 7510" d="M212.286,179.957a32.329,32.329,0,1,0,32.329,32.329A32.366,32.366,0,0,0,212.286,179.957Zm19.348,38.706H218.663v12.971H205.909V218.663H192.938V205.909h12.971V192.938h12.754v12.971h12.971Z" transform="translate(-103.45 -103.45)" fill="#85640A"/>
    <path id="Path_7511" data-name="Path 7511" d="M138.381,328.468a45.46,45.46,0,0,1-7.724-7.837l-30.569,17.247a80.643,80.643,0,0,0,20.625,20.911Z" transform="translate(-57.536 -184.317)" fill="#85640A"/>
    <path id="Path_7512" data-name="Path 7512" d="M354.8,194.173a44.7,44.7,0,0,1,2.625,10h35.1a79.369,79.369,0,0,0-7.163-27.239Z" transform="translate(-203.961 -101.709)" fill="#85640A"/>
    <path id="Path_7513" data-name="Path 7513" d="M185.8,31.878A108.836,108.836,0,1,0,31.878,185.8,108.836,108.836,0,1,0,185.8,31.878ZM174.415,174.415A92.742,92.742,0,1,1,43.258,43.258,92.742,92.742,0,1,1,174.415,174.415Z" transform="translate(0 0)" fill="#85640A"/>
    <path id="Path_7514" data-name="Path 7514" d="M328.347,321.878a45.464,45.464,0,0,1-7.9,7.77l17.243,30.563a80.644,80.644,0,0,0,20.982-20.664Z" transform="translate(-184.209 -185.034)" fill="#85640A"/>
    <path id="Path_7515" data-name="Path 7515" d="M131.83,138.511a45.462,45.462,0,0,1,7.812-7.728L122.394,100.21a80.646,80.646,0,0,0-20.88,20.635Z" transform="translate(-58.356 -57.606)" fill="#85640A"/>
    <path id="Path_7516" data-name="Path 7516" d="M321.737,131.857a45.476,45.476,0,0,1,7.773,7.879l30.569-17.246A80.651,80.651,0,0,0,339.4,101.54Z" transform="translate(-184.953 -58.371)" fill="#85640A"/>
  </g>
</svg>
