<svg xmlns="http://www.w3.org/2000/svg" viewBox="0 0 11.727 11.716">
  <g id="Group_16244" data-name="Group 16244" transform="translate(7179.404 -13259.106)">
    <path id="Path_8611" data-name="Path 8611" d="M102.978,230.706a3.783,3.783,0,0,1,1.7.005l.814-1.947a5.869,5.869,0,0,0-3.317-.011Z" transform="translate(-7277.358 13030.587)" fill="#957a34"/>
    <g id="Group_16242" data-name="Group 16242" transform="translate(-7179.404 13259.801)">
      <circle id="Ellipse_529" data-name="Ellipse 529" cx="2.531" cy="2.531" r="2.531" transform="translate(2.282 5.157) rotate(-45)" fill="#957a34"/>
      <path id="Path_7636" data-name="Path 7636" d="M190.411,247.722a3.8,3.8,0,0,1,1.2,1.206l1.953-.8a5.906,5.906,0,0,0-2.338-2.352Z" transform="translate(-182.541 -245.757)" fill="#957a34"/>
      <path id="Path_7637" data-name="Path 7637" d="M19.467,248.486a3.8,3.8,0,0,1,1.206-1.2l-.8-1.953a5.906,5.906,0,0,0-2.352,2.338Z" transform="translate(-16.796 -245.334)" fill="#957a34"/>
      <path id="Path_7638" data-name="Path 7638" d="M230.809,332.073a3.769,3.769,0,0,1-.1.863l1.947.814a5.869,5.869,0,0,0,.011-3.317l-1.953.8A3.768,3.768,0,0,1,230.809,332.073Z" transform="translate(-221.174 -326.915)" fill="#957a34"/>
      <path id="Path_7639" data-name="Path 7639" d="M2.092,331.238a3.769,3.769,0,0,1,.1-.863l-1.947-.814a5.869,5.869,0,0,0-.011,3.317l1.953-.8A3.769,3.769,0,0,1,2.092,331.238Z" transform="translate(0 -326.08)" fill="#957a34"/>
      <path id="Path_7640" data-name="Path 7640" d="M19.417,421.324l.814-1.947a3.8,3.8,0,0,1-1.2-1.206l-1.953.8A5.906,5.906,0,0,0,19.417,421.324Z" transform="translate(-16.373 -411.027)" fill="#957a34"/>
      <path id="Path_7641" data-name="Path 7641" d="M191.121,418.666a3.8,3.8,0,0,1-1.206,1.2l.8,1.953a5.906,5.906,0,0,0,2.352-2.338Z" transform="translate(-182.066 -411.502)" fill="#957a34"/>
      <path id="Path_7642" data-name="Path 7642" d="M104.622,460.922l-.8-1.953a3.783,3.783,0,0,1-1.7-.005l-.814,1.947a5.869,5.869,0,0,0,3.317.011Z" transform="translate(-97.118 -450.135)" fill="#957a34"/>
    </g>
  </g>
</svg>
