<svg xmlns="http://www.w3.org/2000/svg" width="24.396" height="24.396" viewBox="0 0 24.396 24.396">
  <g id="Group_17508" data-name="Group 17508" transform="translate(-240 -904)" opacity="0.72">
    <g id="Path_33359" data-name="Path 33359" transform="translate(240 904)" fill="rgba(0,0,0,0.69)">
      <path d="M 12.1982421875 23.89648246765137 C 9.073532104492188 23.89648246765137 6.135842323303223 22.67965126037598 3.926342248916626 20.47014236450195 C 1.716832160949707 18.26064300537109 0.5000022053718567 15.32295227050781 0.5000022053718567 12.1982421875 C 0.5000022053718567 9.073532104492188 1.716832160949707 6.135842323303223 3.926342248916626 3.926342248916626 C 6.135842323303223 1.716832160949707 9.073532104492188 0.5000022053718567 12.1982421875 0.5000022053718567 C 15.32295227050781 0.5000022053718567 18.26064300537109 1.716832160949707 20.47014236450195 3.926342248916626 C 22.67965126037598 6.135842323303223 23.89648246765137 9.073532104492188 23.89648246765137 12.1982421875 C 23.89648246765137 15.32295227050781 22.67965126037598 18.26064300537109 20.47014236450195 20.47014236450195 C 18.26064300537109 22.67965126037598 15.32295227050781 23.89648246765137 12.1982421875 23.89648246765137 Z" stroke="none"/>
      <path d="M 12.1982421875 1.000001907348633 C 9.20708179473877 1.000001907348633 6.394962310791016 2.164821624755859 4.279891967773438 4.279891967773438 C 2.164821624755859 6.394962310791016 1.000001907348633 9.20708179473877 1.000001907348633 12.1982421875 C 1.000001907348633 15.18940258026123 2.164821624755859 18.00152206420898 4.279891967773438 20.11659240722656 C 6.394962310791016 22.23166275024414 9.20708179473877 23.39648246765137 12.1982421875 23.39648246765137 C 15.18940258026123 23.39648246765137 18.00152206420898 22.23166275024414 20.11659240722656 20.11659240722656 C 22.23166275024414 18.00152206420898 23.39648246765137 15.18940258026123 23.39648246765137 12.1982421875 C 23.39648246765137 9.20708179473877 22.23166275024414 6.394962310791016 20.11659240722656 4.279891967773438 C 18.00152206420898 2.164821624755859 15.18940258026123 1.000001907348633 12.1982421875 1.000001907348633 M 12.1982421875 1.9073486328125e-06 C 18.93514251708984 1.9073486328125e-06 24.39648246765137 5.461341857910156 24.39648246765137 12.1982421875 C 24.39648246765137 18.93514251708984 18.93514251708984 24.39648246765137 12.1982421875 24.39648246765137 C 5.461341857910156 24.39648246765137 1.9073486328125e-06 18.93514251708984 1.9073486328125e-06 12.1982421875 C 1.9073486328125e-06 5.461341857910156 5.461341857910156 1.9073486328125e-06 12.1982421875 1.9073486328125e-06 Z" stroke="none" fill="#ffd162"/>
    </g>
    <path id="Polygon_101" data-name="Polygon 101" d="M4.126,1.573a1,1,0,0,1,1.748,0l3.3,5.941A1,1,0,0,1,8.3,9H1.7A1,1,0,0,1,.825,7.514Z" transform="translate(258 911) rotate(90)" fill="#ffcf50"/>
  </g>
</svg>
