<svg xmlns="http://www.w3.org/2000/svg" xmlns:xlink="http://www.w3.org/1999/xlink" width="18.085" height="19.956" viewBox="0 0 18.085 19.956">
  <defs>
    <linearGradient id="hot-linear-gradient" x1="0.5" x2="0.5" y2="1" gradientUnits="objectBoundingBox">
      <stop offset="0" stop-color="#d30805"/>
      <stop offset="1" stop-color="#c49600"/>
    </linearGradient>
  </defs>
  <path id="Fire_09" d="M27.592,16.782a7.967,7.967,0,0,1-3.417,5.087,4.487,4.487,0,0,0,.678-3.39A13.278,13.278,0,0,0,19.162,10,5.979,5.979,0,0,1,17.5,18.316a8.367,8.367,0,0,0-2.328,11.64H17.08a4.5,4.5,0,0,1-.678-3.391,13.282,13.282,0,0,1,5.692-8.477,5.972,5.972,0,0,0,.431,7.221,7.96,7.96,0,0,0,4.747-3.3,9.464,9.464,0,0,1,1.236,7.951h1.719A9.471,9.471,0,0,0,27.592,16.782Z" transform="translate(-13.75 -10)" fill="url(#hot-linear-gradient)"/>
</svg>
