<svg xmlns="http://www.w3.org/2000/svg" width="31.83" height="31.829" viewBox="0 0 31.83 31.829">
  <path id="Subtraction_100" data-name="Subtraction 100" d="M1874.916-9353.17a15.81,15.81,0,0,1-11.254-4.661,15.812,15.812,0,0,1-4.661-11.254,15.812,15.812,0,0,1,4.661-11.254,15.815,15.815,0,0,1,11.254-4.66,15.815,15.815,0,0,1,11.254,4.66,15.812,15.812,0,0,1,4.661,11.254,15.812,15.812,0,0,1-4.661,11.254A15.81,15.81,0,0,1,1874.916-9353.17Zm.17-11.164a1.717,1.717,0,0,0-1.771,1.816,1.747,1.747,0,0,0,1.771,1.839,1.766,1.766,0,0,0,1.769-1.839A1.734,1.734,0,0,0,1875.085-9364.334Zm-.231-9.753c1.234,0,1.887.557,1.887,1.61a3.346,3.346,0,0,1-1.262,2.4,4.874,4.874,0,0,0-1.706,3.763h2.669a4.063,4.063,0,0,1,1.638-2.969,4.934,4.934,0,0,0,1.926-3.77c0-2.478-1.805-3.957-4.828-3.957-3.13,0-5.039,1.892-5.106,5.06l2.737.023C1872.875-9373.359,1873.564-9374.087,1874.855-9374.087Z" transform="translate(-1859.001 9384.999)" fill="#bcbcbc"/>
</svg>
