<svg xmlns="http://www.w3.org/2000/svg" width="6.752" height="11.016" viewBox="0 0 6.752 11.016">
  <g id="k" transform="translate(-7.25 -2.25)">
    <g id="Group_15885" data-name="Group 15885" transform="translate(7.25 2.25)">
      <circle id="Ellipse_452" data-name="Ellipse 452" cx="1.955" cy="1.955" r="1.955" transform="translate(1.421)" fill="#e4e4e4"/>
      <path id="Path_6557" data-name="Path 6557" d="M12.58,13.758V12.337a.176.176,0,0,1,.178-.178A1.25,1.25,0,0,0,14,10.915V9.494A1.25,1.25,0,0,0,12.758,8.25H8.494A1.25,1.25,0,0,0,7.25,9.494v1.421a1.25,1.25,0,0,0,1.244,1.244.176.176,0,0,1,.178.178v1.421A1.25,1.25,0,0,0,9.915,15h1.421A1.25,1.25,0,0,0,12.58,13.758Z" transform="translate(-7.25 -3.986)" fill="#e4e4e4"/>
    </g>
  </g>
</svg>
