<svg id="Layer_1-2" xmlns="http://www.w3.org/2000/svg" width="59.097" height="34.154" viewBox="0 0 59.097 34.154">
  <g id="Group_591" data-name="Group 591">
    <g id="Group_589" data-name="Group 589">
      <path id="Path_2343" data-name="Path 2343" d="M9.849,15.169h8.717V25.758c0,5.342-3.17,8.395-9.283,8.395S0,31.1,0,25.76V8.395C0,3.053,3.17,0,9.283,0s9.283,3.053,9.283,8.395v3.244H12.68V8.061c0-2.385-1.245-3.291-3.227-3.291s-3.227.906-3.227,3.291V26.092c0,2.385,1.245,3.244,3.227,3.244s3.227-.859,3.227-3.244V19.939H9.849v-4.77Z" fill="#eeb832"/>
      <path id="Path_2344" data-name="Path 2344" d="M106.5,8.395C106.5,3.053,109.84,0,115.953,0s9.453,3.053,9.453,8.395V25.758c0,5.342-3.34,8.395-9.453,8.395S106.5,31.1,106.5,25.758Zm6.227,17.7c0,2.385,1.245,3.291,3.227,3.291s3.227-.906,3.227-3.291V8.061c0-2.385-1.245-3.291-3.227-3.291s-3.227.906-3.227,3.291Z" transform="translate(-86.405)" fill="#eeb832"/>
      <path id="Path_2345" data-name="Path 2345" d="M233.367,21.324V25.76c0,5.342-3.17,8.395-9.283,8.395S214.8,31.1,214.8,25.76V8.395C214.8,3.053,217.97,0,224.083,0s9.283,3.053,9.283,8.395v3.244H227.48V8.061c0-2.385-1.245-3.291-3.227-3.291s-3.227.906-3.227,3.291V26.092c0,2.385,1.245,3.244,3.227,3.244s3.227-.859,3.227-3.244v-4.77h5.887Z" transform="translate(-174.27 0)" fill="#eeb832"/>
    </g>
  </g>
</svg>
