<svg xmlns="http://www.w3.org/2000/svg" width="13.823" height="13.839" viewBox="0 0 13.823 13.839">
  <g id="Group_17513" data-name="Group 17513" opacity="0.61">
    <g id="_010-poker_chip" data-name="010-poker chip" transform="translate(0 0)">
      <path id="Path_7653" data-name="Path 7653" d="M194.145,2.669A11.155,11.155,0,0,0,197.005,3a11.3,11.3,0,0,0,2.873-.331c.963-.265,1.451-.654,1.451-1.155s-.487-.894-1.448-1.168A10.935,10.935,0,0,0,197.005,0a10.807,10.807,0,0,0-2.864.346c-.951.273-1.433.666-1.433,1.168s.484.89,1.437,1.155Z" transform="translate(-187.507 0)" fill="#ddb652" />
      <path id="Path_7654" data-name="Path 7654" d="M322.577,108.843c-.274,0-.544-.007-.809-.022a6.03,6.03,0,0,1,1.2,1.152,10.779,10.779,0,0,0,2.484-.326c.963-.265,1.451-.654,1.451-1.155v-.542a4.091,4.091,0,0,1-1.236.533A12.114,12.114,0,0,1,322.577,108.843Z" transform="translate(-313.079 -105.032)" fill="#ddb652" />
      <path id="Path_7655" data-name="Path 7655" d="M385.609,180.816a5.946,5.946,0,0,1,.475,1.094,9.2,9.2,0,0,0,1.481-.263c.963-.265,1.451-.654,1.451-1.155v-.542a4.09,4.09,0,0,1-1.236.533A10.89,10.89,0,0,1,385.609,180.816Z" transform="translate(-375.195 -175.086)" fill="#ddb652" />
      <path id="Path_7656" data-name="Path 7656" d="M410.428,252.758a6,6,0,0,1,.089,1.031c0,.029,0,.059,0,.088a8.662,8.662,0,0,0,1.2-.23c.963-.265,1.451-.654,1.451-1.155v-.542a4.091,4.091,0,0,1-1.236.533A9.8,9.8,0,0,1,410.428,252.758Z" transform="translate(-399.343 -245.14)" fill="#ddb652" />
      <path id="Path_7657" data-name="Path 7657" d="M1.839,335H.292a5.154,5.154,0,0,0,.751,2.307l1.251-.909a3.623,3.623,0,0,1-.455-1.4Z" transform="translate(-0.292 -325.946)" fill="#ddb652" />
      <path id="Path_7658" data-name="Path 7658" d="M247.908,142.6l-.478,1.472a3.667,3.667,0,0,1,1.188.865l1.251-.909A5.215,5.215,0,0,0,247.908,142.6Z" transform="translate(-240.75 -138.746)" fill="#ddb652" />
      <path id="Path_7659" data-name="Path 7659" d="M309.042,220.567a3.62,3.62,0,0,1,.455,1.4h1.548a5.154,5.154,0,0,0-.751-2.307Z" transform="translate(-300.697 -213.721)" fill="#ddb652" />
      <path id="Path_7660" data-name="Path 7660" d="M309.042,336.4l1.251.909a5.154,5.154,0,0,0,.751-2.307H309.5A3.624,3.624,0,0,1,309.042,336.4Z" transform="translate(-300.697 -325.946)" fill="#ddb652" />
      <path id="Path_7662" data-name="Path 7662" d="M2.294,220.567l-1.251-.909a5.154,5.154,0,0,0-.751,2.307H1.84A3.622,3.622,0,0,1,2.294,220.567Z" transform="translate(-0.292 -213.721)" fill="#ddb652" />
      <path id="Path_7663" data-name="Path 7663" d="M247.431,411.821l.478,1.472a5.215,5.215,0,0,0,1.961-1.427l-1.251-.909A3.668,3.668,0,0,1,247.431,411.821Z" transform="translate(-240.751 -399.849)" fill="#ddb652" />
      <path id="Path_7664" data-name="Path 7664" d="M148.034,129.541a3.651,3.651,0,0,1,.735.074l.478-1.471a5.2,5.2,0,0,0-2.426,0l.478,1.471A3.651,3.651,0,0,1,148.034,129.541Z" transform="translate(-142.861 -124.54)" fill="#ddb652" />
      <path id="Path_7665" data-name="Path 7665" d="M148.035,452.321a3.652,3.652,0,0,1-.735-.074l-.478,1.471a5.2,5.2,0,0,0,2.426,0l-.478-1.471A3.652,3.652,0,0,1,148.035,452.321Z" transform="translate(-142.862 -440.024)" fill="#ddb652" />
      <path id="Path_7666" data-name="Path 7666" d="M48.185,144.072l-.478-1.472a5.215,5.215,0,0,0-1.961,1.427l1.251.909A3.667,3.667,0,0,1,48.185,144.072Z" transform="translate(-44.517 -138.746)" fill="#ddb652" />
      <path id="Path_7667" data-name="Path 7667" d="M47,410.956l-1.251.909a5.215,5.215,0,0,0,1.961,1.427l.478-1.472A3.668,3.668,0,0,1,47,410.956Z" transform="translate(-44.516 -399.849)" fill="#ddb652" />
    </g>
    <path id="Subtraction_73" data-name="Subtraction 73" d="M3.265,0A3.265,3.265,0,1,1,0,3.265,3.265,3.265,0,0,1,3.265,0Z" transform="translate(1.934 5.352)" fill="#ddb652" />
  </g>
</svg>