<svg xmlns="http://www.w3.org/2000/svg" viewBox="0 0 59.011 41.673">
  <g id="Group_17466" data-name="Group 17466" transform="translate(-13.188 -20.113)">
    <g id="Layer_1-2" transform="translate(13.188 20.113)">
      <g id="Group_16185" data-name="Group 16185" transform="translate(0 0)">
        <g id="Group_16183" data-name="Group 16183" transform="translate(0 0)">
          <path id="Path_33123" data-name="Path 33123" d="M9.835,15.146h8.7V25.72c0,5.334-3.165,8.382-9.27,8.382S0,31.056,0,25.722V8.382C0,3.049,3.165,0,9.27,0s9.27,3.049,9.27,8.382v3.239H12.661V8.049c0-2.382-1.244-3.286-3.222-3.286s-3.222.9-3.222,3.286v18c0,2.382,1.244,3.239,3.222,3.239s3.222-.857,3.222-3.239V19.91H9.835Z" transform="translate(0 0)" fill="#fff"/>
          <path id="Path_33124" data-name="Path 33124" d="M106.5,8.382C106.5,3.049,109.835,0,115.939,0s9.439,3.049,9.439,8.382V25.72c0,5.334-3.335,8.382-9.439,8.382S106.5,31.054,106.5,25.72Zm6.218,17.671c0,2.382,1.244,3.286,3.222,3.286s3.222-.9,3.222-3.286v-18c0-2.382-1.244-3.286-3.222-3.286s-3.222.9-3.222,3.286Z" transform="translate(-86.434 0)" fill="#fff"/>
          <path id="Path_33125" data-name="Path 33125" d="M233.34,21.293v4.43c0,5.334-3.165,8.382-9.27,8.382s-9.27-3.049-9.27-8.382V8.382C214.8,3.049,217.965,0,224.07,0s9.27,3.049,9.27,8.382v3.239h-5.878V8.049c0-2.382-1.243-3.286-3.222-3.286s-3.222.9-3.222,3.286v18c0,2.382,1.244,3.239,3.222,3.239s3.222-.857,3.222-3.239V21.291h5.878Z" transform="translate(-174.329 0)" fill="#fff"/>
        </g>
        <g id="Group_16184" data-name="Group 16184" transform="translate(1.982 37.049)">
          <path id="Path_33126" data-name="Path 33126" d="M12.674,196.85c1.605,0,2.229.441,2.229,1.1v.494c0,.72-.757,1.078-2.406,1.078H11.2v1.869H10.52V196.85Zm-.179,2.4c1.2,0,1.724-.234,1.724-.786v-.533c0-.494-.386-.812-1.545-.812H11.2v2.129h1.293Z" transform="translate(-10.52 -196.81)" fill="#fff"/>
          <path id="Path_33127" data-name="Path 33127" d="M40.749,196.842c1.59,0,2.229.383,2.229,1.025v.4c0,.531-.475.837-1.5.942,1.07.1,1.5.435,1.5.929v.707a.588.588,0,0,0,.252.545h-.712a.6.6,0,0,1-.222-.545v-.714c0-.6-.757-.772-1.946-.772H39.264v2.031H38.58V196.84h2.169Zm-.386,2.24c1.219,0,1.931-.149,1.931-.759V197.9c0-.486-.431-.778-1.56-.778H39.262v1.967h1.1Z" transform="translate(-33.293 -196.802)" fill="#fff"/>
          <path id="Path_33128" data-name="Path 33128" d="M67.99,197.789c0-.661.7-1.149,2.272-1.149s2.3.486,2.3,1.149v2.323c0,.661-.7,1.149-2.3,1.149s-2.272-.486-2.272-1.149Zm.684,2.344c0,.494.447.857,1.59.857s1.618-.364,1.618-.857v-2.363c0-.494-.46-.857-1.618-.857s-1.59.364-1.59.857Z" transform="translate(-57.162 -196.64)" fill="#fff"/>
          <path id="Path_33129" data-name="Path 33129" d="M99.767,196.842c1.605,0,2.3.462,2.3,1.129v2.285c0,.669-.7,1.129-2.3,1.129H97.48V196.84h2.287Zm-.015,4.271c1.159,0,1.634-.345,1.634-.844v-2.31c0-.5-.49-.844-1.634-.844h-1.59v4Z" transform="translate(-81.096 -196.802)" fill="#fff"/>
          <path id="Path_33130" data-name="Path 33130" d="M127.574,200.306c0,.486.416.863,1.56.863s1.56-.377,1.56-.863V196.86h.639v3.433c0,.648-.624,1.149-2.214,1.149s-2.229-.5-2.229-1.149V196.86h.684Z" transform="translate(-104.964 -196.818)" fill="#fff"/>
          <path id="Path_33131" data-name="Path 33131" d="M160.148,197.8v.377h-.654v-.4c0-.486-.431-.857-1.575-.857s-1.575.369-1.575.857v2.363c0,.486.431.85,1.575.85s1.575-.364,1.575-.85V199.6h.654v.52c0,.656-.654,1.149-2.244,1.149s-2.244-.494-2.244-1.149V197.8c0-.656.654-1.149,2.244-1.149s2.244.494,2.244,1.149Z" transform="translate(-128.314 -196.648)" fill="#fff"/>
          <path id="Path_33132" data-name="Path 33132" d="M185,201.395v-4.271H182.87v-.273h4.918v.273h-2.11v4.271h-.684Z" transform="translate(-150.397 -196.81)" fill="#fff"/>
          <path id="Path_33133" data-name="Path 33133" d="M213.594,196.85v4.544h-.684V196.85Z" transform="translate(-174.777 -196.81)" fill="#fff"/>
          <path id="Path_33134" data-name="Path 33134" d="M221.82,197.789c0-.661.7-1.149,2.272-1.149s2.3.486,2.3,1.149v2.323c0,.661-.7,1.149-2.3,1.149s-2.272-.486-2.272-1.149Zm.684,2.344c0,.494.447.857,1.59.857s1.618-.364,1.618-.857v-2.363c0-.494-.46-.857-1.618-.857s-1.59.364-1.59.857Z" transform="translate(-182.008 -196.64)" fill="#fff"/>
          <path id="Path_33135" data-name="Path 33135" d="M251.934,201.395h-.624V196.85h.891l3.12,3.836V196.85h.624v4.544h-.757l-3.254-4.051Z" transform="translate(-205.942 -196.81)" fill="#fff"/>
          <path id="Path_33136" data-name="Path 33136" d="M285.343,197.786v.1h-.654v-.117c0-.48-.416-.844-1.545-.844s-1.545.358-1.545.837c0,1.1,3.759,1.123,3.759,2.376,0,.656-.654,1.136-2.244,1.136s-2.244-.48-2.244-1.136V199.9h.654v.252c0,.486.431.837,1.575.837s1.575-.35,1.575-.837c0-1.091-3.759-1.11-3.759-2.376,0-.682.684-1.123,2.214-1.129C284.7,196.65,285.343,197.13,285.343,197.786Z" transform="translate(-229.933 -196.648)" fill="#fff"/>
        </g>
      </g>
    </g>
  </g>
</svg>
