<svg xmlns="http://www.w3.org/2000/svg"  viewBox="0 0 14.905 14.905">
  <path id="Path_2282" data-name="Path 2282" d="M7.453,14.905a7.453,7.453,0,1,1,7.453-7.453,7.453,7.453,0,0,1-7.453,7.453Zm0-13.912a6.459,6.459,0,1,0,6.459,6.459A6.459,6.459,0,0,0,7.453.994Z" />
  <path id="Path_2283" data-name="Path 2283" d="M9.5,14.962a.5.5,0,0,1-.351-.848l4.968-4.968a.5.5,0,1,1,.7.7L9.848,14.817a.5.5,0,0,1-.351.146Z" transform="translate(-4.529 -4.528)" />
  <path id="Path_2284" data-name="Path 2284" d="M14.465,14.962a.5.5,0,0,1-.351-.146L9.146,9.848a.5.5,0,1,1,.7-.7l4.968,4.968a.5.5,0,0,1-.351.848Z" transform="translate(-4.528 -4.528)" />
</svg>
