<svg xmlns="http://www.w3.org/2000/svg" viewBox="0 0 15.274 20.05">
	<g id="Group_16228" data-name="Group 16228" transform="translate(3232.9 -12326)">
		<path id="Subtraction_77" data-name="Subtraction 77" d="M11.418,13.4H3.856a3.856,3.856,0,0,1-3.137-6.1L5.938,0h3.4l5.22,7.308a3.856,3.856,0,0,1-3.137,6.1ZM3.3,7.982V8.8H4.441A3.914,3.914,0,0,0,8.279,11.5a4.487,4.487,0,0,0,3.113-1.375L10.381,9.016a3,3,0,0,1-2.013.9,2.3,2.3,0,0,1-2-1.122H8.917V7.982H6.057a2.915,2.915,0,0,1-.032-.44,1.993,1.993,0,0,1,.044-.451H8.917V6.277H6.377a2.3,2.3,0,0,1,1.991-1.1,2.807,2.807,0,0,1,2.013,1l1.012-1.231A4.371,4.371,0,0,0,8.356,3.67,4,4,0,0,0,4.462,6.277H3.3v.814h.978c-.01.149-.022.307-.022.472,0,.142.011.285.022.419Z" transform="translate(-3232.9 12332.646)" fill="#8d7333" />
		<g id="_002-money_bag" data-name="002-money bag" transform="translate(-3229.087 12326)">
			<path id="Path_7478" data-name="Path 7478" d="M317.445,112.352l-.452-.676.452-.676H316v1.352Z" transform="translate(-309.795 -106.585)" fill="#8d7333" />
			<path id="Path_7479" data-name="Path 7479" d="M161.555,3.222h4.522A4.118,4.118,0,0,0,167.636,0H165.09l-1.273,1.019L162.545,0H160A4.139,4.139,0,0,0,161.555,3.222Z" transform="translate(-159.999)" fill="#8d7333" />
			<path id="Path_7480" data-name="Path 7480" d="M224,111h2.466v1.352H224Z" transform="translate(-221.454 -106.585)" fill="#8d7333" />
		</g>
	</g>
</svg>
