<svg xmlns="http://www.w3.org/2000/svg" width="33.377" height="33.415" viewBox="0 0 33.377 33.415">
  <g id="Group_17779" data-name="Group 17779" opacity="0.88">
    <g id="_010-poker_chip" data-name="010-poker chip" transform="translate(0 0)">
      <path id="Path_7653" data-name="Path 7653" d="M196.177,6.444a26.935,26.935,0,0,0,6.907.8,27.285,27.285,0,0,0,6.937-.8c2.325-.64,3.5-1.579,3.5-2.79s-1.176-2.16-3.5-2.82A26.4,26.4,0,0,0,203.085,0a26.094,26.094,0,0,0-6.916.835c-2.3.66-3.461,1.609-3.461,2.819s1.168,2.15,3.469,2.789Z" transform="translate(-180.15 0)" fill="#bcbcbc"/>
      <path id="Path_7654" data-name="Path 7654" d="M323.722,110.107c-.661,0-1.314-.018-1.954-.052a14.561,14.561,0,0,1,2.894,2.781,26.029,26.029,0,0,0,6-.787c2.325-.64,3.5-1.579,3.5-2.79V107.95a9.879,9.879,0,0,1-2.985,1.287A29.252,29.252,0,0,1,323.722,110.107Z" transform="translate(-300.787 -100.905)" fill="#bcbcbc"/>
      <path id="Path_7655" data-name="Path 7655" d="M385.609,182.04a14.361,14.361,0,0,1,1.148,2.643,22.213,22.213,0,0,0,3.577-.634c2.325-.64,3.5-1.579,3.5-2.79V179.95a9.874,9.874,0,0,1-2.985,1.287A26.3,26.3,0,0,1,385.609,182.04Z" transform="translate(-360.462 -168.206)" fill="#bcbcbc"/>
      <path id="Path_7656" data-name="Path 7656" d="M410.428,253.9a14.5,14.5,0,0,1,.214,2.49c0,.071,0,.142,0,.213a20.918,20.918,0,0,0,2.893-.556c2.325-.64,3.5-1.579,3.5-2.79V251.95a9.878,9.878,0,0,1-2.985,1.287A23.651,23.651,0,0,1,410.428,253.9Z" transform="translate(-383.661 -235.507)" fill="#bcbcbc"/>
      <path id="Path_7657" data-name="Path 7657" d="M4.029,335H.292a12.446,12.446,0,0,0,1.814,5.57l3.021-2.2A8.747,8.747,0,0,1,4.029,335Z" transform="translate(-0.292 -313.137)" fill="#bcbcbc"/>
      <path id="Path_7658" data-name="Path 7658" d="M248.585,142.6l-1.155,3.553a8.855,8.855,0,0,1,2.868,2.088l3.021-2.195A12.592,12.592,0,0,0,248.585,142.6Z" transform="translate(-231.301 -133.293)" fill="#bcbcbc"/>
      <path id="Path_7659" data-name="Path 7659" d="M309.042,221.853a8.742,8.742,0,0,1,1.1,3.374h3.737a12.444,12.444,0,0,0-1.814-5.57Z" transform="translate(-288.892 -205.322)" fill="#bcbcbc"/>
      <path id="Path_7660" data-name="Path 7660" d="M309.042,338.375l3.021,2.2a12.446,12.446,0,0,0,1.814-5.57H310.14A8.752,8.752,0,0,1,309.042,338.375Z" transform="translate(-288.892 -313.137)" fill="#bcbcbc"/>
      <path id="Path_7662" data-name="Path 7662" d="M5.127,221.853l-3.021-2.2a12.444,12.444,0,0,0-1.814,5.57H4.029A8.746,8.746,0,0,1,5.127,221.853Z" transform="translate(-0.292 -205.322)" fill="#bcbcbc"/>
      <path id="Path_7663" data-name="Path 7663" d="M247.431,413.044l1.155,3.553a12.591,12.591,0,0,0,4.735-3.447l-3.021-2.195A8.856,8.856,0,0,1,247.431,413.044Z" transform="translate(-231.302 -384.136)" fill="#bcbcbc"/>
      <path id="Path_7664" data-name="Path 7664" d="M149.75,131.72a8.817,8.817,0,0,1,1.775.18l1.154-3.553a12.55,12.55,0,0,0-5.859,0l1.154,3.553A8.817,8.817,0,0,1,149.75,131.72Z" transform="translate(-137.258 -119.646)" fill="#bcbcbc"/>
      <path id="Path_7665" data-name="Path 7665" d="M149.751,452.426a8.816,8.816,0,0,1-1.775-.18l-1.154,3.553a12.544,12.544,0,0,0,5.859,0l-1.154-3.553A8.814,8.814,0,0,1,149.751,452.426Z" transform="translate(-137.259 -422.732)" fill="#bcbcbc"/>
      <path id="Path_7666" data-name="Path 7666" d="M51.635,146.153,50.481,142.6a12.591,12.591,0,0,0-4.735,3.447l3.021,2.195A8.855,8.855,0,0,1,51.635,146.153Z" transform="translate(-42.779 -133.293)" fill="#bcbcbc"/>
      <path id="Path_7667" data-name="Path 7667" d="M48.766,410.956l-3.021,2.195A12.593,12.593,0,0,0,50.48,416.6l1.154-3.553A8.856,8.856,0,0,1,48.766,410.956Z" transform="translate(-42.779 -384.136)" fill="#bcbcbc"/>
    </g>
    <path id="Subtraction_73" data-name="Subtraction 73" d="M7.884,0A7.884,7.884,0,1,1,0,7.884,7.884,7.884,0,0,1,7.884,0Z" transform="translate(4.669 12.923)" fill="#bcbcbc"/>
  </g>
</svg>
