<svg xmlns="http://www.w3.org/2000/svg" viewBox="0 0 9.025 14.725" fill="currentColor">
	<circle id="Ellipse_452" data-name="Ellipse 452" cx="2.612" cy="2.612" r="2.612" transform="translate(1.9)" />
	<path id="Path_6557" data-name="Path 6557" d="M14.375,15.612v-1.9a.235.235,0,0,1,.237-.237,1.67,1.67,0,0,0,1.662-1.662v-1.9A1.67,1.67,0,0,0,14.612,8.25h-5.7A1.67,1.67,0,0,0,7.25,9.912v1.9a1.67,1.67,0,0,0,1.662,1.662.235.235,0,0,1,.237.237v1.9a1.67,1.67,0,0,0,1.662,1.662h1.9A1.67,1.67,0,0,0,14.375,15.612Z" transform="translate(-7.25 -2.55)" />
</svg>
