<svg xmlns="http://www.w3.org/2000/svg" viewBox="0 0 52 51">
	<g id="Ellipse_259" data-name="Ellipse 259" fill="rgba(0,0,0,0.21)" stroke="#ad9d61" stroke-width="2">
		<ellipse cx="26" cy="25.5" rx="26" ry="25.5" stroke="none" />
		<ellipse cx="26" cy="25.5" rx="25.5" ry="25" fill="none" />
	</g>
	<path id="Rate-Full" d="M11.7.947l2.62,5.527,5.366.569a1.373,1.373,0,0,1,.727,2.436L16.135,13l1.324,5.914a1.373,1.373,0,0,1-2.052,1.474l-4.947-3.01L5.507,20.385A1.374,1.374,0,0,1,3.453,18.91L4.782,13,.5,9.48a1.373,1.373,0,0,1,.729-2.432L6.6,6.479,9.217.947a1.374,1.374,0,0,1,2.483,0Z" transform="translate(15.665 15.353)" fill="#c2b16f" />
</svg>
