<svg xmlns="http://www.w3.org/2000/svg" width="25.795" height="25.795" viewBox="0 0 25.795 25.795">
  <path id="arrow-resize-max" d="M27.3,3.153v7.83a.653.653,0,1,1-1.305,0V4.728l-7.5,7.5a.652.652,0,1,1-.923-.923l7.5-7.5H18.813a.653.653,0,1,1,0-1.305h7.83a.652.652,0,0,1,.653.653ZM11.635,26.643a.652.652,0,0,0-.653-.653H4.728l7.5-7.5a.652.652,0,1,0-.923-.923l-7.5,7.5V18.813a.653.653,0,0,0-1.305,0v7.83a.652.652,0,0,0,.653.653h7.83a.652.652,0,0,0,.653-.653Z" transform="translate(-2 -2)" fill="#c1b16e" stroke="#c2b16f" stroke-width="1"/>
</svg>
