<svg xmlns="http://www.w3.org/2000/svg" width="25.881" height="25.796" viewBox="0 0 25.881 25.796">
  <path id="arrow-resize-min" d="M18.683,10.19l7.5-7.5a.652.652,0,1,1,.923.923l-7.5,7.5h6.255a.653.653,0,0,1,0,1.305H18.03a.652.652,0,0,1-.653-.653V3.935a.653.653,0,1,1,1.305,0ZM3.152,27.3a.65.65,0,0,0,.461-.191l7.5-7.5v6.255a.653.653,0,0,0,1.305,0V18.03a.652.652,0,0,0-.653-.653H3.935a.653.653,0,1,0,0,1.305H10.19l-7.5,7.5A.653.653,0,0,0,3.152,27.3Z" transform="translate(-1.984 -2)" fill="#c2b16f" stroke="#c2b16f" stroke-width="1"/>
</svg>
