<svg xmlns="http://www.w3.org/2000/svg" width="11.501" height="11.502" viewBox="0 0 11.501 11.502">
  <g id="so-swipe-right-hand" transform="translate(13.5 -1.998) rotate(90)">
    <path id="Path_33480" data-name="Path 33480" d="M5.7,13.5h3.49a2.3,2.3,0,0,0,1.623-.671,4.471,4.471,0,0,0,1.27-2.533L12.327,8.6l.013-1.52-.9.9A1.15,1.15,0,0,1,9.811,6.362l.337-.337H7.193V3.214a1.2,1.2,0,0,0-.96-1.2A1.153,1.153,0,0,0,4.885,3.15V10.38l-.873-.868a1.2,1.2,0,0,0-1.528-.169A1.15,1.15,0,0,0,2.335,11.1l1.741,1.734A2.3,2.3,0,0,0,5.7,13.5Z" transform="translate(0 0)" fill="#bcbcbc"/>
    <path id="Path_33481" data-name="Path 33481" d="M18.007,5.282l-2.3,2.3a.575.575,0,0,1-.814-.813L16.213,5.45H13.575a.575.575,0,1,1,0-1.15h2.638L14.894,2.981a.575.575,0,0,1,.814-.813l2.3,2.3A.575.575,0,0,1,18.007,5.282Z" transform="translate(-4.676 0)" fill="#464646"/>
  </g>
</svg>
