<svg xmlns="http://www.w3.org/2000/svg" width="32.22" height="32.22" viewBox="0 0 32.22 32.22">
  <g id="Group_17456" data-name="Group 17456" transform="translate(155.468 -9314.311)">
    <g id="_015-internet" data-name="015-internet" transform="translate(-155.468 9314.311)">
      <path id="Path_1083" data-name="Path 1083" d="M31.5,13.306l-1.258-.313A2.93,2.93,0,0,1,28.31,8.318l.668-1.111a.944.944,0,0,0-.142-1.154l-2.67-2.67a.944.944,0,0,0-1.154-.142L23.9,3.91a2.93,2.93,0,0,1-4.675-1.936L18.914.716A.944.944,0,0,0,18,0H14.222a.944.944,0,0,0-.916.716l-.313,1.258A2.93,2.93,0,0,1,8.318,3.91L7.207,3.242a.944.944,0,0,0-1.154.142l-2.67,2.67a.944.944,0,0,0-.142,1.154L3.91,8.318a2.93,2.93,0,0,1-1.936,4.675l-1.258.313A.944.944,0,0,0,0,14.222V18a.944.944,0,0,0,.716.916l1.258.313A2.93,2.93,0,0,1,3.91,23.9l-.668,1.111a.944.944,0,0,0,.142,1.154l2.67,2.67a.944.944,0,0,0,1.154.142l1.111-.668a2.93,2.93,0,0,1,4.675,1.936l.313,1.258a.944.944,0,0,0,.916.716H18a.944.944,0,0,0,.916-.716l.313-1.258A2.93,2.93,0,0,1,23.9,28.31l1.111.668a.944.944,0,0,0,1.154-.142l2.67-2.67a.944.944,0,0,0,.142-1.154L28.31,23.9a2.93,2.93,0,0,1,1.936-4.675l1.258-.313A.944.944,0,0,0,32.22,18V14.222a.944.944,0,0,0-.716-.916ZM16.089,24.6a8.495,8.495,0,1,1,8.535-8.494A8.528,8.528,0,0,1,16.089,24.6Z" transform="translate(0 0)" fill="#bcbcbc"/>
    </g>
    <path id="Path_33287" data-name="Path 33287" d="M5.4,0A5.4,5.4,0,1,1,0,5.4,5.4,5.4,0,0,1,5.4,0Z" transform="translate(-144.762 9325.018)" fill="#bcbcbc"/>
  </g>
</svg>
