<svg id="Group_16170" data-name="Group 16170"
  xmlns="http://www.w3.org/2000/svg" viewBox="0 0 14.28 14.28">
  <g id="_015-internet" data-name="015-internet">
    <path id="Path_1083" data-name="Path 1083" d="M13.963,5.9l-.557-.139a1.3,1.3,0,0,1-.858-2.072l.3-.492a.418.418,0,0,0-.063-.511L11.6,1.5a.418.418,0,0,0-.511-.063l-.492.3A1.3,1.3,0,0,1,8.522.875L8.383.317A.418.418,0,0,0,7.977,0H6.3A.418.418,0,0,0,5.9.317L5.759.875a1.3,1.3,0,0,1-2.072.858l-.492-.3a.418.418,0,0,0-.511.063L1.5,2.683a.418.418,0,0,0-.063.511l.3.492A1.3,1.3,0,0,1,.875,5.759L.317,5.9A.418.418,0,0,0,0,6.3V7.977a.418.418,0,0,0,.317.406l.557.139a1.3,1.3,0,0,1,.858,2.072l-.3.492A.418.418,0,0,0,1.5,11.6l1.183,1.183a.418.418,0,0,0,.511.063l.492-.3a1.3,1.3,0,0,1,2.072.858l.139.557a.418.418,0,0,0,.406.317H7.977a.418.418,0,0,0,.406-.317l.139-.557a1.3,1.3,0,0,1,2.072-.858l.492.3a.418.418,0,0,0,.511-.063L12.781,11.6a.418.418,0,0,0,.063-.511l-.3-.492a1.3,1.3,0,0,1,.858-2.072l.557-.139a.418.418,0,0,0,.317-.406V6.3a.418.418,0,0,0-.317-.406ZM7.131,10.905A3.765,3.765,0,1,1,10.914,7.14,3.78,3.78,0,0,1,7.131,10.905Z" transform="translate(0 0)" fill="#030303" />
  </g>
  <circle id="Ellipse_497" data-name="Ellipse 497" cx="2.395" cy="2.395" r="2.395" transform="translate(4.745 4.745)" fill="#030303" />
</svg>