<svg xmlns="http://www.w3.org/2000/svg" viewBox="0 0 11.931 11.358">
	<path id="Sound" d="M1.548,6.247V5.111a1.544,1.544,0,0,1,1.3-1.7h.113a2.82,2.82,0,0,0,1.206-.273L6.592.411A1.138,1.138,0,0,1,7.439,0h0a.972.972,0,0,1,.819,1.073v9.211a.972.972,0,0,1-.819,1.073h0a1.138,1.138,0,0,1-.846-.41L4.167,8.224a2.82,2.82,0,0,0-1.206-.273H2.848A1.544,1.544,0,0,1,1.548,6.247Z" transform="translate(-1.548)" fill="#ddae51" />
	<path id="Signal" d="M1.006,2.268a4.678,4.678,0,0,1,5.858,0A.619.619,0,0,0,7.638,1.3a5.917,5.917,0,0,0-7.406,0,.619.619,0,0,0,.774.966ZM6.254,4.024a.618.618,0,0,0-.1-.869,3.514,3.514,0,0,0-4.445,0,.619.619,0,0,0,.774.965,2.3,2.3,0,0,1,2.9,0,.618.618,0,0,0,.87-.1ZM3.935,5.246a.925.925,0,1,0,.925.925.925.925,0,0,0-.925-.925Z" transform="translate(11.931 1.744) rotate(90)" fill="#ddae51" />
</svg>
