<svg xmlns="http://www.w3.org/2000/svg" width="34.68" height="34.68" viewBox="0 0 34.68 34.68">
  <g id="call_center_support_service_headset_6" data-name="call center, support service, headset, 6" transform="translate(-10 -10)">
    <path id="Path_33315" data-name="Path 33315" d="M41.79,24.45a14.45,14.45,0,1,0-28.9,0A2.89,2.89,0,0,0,10,27.34v8.67a2.89,2.89,0,0,0,2.89,2.89h4.335a1.445,1.445,0,0,0,1.445-1.445V30.23a5.62,5.62,0,0,0-.8-2.647L15.78,24.45a11.56,11.56,0,1,1,23.12,0l-2.089,3.132a5.62,5.62,0,0,0-.8,2.647v7.629a11.518,11.518,0,0,1-8.67,3.931H24.45v2.89h2.89A14.41,14.41,0,0,0,38.88,38.9h2.91a2.89,2.89,0,0,0,2.89-2.89V27.34A2.89,2.89,0,0,0,41.79,24.45Z" fill="#bcbcbc"/>
  </g>
</svg>
