<svg xmlns="http://www.w3.org/2000/svg" viewBox="0 0 51 51">
	<g id="Group_16395" data-name="Group 16395" transform="translate(-1002 -13115)" opacity="0.66">
		<g id="Ellipse_259" data-name="Ellipse 259" transform="translate(1002 13115)" fill="#ad9d61" stroke="#958963" stroke-width="1">
			<circle cx="25.5" cy="25.5" r="25.5" stroke="none" />
			<circle cx="25.5" cy="25.5" r="25" fill="none" />
		</g>
		<g id="_x32_8_1_" transform="matrix(-1, -0.017, 0.017, -1, 1035.704, 13151.423)">
			<g id="icon_13_" transform="translate(0)">
				<g id="Group_540" data-name="Group 540">
					<path id="Path_2250" data-name="Path 2250" d="M12.7,0V.933A6.178,6.178,0,0,0,6.456,7.04,6.178,6.178,0,0,0,12.7,13.147h9.287l-4.3-4.212.694-.677,5.523,5.4h0L18.35,19.1l-.694-.677L22.1,14.08H12.7A7.127,7.127,0,0,1,5.5,7.04,7.127,7.127,0,0,1,12.7,0Z" transform="translate(-5.5 0)" fill="#ad9d61" stroke="#442432" stroke-width="1" />
				</g>
			</g>
		</g>
	</g>
</svg>
